<?xml version="1.0" standalone="no"?>
<!DOCTYPE svg PUBLIC "-//W3C//DTD SVG 1.1//EN" "http://www.w3.org/Graphics/SVG/1.1/DTD/svg11.dtd" >
<svg xmlns="http://www.w3.org/2000/svg" xmlns:xlink="http://www.w3.org/1999/xlink" version="1.1">
<metadata>
Created by FontForge 20170731 at Tue Feb 27 20:23:22 2018
 By Aleksey,,,
Copyright (c) 2014 by Fontfabric. All rights reserved.
</metadata>
<defs>
<font id="NexaScriptBold-Regular" horiz-adv-x="0" >
  <font-face 
    font-family="NexaScriptBold"
    font-weight="400"
    font-stretch="normal"
    units-per-em="1000"
    panose-1="0 0 0 0 0 0 0 0 0 0"
    ascent="800"
    descent="-200"
    x-height="428"
    cap-height="713"
    bbox="-555.857 -552 2014.44 920"
    underline-thickness="50"
    underline-position="-300"
    unicode-range="U+000D-25CA"
  />
<missing-glyph horiz-adv-x="549" 
d="M102 800h348v-1097h-348v1097zM365 266v109h-36v-72h-146v-37h182zM365 118v124h-109v-62h37v25h36v-51h-110v88h-36v-124h182zM365 690v37h-181v-37h72v-40h-73v-36h182v36h-72v40h72zM293 508v77h-110v-114h182v37h-72zM365 405v36h-182v-36h73v-41h-73v-36h110v77h72z
M365 -72v124h-182v-124h182zM365 -134v37h-182v-37h77l-77 -51v-36h182v36h-112l77 51h35zM219 548h37v-40h-37v40zM219 16h110v-52h-110v52z" />
    <glyph glyph-name="f_f" unicode="ff" horiz-adv-x="820" 
d="M661 -229q-58 -67 -168 -67q-83 2 -111.5 49t-21.5 141q6 79 48 242q-103 -37 -194 -46q60 -68 70.5 -165.5t-35.5 -153.5q-58 -67 -168 -67q-83 2 -111.5 49t-21.5 141t73 339q78 281 154 378q64 82 151 82q71 0 112 -57.5t17 -151.5q-19 -77 -99.5 -150t-179.5 -106
q-3 -14 -10.5 -41t-11.5 -40q133 7 273 65q84 304 160 399q64 82 151 82q71 0 112 -57.5t17 -151.5q-19 -77 -99.5 -150t-179.5 -106q-9 -32 -24 -88q48 -30 120 -30q106 0 150 94q1 4 7 4q10 0 24 -11t12 -16q-61 -128 -195 -128q-16 0 -23 1q47 -70 47.5 -149t-45.5 -134z
M197 319q47 26 87.5 88.5t53.5 116.5q7 30 2.5 47.5t-16.5 17.5q-17 0 -38.5 -35.5t-40.5 -87.5t-30.5 -87.5t-17.5 -59.5zM609 319q47 26 87.5 88.5t53.5 116.5q7 30 2.5 47.5t-16.5 17.5q-17 0 -38.5 -35.5t-40.5 -87.5t-30.5 -87.5t-17.5 -59.5zM86 -152q-2 -48 24 -48
q25 0 44 48q17 40 10 102t-38 97q-36 -122 -40 -199zM498 -152q-2 -48 24 -48q25 0 44 48q17 40 10 102t-38 97q-36 -122 -40 -199z" />
    <glyph glyph-name="f_f_i" unicode="ffi" horiz-adv-x="1115" 
d="M1129 204q1 4 7 4q10 0 24.5 -11.5t11.5 -16.5q-100 -187 -249 -187q-115 0 -103 103q-25 -19 -53 -29t-49 -11.5t-59 -1.5q47 -70 47.5 -149t-45.5 -134q-58 -67 -168 -67q-83 2 -111.5 49t-21.5 141q6 79 48 242q-103 -37 -194 -46q60 -68 70.5 -165.5t-35.5 -153.5
q-58 -67 -168 -67q-83 2 -111.5 49t-21.5 141t73 339q78 281 154 378q64 82 151 82q71 0 112 -57.5t17 -151.5q-19 -77 -99.5 -150t-179.5 -106q-3 -14 -10.5 -41t-11.5 -40q133 7 273 65q84 304 160 399q64 82 151 82q71 0 112 -57.5t17 -151.5q-19 -77 -99.5 -150
t-179.5 -106q-9 -32 -24 -88q52 -30 125 -30q110 0 154 91q15 58 63 220q14 12 55 12q33 0 63 -8.5t38 -23.5q-12 -41 -30.5 -101.5t-29 -97t-14.5 -60.5q-9 -58 12 -58q28 -1 66.5 33.5t62.5 86.5zM197 319q47 26 87.5 88.5t53.5 116.5q7 30 2.5 47.5t-16.5 17.5
q-17 0 -38.5 -35.5t-40.5 -87.5t-30.5 -87.5t-17.5 -59.5zM609 319q47 26 87.5 88.5t53.5 116.5q7 30 2.5 47.5t-16.5 17.5q-17 0 -38.5 -35.5t-40.5 -87.5t-30.5 -87.5t-17.5 -59.5zM154 -152q17 40 10 102t-38 97q-36 -122 -40 -199q-2 -48 24 -48q25 0 44 48zM566 -152
q17 40 10 102t-38 97q-36 -122 -40 -199q-2 -48 24 -48q25 0 44 48zM1011 482q-34 0 -54.5 25t-13.5 58q8 38 35.5 60.5t65.5 22.5q38 -1 57.5 -24.5t13.5 -58.5q-6 -36 -33.5 -59.5t-70.5 -23.5z" />
    <glyph glyph-name="f_f_l" unicode="ffl" horiz-adv-x="1220" 
d="M486 -297q-61 3 -98.5 42t-31.5 111q10 112 52 280q-102 -37 -194 -46q60 -68 70.5 -165.5t-35.5 -153.5q-58 -67 -168 -67q-83 2 -111.5 49t-21.5 141t73 339q78 281 154 378q64 82 151 82q71 0 112 -57.5t17 -151.5q-19 -77 -99.5 -150t-179.5 -106q-3 -14 -10.5 -41
t-11.5 -40q137 7 275 66q24 92 72 224.5t82 173.5q67 79 155 79q73 0 112.5 -57t9.5 -149q-55 -170 -276 -257q-4 -14 -11.5 -43t-11.5 -43q89 4 157 21t131 67q5 50 16.5 106t35.5 121t55 116t79 85t103 34q68 0 109.5 -52t24.5 -137q-20 -98 -92 -168.5t-185 -100.5
q-35 -149 65 -152q109 0 175 124q1 3 6 3q9 0 23.5 -11t12.5 -16q-48 -91 -104.5 -140t-145.5 -49q-86 0 -130.5 41.5t-49.5 128.5q-43 -26 -85.5 -41.5t-69.5 -20t-73 -8.5q63 -71 79.5 -151.5t-21.5 -142.5q-60 -95 -191 -95zM197 319q47 26 87.5 88.5t53.5 116.5
q7 30 2.5 47.5t-16.5 17.5q-17 0 -38.5 -35.5t-40.5 -87.5t-30.5 -87.5t-17.5 -59.5zM607 320q48 27 90 93t50 117q9 58 -17 58q-11 0 -24.5 -16.5t-26.5 -45.5t-24.5 -57.5t-22.5 -63.5t-15.5 -51.5t-9.5 -33.5zM1013 321q34 15 66 58t50 88q18 47 20.5 82.5t-15.5 37.5
q-15 0 -34.5 -34.5t-38 -85t-30.5 -87t-18 -59.5zM86 -152q-2 -48 24 -48q25 0 44 48q17 40 10 102t-38 97q-36 -122 -40 -199zM493 -159q0 -41 24 -41q12 0 24 12t20 33q18 40 12.5 105t-37.5 100q-43 -161 -43 -209z" />
    <glyph glyph-name=".notdef" horiz-adv-x="549" 
d="M102 800h348v-1097h-348v1097zM365 266v109h-36v-72h-146v-37h182zM365 118v124h-109v-62h37v25h36v-51h-110v88h-36v-124h182zM365 690v37h-181v-37h72v-40h-73v-36h182v36h-72v40h72zM293 508v77h-110v-114h182v37h-72zM365 405v36h-182v-36h73v-41h-73v-36h110v77h72z
M365 -72v124h-182v-124h182zM365 -134v37h-182v-37h77l-77 -51v-36h182v36h-112l77 51h35zM219 548h37v-40h-37v40zM219 16h110v-52h-110v52z" />
    <glyph glyph-name=".null" 
 />
    <glyph glyph-name="nonmarkingreturn" horiz-adv-x="333" 
 />
    <glyph glyph-name="NULL" 
 />
    <glyph glyph-name="NULL" 
 />
    <glyph glyph-name="CR" unicode="&#xd;" horiz-adv-x="230" 
 />
    <glyph glyph-name="space" unicode=" " horiz-adv-x="230" 
 />
    <glyph glyph-name="exclam" unicode="!" horiz-adv-x="396" 
d="M112 -13q-30 0 -49.5 21t-17.5 50t24.5 49.5t52.5 20.5q32 0 50 -20.5t15 -49.5q-3 -30 -24.5 -50.5t-50.5 -20.5zM93 221q89 332 125 447q7 23 60 23q23 0 46 -5t36.5 -13.5t10.5 -18.5q-11 -31 -67.5 -193t-86.5 -242q-10 -25 -58 -25q-27 0 -48 8t-18 19z" />
    <glyph glyph-name="quotedbl" unicode="&#x22;" horiz-adv-x="411" 
d="M223 658l-39 -141q-6 -21 -45 -21q-17 0 -29 7t-9 20l30 137q4 13 19.5 20.5t34.5 7.5t30.5 -8t7.5 -22zM382 658l-39 -141q-6 -21 -45 -21q-17 0 -29 7t-9 20l30 137q4 13 19.5 20.5t34.5 7.5t30.5 -8t7.5 -22z" />
    <glyph glyph-name="numbersign" unicode="#" horiz-adv-x="666" 
d="M251 216l-37 -130q-8 -27 -58 -27q-23 0 -40 7t-14 18l38 132h-59q-21 0 -16 33q4 35 26 47l12 3h60l26 90h-69q-27 0 -24 33q4 32 26 46q7 4 13 4h77l38 132q7 25 57 25q24 0 41.5 -7t14.5 -18l-38 -132h80l37 130q8 27 58 27q23 0 40 -7t14 -18l-38 -132h59
q21 0 16 -33q-4 -35 -26 -47l-12 -3h-60l-26 -90h69q27 0 24 -33q-4 -32 -26 -46q-6 -4 -13 -4h-77l-38 -132q-7 -25 -57 -25q-24 0 -41.5 7t-14.5 18l38 132h-80zM301 389l-26 -90h80l26 90h-80z" />
    <glyph glyph-name="dollar" unicode="$" horiz-adv-x="626" 
d="M475 705l-9 -39q59 -22 96.5 -66.5t39.5 -86.5q1 -20 -21 -34t-49 -14q-41 0 -47 32q-7 45 -45 63q-7 -29 -21 -89.5t-18 -75.5q36 -30 48.5 -41.5t38 -40.5t36 -57.5t11.5 -62.5q1 -86 -52.5 -140t-159.5 -54h-15l-14 -58q-5 -17 -39 -17q-17 0 -29 7t-9 20q6 28 15 56
q-99 21 -141 85t-20 135q10 34 57 34q29 0 51.5 -14t19.5 -33q-5 -33 10.5 -59t47.5 -37q7 33 23 99.5t22 91.5q-33 26 -48.5 40t-39.5 40.5t-34 56t-10 64.5q1 87 59.5 128t136.5 41q16 0 24 -1q6 27 8 33q6 20 39 20q17 0 29 -7.5t9 -18.5zM367 255q-14 -66 -35 -154h9
q38 0 56 29t9.5 66.5t-39.5 58.5zM368 585q-9 3 -18 3q-18 0 -32.5 -12.5t-18.5 -32.5q-13 -59 37 -88q4 16 15 62.5t17 67.5z" />
    <glyph glyph-name="percent" unicode="%" horiz-adv-x="693" 
d="M480 21q-55 0 -88.5 33t-26.5 79q6 43 46.5 75t92.5 32q59 0 91 -33t24 -79q-5 -43 -45 -75t-94 -32zM484 99q16 0 27.5 8.5t14.5 20.5q5 13 -2.5 24t-25.5 11q-19 0 -31.5 -12t-12.5 -26q-1 -10 7 -18t23 -8zM580 615l-363 -603q-10 -13 -39 -13q-34 0 -60.5 15
t-13.5 35l368 611q8 11 30 11q32 0 61.5 -19t16.5 -37zM181 430q-59 0 -91 33t-24 79q5 43 45 75t94 32q55 0 88.5 -33t26.5 -79q-6 -43 -46.5 -75t-92.5 -32zM187 507q19 0 31.5 12t12.5 26q1 10 -7 18t-23 8q-16 0 -27.5 -8.5t-14.5 -20.5q-5 -13 2.5 -24t25.5 -11z" />
    <glyph glyph-name="ampersand" unicode="&#x26;" horiz-adv-x="608" 
d="M183 550q16 54 63.5 83t104.5 29q70 0 116 -42.5t31 -115.5q-11 -50 -62 -98.5t-107 -72.5q24 -55 90 -137q28 34 36 95q3 22 34 22q17 0 32 -8t16 -19q3 -80 -54 -162q16 -20 55 -64q12 -14 4.5 -28t-29 -25.5t-42.5 -11.5q-19 0 -30 10q-21 20 -38 38q-74 -50 -176 -50
q-94 0 -142 51.5t-39 124.5q7 61 46 113.5t107 84.5q-40 100 -16 183zM240 277q-28 -14 -45.5 -44.5t-19.5 -61.5q-3 -34 14 -57.5t52 -24.5q64 0 96 36q-50 68 -97 152zM301 527q-22 -51 -4 -112q36 18 57.5 49t23.5 63q1 20 -8 31t-22 11q-30 0 -47 -42z" />
    <glyph glyph-name="quotesingle" unicode="'" horiz-adv-x="217" 
d="M202 658l-39 -141q-6 -21 -45 -21q-17 0 -29 7t-9 20l30 137q4 13 19.5 20.5t34.5 7.5t30.5 -8t7.5 -22z" />
    <glyph glyph-name="parenleft" unicode="(" horiz-adv-x="466" 
d="M209 -162q-54 53 -83 131t-30.5 157t10.5 160q24 131 98.5 250.5t158.5 152.5q6 2 10 2q17 0 39.5 -11.5t34.5 -28t0 -27.5q-54 -50 -107 -134t-77 -198q-19 -85 -14 -163t21 -132.5t40 -93.5q13 -20 -23 -44.5t-65 -24.5q-9 0 -13 4z" />
    <glyph glyph-name="parenright" unicode=")" horiz-adv-x="465" 
d="M107 -162q-6 -2 -10 -2q-17 0 -39.5 11.5t-34.5 28t0 27.5q54 50 107 134t77 198q19 85 14 163t-21 132.5t-40 93.5q-13 20 23 44.5t65 24.5q9 0 13 -4q54 -53 83 -131t30.5 -157t-10.5 -160q-24 -131 -98.5 -250.5t-158.5 -152.5z" />
    <glyph glyph-name="asterisk" unicode="*" horiz-adv-x="313" 
d="M226 554l44 -33q13 -10 -0.5 -31t-29.5 -21q-3 0 -9 4l-30 22v-39q0 -10 -10.5 -15.5t-23.5 -5.5q-14 0 -22.5 5.5t-7.5 14.5l4 40l-34 -22q-4 -4 -10 -4q-16 0 -26.5 21.5t4.5 30.5l52 33l-45 32q-16 11 -4.5 31.5t29.5 20.5q6 0 13 -5l30 -22v36q0 12 9.5 19t22.5 7
q14 0 23 -7t7 -19l-3 -36l33 22q5 5 13 5q18 0 26 -22t-9 -33z" />
    <glyph glyph-name="plus" unicode="+" horiz-adv-x="509" 
d="M286 246l-41 -147q-6 -20 -53 -20q-22 0 -38 7t-12 19l39 141h-91q-18 0 -24 24t4 48.5t31 24.5h107l38 135q7 23 48 23q24 0 41.5 -8.5t13.5 -21.5l-36 -128h91q21 0 28 -24.5t-2.5 -48.5t-29.5 -24h-114z" />
    <glyph glyph-name="comma" unicode="," horiz-adv-x="344" 
d="M125 -156q-9 -6 -18 -6q-21 0 -35 19.5t-1 30.5q17 15 40 45t32 58q-21 8 -32.5 26t-10.5 41q2 29 25.5 49.5t53.5 20.5q31 0 48.5 -20.5t16.5 -55.5q-1 -57 -35 -115.5t-84 -92.5z" />
    <glyph glyph-name="hyphen" unicode="-" horiz-adv-x="446" 
d="M328 220h-205q-18 0 -22.5 24t7 48t32.5 24h198q21 0 26.5 -24t-5.5 -48t-31 -24z" />
    <glyph glyph-name="period" unicode="." horiz-adv-x="288" 
d="M112 -13q-30 0 -49.5 21t-17.5 50t24.5 49.5t52.5 20.5q32 0 50 -20.5t15 -49.5q-3 -30 -24.5 -50.5t-50.5 -20.5z" />
    <glyph glyph-name="slash" unicode="/" horiz-adv-x="527" 
d="M93 33q20 38 132 301.5t157 342.5q8 15 42 15t62 -14t17 -32q-40 -68 -145.5 -319t-140.5 -316q-10 -19 -56 -19q-32 0 -54.5 11.5t-13.5 29.5z" />
    <glyph glyph-name="zero" unicode="0" horiz-adv-x="569" 
d="M368 670q106 0 149.5 -78.5t21.5 -229.5q-14 -95 -53.5 -177t-108 -137t-152.5 -56q-106 0 -149 79t-21 230q14 95 53.5 176.5t107.5 136.5t152 56zM360 574q-33 1 -65.5 -51.5t-53.5 -118t-33 -129.5q-14 -63 -9.5 -125t35.5 -62q33 -1 65.5 52t53.5 118.5t33 129.5
q14 63 9.5 124.5t-35.5 61.5z" />
    <glyph glyph-name="one" unicode="1" horiz-adv-x="464" 
d="M308 654q14 19 66 19q20 0 38.5 -3.5t29.5 -10t8 -14.5q-38 -118 -92.5 -319t-77.5 -307q-5 -15 -32 -24t-58 -9q-30 0 -48 8.5t-14 24.5q27 111 40 164t41.5 144.5t54.5 147.5q-15 -29 -55.5 -68t-69.5 -49q-9 -4 -20 -4q-23 0 -41 19.5t-20 39.5t7 29q167 102 243 212z
" />
    <glyph glyph-name="two" unicode="2" horiz-adv-x="504" 
d="M396 -8q-138 5 -197 5q-78 0 -129 -4h-4q-23 0 -36 21t-8.5 47t26.5 39q92 55 173.5 157t106.5 197q31 120 -46 122q-32 1 -54.5 -27.5t-19.5 -78.5q1 -9 -10.5 -15.5t-28 -10t-34.5 -3.5q-42 0 -45 17q-15 98 50.5 154.5t158.5 56.5q214 0 178 -233q-24 -155 -258 -340
q58 5 115 5q35 0 81 -2q23 -1 24.5 -28t-13 -53t-30.5 -26z" />
    <glyph glyph-name="three" unicode="3" horiz-adv-x="506" 
d="M214 377q57 0 85.5 30.5t37.5 89.5q6 37 -10.5 58t-41.5 21q-30 0 -53.5 -27.5t-23.5 -75.5q0 -12 -25 -23t-51 -11q-39 0 -40 26q-7 99 55 153t150 54q86 0 144.5 -52.5t45.5 -142.5q-8 -54 -47.5 -96.5t-94.5 -46.5q60 -14 88.5 -63t15.5 -118q-15 -78 -79 -120.5
t-144 -42.5q-92 0 -151.5 54t-40.5 149q6 34 56 34q27 0 47 -13t16 -36q-6 -43 13 -67t49 -24q27 0 49.5 20t31.5 56q12 57 -4.5 88.5t-77.5 34.5q-12 1 -19.5 11t-8 23t2.5 26.5t10 22.5t15 8z" />
    <glyph glyph-name="four" unicode="4" horiz-adv-x="591" 
d="M374 649q15 22 73 22q23 0 43.5 -4t33.5 -11t11 -16q-54 -244 -81 -411q50 0 71 -2q16 -1 24 -24t0 -45.5t-29 -22.5q-69 0 -84 -1q-4 -24 -8.5 -61t-5.5 -43q-1 -16 -28 -26.5t-57 -10.5q-56 0 -52 29l17 107q-142 -6 -216 -6q-33 0 -51 30t3 60q37 49 165.5 211.5
t170.5 224.5zM375 479q-54 -85 -185 -257l125 6q40 176 60 251z" />
    <glyph glyph-name="five" unicode="5" horiz-adv-x="513" 
d="M436 669q21 1 30.5 -14t7.5 -34t-9.5 -35.5t-17.5 -17.5q-27 -4 -62 -4q-15 0 -49 1t-53 1h-14q-15 -50 -29 -124q39 9 71 9q101 0 141.5 -76.5t19.5 -178.5q-18 -86 -87 -145.5t-164 -59.5q-105 -1 -153 62t-29 147q6 26 50 26q27 0 49 -12.5t19 -30.5
q-7 -42 10.5 -67.5t54.5 -26.5q39 -1 62.5 29t33.5 81q12 62 -2 105t-66 43q-22 0 -57 -11q-14 -4 -30 -4q-29 0 -49 12t-14 39q1 7 19 92t28 131q7 32 29.5 47t68.5 15h103q59 0 88 1z" />
    <glyph glyph-name="six" unicode="6" horiz-adv-x="561" 
d="M235 -8q-102 0 -143.5 66t-34.5 168q4 55 15 111t35.5 117t57.5 108t84.5 77.5t113.5 31.5q85 1 131 -46t43 -113q-1 -15 -20.5 -23.5t-45.5 -8.5q-47 0 -50 20q-6 35 -19 54.5t-43 19.5q-39 -1 -74 -51.5t-58 -126.5q49 42 118 44q85 1 123 -65.5t23 -156.5
q-18 -104 -85 -165t-171 -61zM244 88q42 0 67 44t34 96q9 51 -0.5 84.5t-38.5 33.5q-71 0 -104 -119q-8 -68 1 -103t41 -36z" />
    <glyph glyph-name="seven" unicode="7" horiz-adv-x="435" 
d="M399 669q5 1 15 1q31 0 54 -16t14 -31q-82 -145 -271 -601q-6 -30 -70 -30q-33 0 -57 11t-21 31q33 88 99.5 243.5t124.5 269.5q-53 -9 -97 -9q-77 0 -119 24q-15 13 -11 37.5t19 48.5t25 21q75 -19 144 -19q24 0 49.5 2.5t40.5 5t35 6.5t26 5z" />
    <glyph glyph-name="eight" unicode="8" horiz-adv-x="529" 
d="M126 535q11 67 66 102t127 35q40 0 76 -11.5t63.5 -33t40.5 -55t5 -74.5q-16 -82 -128 -138q127 -85 111 -191q-13 -90 -86.5 -134t-171.5 -44q-102 2 -153.5 51.5t-44.5 131.5q9 112 165 199q-42 41 -60 76.5t-10 85.5zM278 311q-37 -20 -64 -56t-32 -76q-5 -37 13 -64
t49 -26q84 1 92 94q2 36 -13.5 71.5t-44.5 56.5zM268 522q-10 -54 31 -97q57 45 66 86q7 29 -6 46t-34 17q-19 0 -35.5 -13.5t-21.5 -38.5z" />
    <glyph glyph-name="nine" unicode="9" horiz-adv-x="561" 
d="M197 -8q-83 -1 -126 42t-39 95q1 19 26 32t49 13q25 0 28 -14q6 -35 21.5 -53t47.5 -18q41 1 79 51.5t52 120.5q-35 -40 -99 -40q-67 0 -110.5 34.5t-57.5 85t-4 108.5q16 97 85 160t173 62q106 -1 149.5 -66t36.5 -168q-4 -55 -15 -111t-35 -117.5t-57.5 -108t-86.5 -77
t-117 -31.5zM257 317q41 0 65.5 31t40.5 91q16 126 -44 136q-3 1 -9 1q-34 0 -61.5 -37.5t-38.5 -99.5q-9 -50 4.5 -86t42.5 -36z" />
    <glyph glyph-name="colon" unicode=":" horiz-adv-x="375" 
d="M162 -13q-30 0 -49.5 21t-17.5 50t24.5 49.5t52.5 20.5q31 0 49 -20.5t16 -49.5t-24 -50t-51 -21zM200 286q-30 0 -49.5 21t-17.5 50t24.5 49.5t52.5 20.5q31 0 49 -20.5t16 -49.5t-24 -50t-51 -21z" />
    <glyph glyph-name="semicolon" unicode=";" horiz-adv-x="359" 
d="M184 285q-30 0 -49.5 21t-17.5 50t24.5 49.5t52.5 20.5q32 0 50 -20.5t15 -49.5q-3 -30 -24.5 -50.5t-50.5 -20.5zM105 -157q-9 -6 -18 -6q-21 0 -35 19.5t-1 30.5q17 15 40 45t32 58q-21 8 -32.5 26t-10.5 41q2 29 25.5 49.5t53.5 20.5q31 0 48.5 -20.5t16.5 -55.5
q-1 -57 -35 -115.5t-84 -92.5z" />
    <glyph glyph-name="less" unicode="&#x3c;" horiz-adv-x="428" 
d="M183 92l-108 167q-32 51 18 90l180 142q13 10 28 10q29 0 46 -29.5t-5 -49.5l-157 -133l94 -151q11 -19 -11.5 -42.5t-49.5 -23.5q-22 0 -35 20z" />
    <glyph glyph-name="equal" unicode="=" horiz-adv-x="577" 
d="M436 166l-310 -1q-18 0 -24 24.5t4 48.5t31 24h303q21 0 28 -24t-2.5 -48t-29.5 -24zM462 328l-310 -1q-18 0 -24 24.5t4 48.5t31 24h303q21 0 28 -24t-2.5 -48t-29.5 -24z" />
    <glyph glyph-name="greater" unicode="&#x3e;" horiz-adv-x="428" 
d="M235 481l108 -167q32 -51 -18 -90l-180 -142q-13 -10 -28 -10q-29 0 -46 30t5 49l161 136l-95 148q-12 18 9.5 42t48.5 24q22 0 35 -20z" />
    <glyph glyph-name="question" unicode="?" horiz-adv-x="528" 
d="M174 -13q-30 0 -49.5 21t-17.5 50t24.5 49.5t52.5 20.5q32 0 50 -20.5t15 -49.5q-3 -30 -24.5 -50.5t-50.5 -20.5zM158 220q-1 48 21 86t63 82q3 3 22.5 24t24.5 26.5t18.5 23.5t18 28.5t9.5 27t5 32.5q0 47 -42 49q-68 0 -80 -107q-3 -29 -53 -29q-25 0 -44 9.5
t-19 25.5q-1 99 53 145t148 47q80 1 130.5 -36.5t51.5 -103.5q0 -15 -1.5 -29.5t-8 -29t-9.5 -24.5t-15 -25.5t-15.5 -21.5t-20 -22.5l-19 -19t-22.5 -20.5l-19 -19q-25 -24 -38.5 -39.5t-26.5 -38t-15 -44.5q-3 -27 -57 -27q-24 0 -42 8t-18 22z" />
    <glyph glyph-name="at" unicode="@" horiz-adv-x="843" 
d="M459 532q86 -1 155.5 -26.5t113 -78.5t44.5 -126q1 -64 -22.5 -118t-60 -86.5t-77 -51t-77.5 -19.5q-46 0 -70 28t-26 76q-23 -42 -50.5 -64.5t-69.5 -22.5q-55 0 -76.5 40t-6.5 94.5t56 98.5q71 74 173 74q87 0 130 -44q9 -9 -2.5 -30t-23.5 -21q-48 30 -104 30
q-50 -1 -84 -46q-23 -29 -34 -75t7 -54q2 -1 7 -1q22 0 51.5 48.5t39.5 87.5q4 16 36 16q23 0 42.5 -9t15.5 -20q-21 -71 -23 -92q-4 -39 21 -39h2q35 2 69 50.5t35 128.5q1 76 -52.5 117t-136.5 41q-114 0 -195 -74.5t-98 -188.5q-16 -108 38 -163t143 -55q51 0 96 16
q19 1 26.5 -37t-9.5 -46q-63 -31 -137 -31q-81 0 -148.5 35.5t-106.5 108.5t-27 168q9 73 41 137.5t84 115t127 79.5t164 29z" />
    <glyph glyph-name="A" unicode="A" horiz-adv-x="917" 
d="M255 -8q-95 0 -139.5 41.5t-33.5 116.5q13 86 96.5 134t201.5 48q4 0 13 -0.5t14 -0.5q4 8 16 35.5t15.5 35t14 30.5t14.5 31t14 27.5t15.5 28.5t15.5 25t18.5 26.5t19 24t22.5 26.5q63 70 157 70q46 0 80 -21.5t42 -60.5q19 -94 -41 -315q97 2 135 32q7 5 11 5
q13 0 22.5 -19t3.5 -25q-55 -55 -182 -67q-20 -78 -43 -198q-23 -27 -85 -27t-82 26q12 81 43 198l-104 7q-24 -57 -45 -93.5t-53 -71.5t-75.5 -52t-100.5 -17zM268 83q27 1 50.5 38.5t52.5 114.5q-45 0 -82 -21.5t-49 -62.5q-9 -23 -2.5 -46.5t30.5 -22.5zM651 302
q58 202 64 258q3 26 -13 26q-42 0 -139 -276q13 -2 44.5 -4t43.5 -4z" />
    <glyph glyph-name="B" unicode="B" horiz-adv-x="894" 
d="M583 692q136 -2 222.5 -59t67.5 -150q-12 -58 -63 -91.5t-113 -33.5q84 -11 122 -78.5t16 -138.5q-23 -71 -82.5 -110t-136.5 -39q-112 0 -194 67q-59 -67 -176 -67q-80 0 -132 30t-48 91q4 55 47 86t106 31q66 0 127 -32q8 24 26.5 87.5t33 107.5t39.5 90.5t52 65.5
q16 8 44 8q24 0 46.5 -6.5t29.5 -16.5q-33 -61 -59 -139q56 4 100.5 29.5t56.5 69.5q14 53 -26 78.5t-115 26.5h-6q-114 0 -184.5 -52.5t-40.5 -138.5q-9 -23 -34.5 -41.5t-52.5 -18.5q-7 0 -11 1q-72 41 -69 117t68 132q112 94 339 94zM260 148h-9q-39 0 -47 -27
q-8 -23 15 -35q9 -4 21 -4q23 0 45 13.5t33 33.5q-38 17 -58 19zM532 319q-52 -158 -65 -189q59 -49 115 -49q80 0 105 104q12 46 -7.5 79t-60.5 47q-30 10 -60 10q-9 0 -27 -2z" />
    <glyph glyph-name="C" unicode="C" horiz-adv-x="670" 
d="M562 691q93 -5 138 -52.5t32 -120.5q-11 -65 -70.5 -106t-140.5 -41q-100 0 -193 63q-34 -82 -31 -166q3 -97 49.5 -142t120.5 -45q66 0 125.5 33t90.5 90q3 4 8 4q11 0 25 -11t10 -17q-52 -97 -130 -143.5t-189 -46.5q-122 0 -200.5 77t-67.5 222q11 146 100 253
q-39 64 -45 127q-1 10 10.5 16.5t26.5 6.5q25 0 29 -13q19 -62 31 -83q109 96 249 96q4 0 11 -0.5t11 -0.5zM537 598q-100 0 -167 -90q50 -32 110 -32q42 0 71.5 19.5t33.5 58.5q2 18 -11.5 30.5t-36.5 13.5z" />
    <glyph glyph-name="D" unicode="D" horiz-adv-x="948" 
d="M568 692q67 -2 126 -22t108.5 -59.5t78 -106.5t25.5 -154q-3 -94 -33.5 -172.5t-99 -132t-164.5 -53.5q-89 0 -179 63q-63 -63 -176 -63q-86 0 -135.5 32t-44.5 91q4 55 48 84t106 29q69 0 127 -32q14 34 38.5 118t49.5 143t60 89q18 12 50 12q27 0 50 -8t25 -19
q-40 -56 -86.5 -203.5t-73.5 -194.5q67 -49 129 -49q43 0 75 27.5t47.5 72t23 86t7.5 81.5q1 52 -7 93t-29.5 78t-65.5 57.5t-108 20.5q-39 0 -79 -13t-71 -38t-43.5 -60t3.5 -80q-2 -16 -28 -38.5t-56 -22.5q-9 0 -18 3q-60 32 -63 103t49 127q101 111 334 111zM256 149
q-38 -3 -45 -31q-5 -23 16 -33q7 -4 15 -4q25 0 48.5 13t35.5 35q-35 20 -70 20z" />
    <glyph glyph-name="E" unicode="E" horiz-adv-x="612" 
d="M301 684q4 -28 11 -42q61 52 165 52q80 0 136 -35.5t53 -100.5q-3 -70 -51 -101t-122 -31q-32 1 -65.5 15t-53.5 33q4 -40 33 -68.5t82 -36.5q14 -15 4 -48.5t-29 -38.5q-19 4 -45 4q-56 0 -98.5 -22.5t-50.5 -68.5q-6 -34 5 -57.5t35 -34.5t46.5 -15.5t48.5 -4.5
q69 0 128.5 31.5t92.5 89.5q3 5 8 5q11 0 24 -11.5t11 -16.5q-47 -93 -130.5 -141.5t-190.5 -48.5q-38 0 -73.5 6t-69.5 21.5t-57.5 38.5t-34.5 60t-4 84q13 78 72 120t132 45q-38 16 -56 59.5t-14.5 88.5t21.5 76q-21 40 -23 92q0 9 9.5 14.5t22.5 5.5q25 0 28 -18z
M392 549q41 -36 89 -36q45 2 48 45q1 17 -15 27.5t-39 10.5q-57 0 -83 -47z" />
    <glyph glyph-name="F" unicode="F" horiz-adv-x="697" 
d="M573 677q18 17 72 17q23 0 44.5 -3.5t34.5 -10t10 -14.5q-30 -81 -109 -319h51q13 -14 10 -43.5t-20 -44.5h-70q-13 -38 -19 -55t-17.5 -47.5t-19 -43.5t-21 -35t-25.5 -31.5t-30 -22.5t-38 -18t-46 -9.5t-56 -4.5q-63 -1 -106.5 22t-58.5 58t-13 73t29 70.5t69 46.5
q3 1 10 1q31 0 62 -27t13 -46q-32 -35 -28.5 -71t33.5 -37t50 40.5t48 136.5h-47q-14 10 -8 45t22 43h59q33 109 84 228q-37 -33 -89 -33q-16 0 -45.5 3.5t-43.5 3.5q-36 0 -60 -17q-31 -22 -24 -51q5 -23 29 -23q15 0 33 12q6 3 12 3q17 0 33 -23t9 -31q-37 -50 -115 -50
q-42 0 -80 16t-57 41q-21 34 -22.5 73t24.5 76.5t72 55.5q45 18 96 18q30 0 81 -9t72 -9q60 0 106 46z" />
    <glyph glyph-name="G" unicode="G" horiz-adv-x="703" 
d="M483 692q105 -1 158.5 -64t18.5 -142q-27 -60 -79 -90t-117 -30q-109 0 -197 69q-21 -46 -34 -99.5t-14 -105.5t23.5 -86.5t74.5 -35.5q35 0 63.5 15.5t49 44.5t33 55t25.5 63q6 18 67 18q34 0 57 -8.5t18 -24.5q-47 -158 -73 -255q92 54 160 188q1 4 7 4q11 0 25 -11
t11 -17q-53 -99 -102.5 -153t-121.5 -83q-13 -48 -22.5 -76.5t-28.5 -64t-42 -54.5t-60 -32.5t-85 -13.5q-67 0 -108 29.5t-34 88.5q5 38 25 65.5t56.5 45t69 26.5t84.5 20l21 72q-47 -34 -127 -34q-94 3 -149.5 58.5t-64.5 135t18.5 170.5t87.5 164q-39 68 -46 133
q-1 9 8.5 14t23.5 5q33 0 36 -16q6 -40 30 -82q109 94 254 94zM475 600q-97 -1 -166 -93q47 -37 106 -37q38 0 66.5 17.5t38.5 52.5q8 25 -3.5 42.5t-41.5 17.5zM359 -151l18 58q-35 -9 -61 -28.5t-33 -37.5q-8 -23 -3 -34.5t19 -11.5q16 0 34 14.5t26 39.5z" />
    <glyph glyph-name="H" unicode="H" horiz-adv-x="948" 
d="M559 676q18 17 66 17q31 0 59 -7.5t36 -19.5q-40 -109 -121 -357l100 -17q89 288 123 371q13 10 58 10q77 0 99 -30q-62 -174 -116 -364q68 3 122 33q3 2 8 2q13 0 21 -20.5t0 -25.5q-71 -50 -171 -58q-40 -137 -54 -191q-22 -24 -86 -24q-67 0 -80 30q8 25 26.5 92
t28.5 100q-18 2 -53 5.5t-52 5.5q-15 -40 -23 -60.5t-22.5 -50.5t-26.5 -45t-31.5 -33t-41 -26.5t-51.5 -14.5t-67 -6q-105 -1 -147 48t-29 114q10 51 41 87.5t75.5 55t90 26t97.5 7.5q40 122 89 244q-32 -33 -87 -33q-16 0 -47 3.5t-46 3.5q-34 0 -57 -13q-16 -9 -22 -24
t-2 -29q7 -22 31 -22q14 0 31 10q17 -1 29.5 -22t7.5 -40q-42 -48 -110 -48q-40 0 -74.5 17.5t-50.5 47.5q-30 53 -16 109q14 58 68.5 86.5t119.5 28.5q30 0 79.5 -8.5t71.5 -8.5q59 0 106 44zM411 233q-55 -7 -80 -27t-38 -53q-11 -23 -2.5 -46.5t30.5 -24.5q26 -1 46.5 36
t43.5 115z" />
    <glyph glyph-name="I" unicode="I" horiz-adv-x="580" 
d="M479 667q25 20 87 20q64 0 78 -21q-4 -10 -130 -383q-2 -7 -7 -21q-15 -45 -23 -66.5t-22.5 -56.5t-27 -52t-33 -39t-43.5 -32t-54.5 -17.5t-70.5 -7.5q-111 -1 -157 73q-36 58 -12 121q24 60 90 73q29 0 57 -21.5t27 -46.5q-21 -22 -26.5 -48t4.5 -43t31 -17
q11 0 21 6.5t19 22t16.5 31t17 43.5t15.5 48.5t17 57.5t18 60q4 11 27 87.5t37 115.5q-22 -26 -64 -38t-74.5 -24t-40.5 -40q-14 -50 26 -62q7 -15 -2 -39t-26 -31q-18 -2 -26 -2q-62 0 -102 40t-29 98q8 43 40 68t76.5 36t91.5 20.5t95.5 30.5t78.5 56z" />
    <glyph glyph-name="J" unicode="J" horiz-adv-x="604" 
d="M169 -297q-70 -1 -106.5 34t-31 83t43.5 86q57 57 201 81q100 363 167 569q-17 -22 -47 -35t-55 -17t-48 -16t-30 -33q-17 -51 23 -65q7 -5 5.5 -20t-13 -32.5t-24.5 -18.5q-6 -1 -17 -1q-65 0 -106 41.5t-25 101.5q11 41 43.5 65t77 34t90.5 19t93.5 31t77.5 59
q25 19 82 19q70 0 78 -24q-36 -104 -108 -326.5t-100 -321.5q54 25 95.5 68t83.5 120q1 3 7 3q11 0 25 -10.5t10 -17.5q-55 -98 -110.5 -151t-131.5 -84q-16 -50 -27 -78.5t-31.5 -64t-44 -53.5t-61 -31t-86.5 -14zM175 -205q31 0 51 35.5t27 73.5q-78 -23 -95 -64
q-7 -20 -2 -32t19 -13z" />
    <glyph glyph-name="K" unicode="K" horiz-adv-x="906" 
d="M765 670q18 18 67 18q31 0 58 -7.5t32 -18.5q-32 -118 -96.5 -206t-159.5 -123q19 -10 36 -32t25 -48q10 -32 19 -98t24.5 -110t50.5 -68q13 -28 -17 -69.5t-76 -41.5q-2 0 -5 0.5t-5 0.5q-35 12 -58.5 40.5t-34.5 68.5t-16.5 76.5t-9.5 81t-8 64.5q-8 40 -21 59t-42 24
q-16 -54 -27 -85.5t-27.5 -69.5t-35 -58.5t-45 -40t-61 -27.5t-79.5 -8q-111 -1 -157 73q-36 58 -10 120q23 58 86 73q27 1 57 -19.5t30 -47.5q-21 -21 -26.5 -47.5t5 -44.5t31.5 -18q40 1 83 135q18 57 32.5 104.5t34 112t36.5 121.5q-18 -19 -48.5 -32t-56 -18t-47.5 -19
t-28 -36q-11 -44 26 -61q9 -5 0.5 -33t-28.5 -36q-16 -2 -24 -2q-63 0 -104 43t-26 101q10 41 43 65.5t77.5 35.5t91 20t94 30t76.5 56q18 20 86 20q69 0 75 -22q-30 -79 -94 -267q29 12 52.5 28.5t42.5 39t31.5 39t25.5 46t18 41t15.5 42.5t11.5 35z" />
    <glyph glyph-name="L" unicode="L" horiz-adv-x="625" 
d="M492 661q19 25 79 25q30 0 55.5 -7t31.5 -18q-19 -49 -89.5 -267t-101.5 -278q8 -9 23 -27q49 -57 72 -82t54.5 -46.5t59.5 -21.5q19 0 36 7q27 -5 33 -55.5t-18 -73.5q-30 -10 -61 -10q-43 0 -85 20t-79.5 57.5t-63.5 70.5t-57 79q-80 -42 -164 -42q-66 0 -110 27
t-44 87q0 61 50 93t120 32q62 0 110 -24q27 79 61.5 192t51.5 160q-17 -23 -48 -36.5t-57.5 -18t-50 -17.5t-29.5 -36q-13 -45 26 -61q4 -16 -4.5 -39t-22.5 -31q-18 -2 -26 -2q-62 0 -102 40.5t-28 100.5q9 42 40.5 66t76 34.5t90.5 19t94 28.5t77 54zM208 131
q-13 -15 -4 -31.5t35 -17.5q44 0 70 40q-24 23 -61 23q-31 0 -40 -14z" />
    <glyph glyph-name="M" unicode="M" horiz-adv-x="1200" 
d="M1007 -81q-28 8 -47.5 24.5t-29 42.5t-14 53t0 67.5t10 74t18.5 84t23 85.5t27 90q4 12 13 37.5t13.5 41.5t8 34.5t-1.5 27.5t-19 9q-39 0 -93 -60.5t-83 -135.5q-38 -111 -64.5 -200t-37.5 -130.5t-16 -53.5q-17 -19 -82 -19q-75 0 -80 33q15 47 53.5 178.5t71.5 237.5
q30 98 29 124q-1 25 -18 26q-37 0 -85 -61t-79 -122t-47 -105q-28 -82 -57 -186.5t-29 -105.5q-22 -20 -77 -20q-72 0 -85 34q10 29 85 286q28 93 76 243q-18 -20 -48.5 -32t-56 -16.5t-48 -17.5t-28.5 -36q-12 -47 27 -62q6 -5 5.5 -19.5t-10 -31t-22.5 -18.5
q-16 -2 -25 -2q-64 0 -104.5 40t-27.5 101q9 41 40.5 65.5t75.5 36t91 21.5t96.5 32.5t81.5 58.5q16 15 63 15q68 0 77 -24l-39 -111q42 60 104 99.5t126 39.5q56 0 80.5 -33.5t16.5 -91.5q106 126 211 126q32 0 55 -9.5t35.5 -23t17.5 -36.5t5 -42.5t-5 -48t-9.5 -45.5
t-12.5 -43.5t-10 -34.5q-10 -38 -30.5 -102t-30 -99t-16.5 -77t2.5 -66.5t34.5 -37.5q14 -26 -16.5 -68t-76.5 -42q-9 0 -13 1z" />
    <glyph glyph-name="N" unicode="N" horiz-adv-x="890" 
d="M762 692q33 0 56.5 -10t36.5 -23t18.5 -37t6.5 -41.5t-4 -47.5t-8.5 -45t-12 -44t-9.5 -34q-11 -40 -31 -102t-30 -98t-16.5 -77t2.5 -66.5t34 -39.5q16 -21 -15.5 -65t-71.5 -44h-6q-26 3 -45.5 12.5t-31 27t-19 37.5t-8.5 49.5t0 55.5t8 63.5t13.5 66.5t18 70.5
t20 69.5t21.5 70q3 9 8.5 26.5t9.5 29.5t8.5 28t5.5 26.5t0.5 20.5t-5.5 15t-14 5q-52 0 -118 -82.5t-103 -200.5q-28 -88 -49 -160t-28.5 -99t-11.5 -36q-9 -23 -72 -23q-33 0 -59.5 9.5t-29.5 25.5q14 45 69 229.5t93 301.5q-18 -22 -49.5 -35t-57.5 -17t-48.5 -16.5
t-27.5 -34.5q-6 -26 0.5 -40t26.5 -24q6 -6 5.5 -20.5t-11 -30.5t-23.5 -18q-16 -2 -24 -2q-62 0 -102.5 41.5t-28.5 99.5q9 42 41.5 67t77.5 36t92.5 21t96.5 32t79 59q18 14 63 14q65 0 75 -25q-19 -59 -38 -110q40 59 100 99.5t122 39.5z" />
    <glyph glyph-name="O" unicode="O" horiz-adv-x="779" 
d="M486 692q79 -2 131.5 -34.5t73.5 -79t25 -105t-5 -108t-24 -92.5q33 2 75 15.5t62 28.5q7 0 9 -11.5t-1.5 -24.5t-8.5 -17q-66 -49 -160 -59q-43 -100 -125 -156.5t-189 -56.5q-141 0 -195 90q-31 50 -26 126t44 118q9 6 21 6q27 0 57 -23t27 -39q-16 -24 -18.5 -57
t7.5 -62t34 -49t57 -20q58 0 92 35t59 98q-130 22 -214 106t-65 200q9 60 50.5 100t93.5 55.5t113 15.5zM474 599q-40 0 -64.5 -25.5t-28.5 -65.5q-7 -62 32.5 -126.5t118.5 -87.5q6 25 11.5 55.5t9 77.5t-1 83t-24 62.5t-53.5 26.5z" />
    <glyph glyph-name="P" unicode="P" horiz-adv-x="832" 
d="M434 547q19 10 48 10q27 0 50 -7.5t25 -17.5q-14 -19 -42 -87.5t-50 -144.5q9 -1 28 -1q64 0 109.5 31.5t61.5 100.5q19 80 -28.5 123.5t-125.5 44.5h-6q-114 0 -183.5 -52t-40.5 -138q-1 -16 -29 -38.5t-55 -22.5q-7 0 -10 1q-33 14 -52.5 43t-19.5 65q0 54 28.5 97
t71 68t98.5 41.5t106 22.5t98 6q66 0 126 -17t106.5 -49t68.5 -85t8 -119q-20 -94 -95.5 -157.5t-192.5 -63.5q-44 0 -97 11q-12 -42 -31.5 -110.5t-24.5 -85.5q-15 -20 -80 -20q-71 0 -74 31q10 27 46.5 157.5t75 227t82.5 135.5z" />
    <glyph glyph-name="Q" unicode="Q" horiz-adv-x="704" 
d="M382 34q-68 -41 -149 -41q-87 0 -133.5 30.5t-43.5 90.5q2 42 29.5 70t62.5 38t77 10q93 -3 164 -53q49 58 78.5 134.5t31.5 153.5q2 62 -24.5 97t-77.5 35q-61 0 -102.5 -30.5t-51.5 -76.5q-20 -89 30 -142q10 -10 -1 -26t-33.5 -28t-42.5 -12q-14 0 -24 7
q-52 34 -74 85t-14 111q11 86 94.5 146t231.5 59q120 -1 191.5 -64.5t63.5 -161.5q-8 -107 -53.5 -191t-123.5 -171q114 -112 163 -135q22 -10 45 -10q19 0 36 7q16 -3 26 -27.5t7.5 -54.5t-18.5 -47q-28 -10 -62 -10q-81 0 -160.5 61.5t-142.5 145.5zM243 80q32 0 74 32
q-19 18 -33 24.5t-35 6.5q-20 0 -32.5 -9t-14.5 -21q-3 -13 7.5 -23t33.5 -10z" />
    <glyph glyph-name="R" unicode="R" horiz-adv-x="813" 
d="M679 -108h-6q-21 2 -40 12t-33 22t-29 34.5t-24 38t-21 44.5t-17 43t-15.5 45.5t-13.5 39.5q-16 46 -29 61h-35q-50 -159 -63 -215q-16 -21 -81 -21q-31 0 -52 8t-20 23q4 12 30.5 101.5t52.5 173t39 114.5q41 99 78 128q17 13 51 13q27 0 51 -8t24 -18q-26 -32 -87 -215
q80 1 136.5 41.5t61.5 113.5q4 55 -44 91t-119 37q-114 0 -183 -53q-74 -57 -42 -135q-1 -18 -29 -40.5t-55 -22.5q-1 0 -4 0.5t-5 0.5q-33 14 -53.5 45t-19.5 65q1 54 30 96.5t71.5 67t98.5 41t105 22.5t97 6q133 -1 223.5 -62.5t84.5 -158.5q-5 -80 -58 -136.5t-148 -83.5
q17 -18 35 -67q51 -146 122 -166q25 -26 2 -76t-67 -50z" />
    <glyph glyph-name="S" unicode="S" horiz-adv-x="613" 
d="M608 510q-12 -24 -61 -24q-24 0 -45 8t-26 21q12 85 -53 85q-23 -1 -41 -17.5t-21 -56.5q-3 -33 17 -66t50.5 -62.5t60.5 -60.5t50 -73t17 -87q-7 -93 -78 -140t-185 -46q-79 1 -129.5 28t-68.5 70.5t-18 90.5t17 95q15 16 53 16q29 0 52.5 -9.5t27.5 -24.5
q-18 -79 6 -126.5t70 -49.5q41 0 65 22.5t26 63.5q3 38 -18 74t-52 66.5t-61.5 62.5t-49.5 74.5t-14 90.5q4 44 24.5 75.5t52.5 49t68 25.5t79 8q102 -3 151.5 -51t33.5 -132z" />
    <glyph glyph-name="T" unicode="T" horiz-adv-x="777" 
d="M553 499q29 0 60 -12q23 -11 23 -25q0 -5 -5 -10q-34 -37 -67 -138.5t-56 -192.5t-32 -102q-18 -22 -79 -22q-28 0 -51.5 9t-22.5 33q10 25 26 87t32.5 121t39.5 119t57 96.5t75 36.5zM664 521q-33 0 -75.5 4.5t-96 12.5t-75.5 11q-26 4 -39 4q-91 0 -91 -54
q0 -18 8.5 -28t18 -13t18 -12.5t8.5 -25.5q0 -33 -14.5 -44.5t-48.5 -11.5q-63 0 -103.5 39t-40.5 104q0 47 22.5 81.5t60 53.5t78.5 27.5t85 8.5q43 0 127.5 -16.5t127.5 -16.5q20 0 39 2.5t39 9.5t32 22t12 37q0 6 -2 16t-2 15q0 18 20.5 28.5t39.5 10.5q30 0 46 -35
t16 -69q0 -77 -64.5 -119t-145.5 -42z" />
    <glyph glyph-name="U" unicode="U" horiz-adv-x="938" 
d="M471 669q24 18 85 18q72 0 77 -24q-13 -39 -39 -113t-49 -145t-57 -181q-43 -142 30 -142q40 0 81.5 47t66.5 127q5 17 55 180.5t70 222.5q21 14 63 14q36 0 65.5 -10t32.5 -26q-56 -139 -152 -493q-15 -58 11 -60q83 0 141 120q2 4 7 4q10 0 24.5 -10.5t11.5 -17.5
q-35 -71 -101 -131t-141 -60q-42 0 -71.5 24.5t-28.5 70.5q-33 -45 -85.5 -69t-97.5 -24q-102 0 -138 68t0 202q12 45 47 147.5t49 147.5q-17 -22 -48 -34.5t-57 -16.5t-49 -17t-29 -36q-11 -45 25 -62q11 -9 0 -38.5t-27 -30.5q-16 -2 -25 -2q-63 0 -104 41t-26 99
q11 41 43.5 65.5t77 36t91 21t94 31t77.5 56.5z" />
    <glyph glyph-name="V" unicode="V" horiz-adv-x="888" 
d="M826 827q71 -81 78 -207q4 -82 -28 -164.5t-92 -148.5q-35 -37 -104.5 -94t-120.5 -106t-70 -93q-17 -22 -70 -22q-68 0 -74 37q14 76 23.5 241.5t40.5 301.5q-18 -21 -60.5 -34.5t-78.5 -28.5t-45 -41q-17 -49 26 -64q6 -5 5.5 -19.5t-11.5 -31.5t-24 -19q-16 -2 -24 -2
q-64 0 -105.5 43t-25.5 101q11 38 40.5 61.5t70 34.5t82.5 19t86.5 24t73.5 42t81 26q26 0 46.5 -7.5t24.5 -18.5q-10 -36 -18.5 -77t-13.5 -70t-10.5 -78t-7.5 -69t-7 -77.5t-6 -71.5q24 29 50.5 57.5t62.5 64.5t60 61q83 88 80 211q-2 79 -48 146q-1 25 32.5 49.5
t67.5 24.5q9 0 13 -1z" />
    <glyph glyph-name="W" unicode="W" horiz-adv-x="1246" 
d="M1199 735q4 1 12 1q39 0 73 -40t21 -65q-89 -65 -179 -379q-37 -130 -106 -195.5t-191 -65.5q-74 0 -111.5 38t-40.5 93q-68 -131 -206 -131q-212 0 -138 278q12 45 45.5 142.5t48.5 144.5q-17 -22 -48 -35t-58 -17t-50.5 -16.5t-29.5 -35.5q-11 -44 28 -63
q8 -9 -1 -36.5t-25 -31.5q-18 -2 -26 -2q-66 0 -103.5 38.5t-27.5 98.5q6 39 37 63.5t76.5 37t93 23.5t96.5 32t78 54q20 20 83 20q32 0 55.5 -6.5t24.5 -17.5q-15 -44 -38.5 -114t-47 -142.5t-57.5 -181.5q-43 -142 29 -142q30 0 67.5 47.5t61.5 126.5q22 71 76 227t63 184
q12 18 65 18q34 0 62 -9.5t32 -27.5q-88 -245 -149 -462q-30 -105 41 -105q39 0 71.5 45.5t53.5 112.5q79 257 104 319q55 138 123 172q6 3 12 5z" />
    <glyph glyph-name="X" unicode="X" horiz-adv-x="898" 
d="M877 720q3 1 8 1q34 0 67.5 -35.5t19.5 -66.5q-110 -67 -307 -357q37 -111 82 -185.5t118 -109.5q23 -26 -0.5 -76t-58.5 -50h-5q-146 22 -250 294q-51 -75 -113.5 -109t-150.5 -34q-86 2 -129.5 47.5t-41.5 106.5q2 37 27.5 70.5t66.5 39.5h7q28 0 55.5 -21t26.5 -44
q-26 -24 -28 -63q-1 -20 8.5 -33.5t28.5 -13.5q30 0 84 57t104 147q-35 148 -18 291q-23 -31 -58 -48.5t-63.5 -22t-53 -16.5t-30.5 -34q-13 -46 24 -64q11 -4 2.5 -33.5t-26.5 -36.5q-18 -2 -27 -2q-62 0 -102.5 38.5t-28.5 98.5q8 40 39 64.5t75 36t90.5 22t96 32
t82.5 56.5q22 22 79 22q62 0 73 -24q-36 -134 -26 -238q153 271 253 293z" />
    <glyph glyph-name="Y" unicode="Y" horiz-adv-x="922" 
d="M937 204q1 3 7 3q10 0 24.5 -10.5t10.5 -16.5q-54 -99 -112.5 -152.5t-136.5 -83.5q-13 -59 -29 -98.5t-43.5 -74.5t-71.5 -51.5t-105 -16.5q-63 0 -100.5 32.5t-30.5 85.5q6 40 27 68t59 45t67.5 25t80.5 18q30 90 36 110q-62 -73 -149 -73q-96 0 -131 67.5t0 200.5
q12 46 43.5 139t44.5 135q-17 -22 -48 -35t-57 -17t-49.5 -16.5t-29.5 -35.5q-11 -45 24 -62q13 -5 3 -35.5t-30 -33.5q-16 -2 -23 -2q-64 0 -104 39.5t-27 97.5q9 42 41.5 67t77.5 36t92 21t95.5 32.5t78.5 58.5q30 15 79 15q32 0 56 -6.5t25 -15.5q-7 -23 -50 -148.5
t-86 -269.5q-43 -141 23 -142q48 -1 89 46t66 128q103 339 116 379q16 16 60 16q36 0 68 -10.5t34 -25.5q-28 -72 -93.5 -275.5t-107.5 -345.5q113 49 186 188zM572 -92q-34 -9 -61.5 -29.5t-34.5 -39.5q-7 -20 -2 -31.5t19 -12.5q14 0 30 11.5t26 33.5q8 17 23 68z" />
    <glyph glyph-name="Z" unicode="Z" horiz-adv-x="740" 
d="M650 684q22 5 40 5q39 0 70 -17.5t36 -44.5q-44 -60 -146 -246t-178 -278q55 -54 80.5 -77t63.5 -46t68 -23q19 0 36 7q28 -10 32.5 -57.5t-18.5 -69.5q-30 -10 -63 -10q-82 0 -155 57t-148 151q-39 -25 -72 -34t-81 -9q-49 0 -86 10t-62.5 38.5t-23.5 72.5
q2 54 49.5 86.5t115.5 32.5q88 0 169 -55q39 55 111 201t119 215q-31 -19 -72 -19q-28 0 -82.5 12t-78.5 12q-26 0 -44 -9q-21 -10 -28.5 -28.5t1.5 -33t29 -14.5q18 0 37 11q3 2 9 2q17 0 30.5 -26t5.5 -36q-40 -51 -118 -51q-43 0 -80 18.5t-54 51.5q-13 26 -14 58t10 62
t39 55t69 35q38 9 72 9q44 0 117 -18t109 -18q47 0 86 18zM236 143q-26 0 -40 -15.5t-4 -31.5t42 -16q40 0 73 31q-27 32 -71 32z" />
    <glyph glyph-name="bracketleft" unicode="[" horiz-adv-x="520" 
d="M261 -166h-154q-42 0 -55.5 19t-0.5 66l201 713q11 38 29 48t50 10h161q14 0 14 -27t-11 -54t-24 -27h-83l-182 -640h75q13 0 13.5 -27t-10 -54t-23.5 -27z" />
    <glyph glyph-name="backslash" unicode="\" horiz-adv-x="623" 
d="M441 6q-45 62 -180.5 305t-181.5 303q-14 18 19 38t67 20q21 0 30 -10q54 -71 196.5 -324t172.5 -295q14 -20 -15.5 -35t-66.5 -15q-31 0 -41 13z" />
    <glyph glyph-name="bracketright" unicode="]" horiz-adv-x="522" 
d="M252 690h154q42 0 55.5 -19t1.5 -66l-188 -713q-10 -38 -28 -48t-50 -10h-161q-14 0 -14.5 27t10 54t23.5 27h83l171 640h-75q-13 0 -14 27t9 54t23 27z" />
    <glyph glyph-name="asciicircum" unicode="^" horiz-adv-x="514" 
d="M335 649l105 -186q0 -21 -21 -40t-45 -19q-16 0 -29 9l-74 128l-111 -127q-11 -10 -30 -10q-28 0 -51 20t-11 39l159 186q19 22 57 22t51 -22z" />
    <glyph glyph-name="underscore" unicode="_" horiz-adv-x="496" 
d="M381 -91h-255q-18 0 -24 22.5t4 45.5t31 23l248 -1q21 0 28 -22.5t-2.5 -45t-29.5 -22.5z" />
    <glyph glyph-name="grave" unicode="`" horiz-adv-x="281" 
d="M164 851l64 -92q12 -17 -4 -29t-41 -12q-24 0 -34 11l-91 104q-15 18 19 30q18 6 38 6q37 0 49 -18z" />
    <glyph glyph-name="a" unicode="a" horiz-adv-x="549" 
d="M271 425q63 10 137.5 -5t116.5 -58q7 -16 -18 -47t-39 -27q-63 50 -150 45q-45 -2 -84.5 -37t-58.5 -87q-34 -92 -8 -116q16 -15 37.5 0.5t42 51.5t36.5 70t28 67q25 16 76.5 4.5t61.5 -30.5q-20 -64 -27 -94q-20 -80 16 -78q24 1 63 36.5t62 82.5q5 6 15.5 2.5t20.5 -12
t7 -13.5q-47 -87 -110.5 -137.5t-134.5 -50.5q-39 0 -56 32t-11 87q-29 -53 -67.5 -85.5t-99.5 -33.5q-26 0 -49 6.5t-44 23t-30 50t-3 80.5q15 110 97.5 185t172.5 88z" />
    <glyph glyph-name="b" unicode="b" horiz-adv-x="540" 
d="M188 -8q-125 0 -162 82q-56 129 112 604q19 10 57 10q36 0 67.5 -9.5t36.5 -24.5q-22 -64 -80 -262q50 29 109 29q22 0 39 -4q64 -15 89 -70.5t12 -122.5t-55 -122q92 0 141 102q1 4 7 4q11 0 25.5 -10.5t10.5 -17.5q-69 -134 -197 -134q-22 0 -41 3q-74 -57 -171 -57z
M185 82q6 -2 17 -2q23 0 44 23q-11 22 2.5 45.5t38.5 24.5q13 32 20.5 65t2 64t-31.5 35q-42 0 -86 -37q-79 -199 -7 -218z" />
    <glyph glyph-name="c" unicode="c" horiz-adv-x="436" 
d="M283 426q42 -1 71 -12t42.5 -28t18 -38t0 -42t-15.5 -40q-21 -29 -84 -29q-52 0 -59 23q6 11 9 18t8.5 21.5t4 23t-10.5 9.5q-26 0 -47 -27t-31 -57t-12 -56q-4 -52 23.5 -80t73.5 -28h7q113 7 169 120q1 4 7 4q10 0 24.5 -11t11.5 -16q-52 -99 -122.5 -143.5
t-178.5 -44.5q-79 3 -131 57.5t-50 132.5q2 101 78.5 172.5t193.5 70.5z" />
    <glyph glyph-name="d" unicode="d" horiz-adv-x="557" 
d="M419 676q11 12 54 12q37 0 69 -9t35 -24q-8 -29 -24 -82t-31.5 -103t-33 -108.5t-29 -106.5t-18.5 -88t-3.5 -62.5t18.5 -21.5q23 2 57.5 37.5t57.5 83.5q1 4 7 4q11 0 25.5 -11t10.5 -17q-46 -88 -107.5 -138t-130.5 -50q-42 0 -65.5 31.5t-18.5 87.5
q-29 -53 -67.5 -85.5t-99.5 -33.5q-83 -1 -111 60t-2.5 142.5t84.5 142.5q88 92 228 92q16 0 24 -1q14 56 40.5 144.5t30.5 103.5zM320 333q-73 -2 -120 -74q-15 -24 -29 -59.5t-17.5 -69.5t17.5 -43q2 -1 8 -1q17 0 40 23t47 67t54 157z" />
    <glyph glyph-name="e" unicode="e" horiz-adv-x="478" 
d="M283 425q47 -1 81.5 -17.5t48.5 -42t16.5 -56.5t-15.5 -61q-26 -53 -90.5 -77.5t-148.5 -11.5q7 -75 118 -77q33 -1 65.5 8.5t70.5 38.5t62 75q5 6 15.5 2.5t20.5 -12.5t8 -13q-57 -103 -129 -147.5t-167 -43.5q-122 1 -178 59t-48 145q10 104 85.5 168.5t184.5 62.5z
M269 330q-27 4 -52.5 -27t-36.5 -80q40 -1 67 20t35 49q10 35 -13 38z" />
    <glyph glyph-name="f" unicode="f" horiz-adv-x="407" 
d="M175 611q64 82 151 82q71 0 112 -57.5t17 -151.5q-19 -77 -99.5 -150t-179.5 -106q-9 -32 -24 -88q48 -30 119 -30q106 0 150 94q1 4 7 4q10 0 24 -11t12 -16q-61 -128 -194 -128q-16 0 -23 1q47 -70 47.5 -149t-45.5 -134q-58 -67 -168 -67q-83 2 -111.5 49t-21.5 141
t73 339q78 281 154 378zM197 319q47 26 87.5 88.5t53.5 116.5q7 30 2.5 47.5t-16.5 17.5q-17 0 -38.5 -35.5t-40.5 -87.5t-30.5 -87.5t-17.5 -59.5zM126 47q-36 -122 -40 -199q-2 -48 24 -48q25 0 44 48q17 40 10 102t-38 97z" />
    <glyph glyph-name="g" unicode="g" horiz-adv-x="545" 
d="M328 428q129 0 204 -66q6 -13 -16.5 -43.5t-38.5 -30.5h-2q-54 45 -157 45q-44 -2 -81.5 -36.5t-59.5 -87.5q-19 -46 -20 -79.5t13 -39.5q8 -4 13 -4q19 0 43 23t46 67q22 43 46 106q9 9 35 9q30 0 64.5 -11.5t38.5 -24.5q-18 -57 -37.5 -135.5t-26.5 -103.5q50 21 86 63
t82 126q2 3 6 3q11 0 25.5 -11t10.5 -18q-59 -106 -108.5 -157.5t-121.5 -79.5q-37 -113 -61 -152q-57 -86 -173 -87q-63 0 -100 32t-30 86q4 27 14.5 48.5t30 37t37.5 26.5t48 19.5t50.5 13t55.5 11.5q28 78 40 114q-59 -98 -157 -99q-74 -1 -106 50.5t-18.5 123.5
t62.5 133q47 62 116 95.5t147 33.5zM224 -98q-35 -9 -58 -26t-30 -35q-7 -20 -0.5 -31.5t20.5 -11.5q33 0 52 47q6 17 16 57z" />
    <glyph glyph-name="h" unicode="h" horiz-adv-x="528" 
d="M150 677q15 11 56 11q39 0 71.5 -10t31.5 -25q-47 -140 -86 -291q87 66 154 66q63 0 83.5 -37t-0.5 -96q-3 -11 -10.5 -31.5t-14 -38.5t-13.5 -39.5t-10.5 -38.5t-4.5 -32t4 -23t16 -8h2q24 1 58 37.5t55 82.5q1 4 7 4q11 0 25.5 -11t10.5 -17q-96 -179 -228 -188
q-3 0 -8.5 -0.5t-7.5 -0.5q-110 0 -94 113q8 58 46 172q14 43 -16 43h-5q-32 -3 -74 -42q-50 -188 -70 -269q-2 -8 -30.5 -14t-61.5 -6q-35 0 -56.5 7.5t-17.5 22.5q84 318 188 659z" />
    <glyph glyph-name="i" unicode="i" horiz-adv-x="284" 
d="M92 -7q-129 0 -98 134q21 89 81 294q13 12 55 12q33 0 63 -8.5t38 -23.5q-12 -41 -30.5 -101.5t-29 -97t-14.5 -60.5q-9 -58 12 -58q28 -1 66.5 33.5t62.5 86.5q1 4 7 4q10 0 24.5 -11.5t11.5 -16.5q-100 -187 -249 -187zM180 482q-34 0 -54.5 25t-13.5 58
q8 38 35.5 60.5t65.5 22.5q38 -1 57.5 -24.5t13.5 -58.5q-6 -36 -33.5 -59.5t-70.5 -23.5z" />
    <glyph glyph-name="j" unicode="j" horiz-adv-x="280" 
d="M-140 -297q-66 0 -100 34.5t-28 82.5t46 86q29 28 70.5 42t108.5 27q17 68 113 443q11 14 56 14q35 0 66 -9t35 -23q-25 -77 -41 -132.5t-38 -138.5t-31 -114q53 24 94.5 68t83.5 122q1 3 6 3q9 0 24 -11.5t12 -16.5q-55 -102 -110 -155.5t-130 -82.5
q-18 -64 -33.5 -101.5t-42 -72t-65.5 -50t-96 -15.5zM-122 -202q51 0 71 104q-33 -10 -57 -27t-31 -34q-7 -20 -1.5 -31t18.5 -12zM178 482q-34 0 -54.5 25t-13.5 58q8 38 35.5 60.5t65.5 22.5q38 -1 57.5 -24.5t13.5 -58.5q-6 -36 -33.5 -59.5t-70.5 -23.5z" />
    <glyph glyph-name="k" unicode="k" horiz-adv-x="516" 
d="M531 205q1 3 6 3q10 0 24.5 -11t11.5 -17q-50 -95 -112 -141.5t-127 -47.5q-151 -2 -127 212q77 23 103 69q18 33 -8 46l-12 3q-1 0 -3.5 0.5t-3.5 0.5q-28 0 -57.5 -26.5t-38.5 -60.5q-50 -180 -59 -227q-5 -8 -32.5 -14t-58.5 -6q-74 0 -75 27q108 407 189 661
q11 12 54 12q37 0 69 -9.5t34 -25.5q-54 -176 -86 -294q76 68 160 68q38 0 61 -17q27 -19 31.5 -54t-11 -70t-50.5 -64t-81 -38q0 -21 1.5 -34.5t6.5 -31.5t17.5 -27t31.5 -9q41 0 73.5 28t68.5 95z" />
    <glyph glyph-name="l" unicode="l" horiz-adv-x="390" 
d="M308 691q68 0 109.5 -52t24.5 -137q-20 -98 -92 -168.5t-185 -100.5q-35 -149 65 -152q109 0 175 124q1 3 6 3q9 0 23.5 -11t12.5 -16q-48 -91 -104.5 -140t-145.5 -49q-20 0 -30 1q-74 7 -111.5 52.5t-38.5 119t18 170.5q9 43 23 86.5t38 93.5t53.5 88t71 63t87.5 25z
M304 587q-15 0 -34.5 -34.5t-38 -85t-30.5 -87t-18 -59.5q34 15 66 58t50 88q18 47 20.5 82.5t-15.5 37.5z" />
    <glyph glyph-name="m" unicode="m" horiz-adv-x="779" 
d="M594 -8q-125 0 -96 129q4 16 18.5 75.5t19.5 80.5q10 42 -21 42q-26 0 -68 -37q-20 -68 -67 -273q-11 -19 -81 -19t-80 25q18 86 65 270q9 32 -16 32h-4q-33 -3 -72 -41q-32 -108 -68 -265q-11 -21 -82 -21q-32 0 -55 7.5t-24 21.5q62 241 113 401q14 13 57 13
q31 0 58.5 -8.5t34.5 -22.5q-5 -13 -16 -49q92 75 160 75q38 0 58.5 -18.5t19.5 -54.5q75 73 162 73q64 0 86 -35.5t6 -97.5q-3 -13 -10 -34.5t-12.5 -39.5t-11.5 -39.5t-8.5 -38t-2.5 -30.5t5 -21.5t16 -7.5q21 0 55 32.5t60 87.5q1 4 7 4q11 0 25.5 -11t10.5 -17
q-101 -188 -242 -188z" />
    <glyph glyph-name="n" unicode="n" horiz-adv-x="529" 
d="M371 428q57 -1 76.5 -36t4.5 -97q-4 -18 -20.5 -70t-21.5 -77q-6 -28 -2 -46t17 -18q27 0 60.5 35t57.5 85q1 4 7 4q11 0 25 -11t11 -17q-99 -188 -239 -188q-131 0 -98 133q25 96 37 151q9 41 -15 41q-1 0 -3 -0.5t-4 -0.5q-28 -4 -71 -39q-11 -34 -69 -268
q-13 -19 -81 -19q-72 0 -80 25q33 145 114 406q19 12 60 12q69 0 90 -30q-3 -8 -8 -25t-8 -25q98 76 160 75z" />
    <glyph glyph-name="o" unicode="o" horiz-adv-x="535" 
d="M286 428q89 -1 134.5 -51t41 -124t-50.5 -149q2 0 5.5 -0.5t5.5 -0.5q35 0 69.5 26.5t57.5 74.5q1 4 8 4q11 0 25 -10.5t10 -17.5q-68 -132 -191 -132q-1 0 -40 3q-74 -61 -180 -61q-97 0 -145 54t-21 169q25 105 99.5 160.5t171.5 54.5zM264 335q-51 -1 -83 -119
q-8 -29 -11.5 -47t-4.5 -41t8.5 -34.5t30.5 -11.5q20 0 36 16q-12 23 1.5 47.5t38.5 25.5q23 62 21 113.5t-37 50.5z" />
    <glyph glyph-name="p" unicode="p" horiz-adv-x="540" 
d="M379 425q62 -5 84 -64t6 -131.5t-56 -126.5q95 0 141 101q1 4 7 4q11 0 25 -10.5t11 -17.5q-65 -131 -190 -131q-13 0 -33 2q-61 -58 -147 -58q-59 0 -104 29q-13 -47 -38 -148.5t-37 -149.5q-12 -18 -78 -18q-33 0 -56.5 6.5t-24.5 18.5q92 368 187 688q5 13 58 13
q78 0 93 -31q-4 -12 -18 -47q86 72 156 72q2 0 6.5 -0.5t7.5 -0.5zM283 317q-1 0 -3.5 0.5t-3.5 0.5q-35 0 -83 -40q-10 -32 -25.5 -87.5t-22.5 -80.5q26 -26 65 -26q18 0 32 9q-14 23 -1.5 49.5t33.5 26.5q30 61 32 102.5t-23 45.5z" />
    <glyph glyph-name="q" unicode="q" horiz-adv-x="540" 
d="M302 429q63 0 126 -20t98 -60q3 -19 -17.5 -45t-37.5 -27q-63 58 -155 58q-48 -2 -82 -35.5t-60 -100.5q-14 -36 -17.5 -62.5t2 -38.5t17.5 -12q19 0 40 23t39 58t29.5 62t19.5 51q7 11 36 11q31 0 65 -12t37 -25q-50 -162 -75 -248q13 12 45 39t51.5 44.5t45.5 49
t45 65.5q2 4 7 4q10 0 24.5 -10.5t11.5 -17.5q-14 -29 -36 -59.5t-35.5 -45.5t-44 -46t-35.5 -37q-47 -50 -76 -93t-48 -100l-18 -74q-14 -20 -76 -20q-33 0 -57.5 7t-25.5 18q7 26 20 81t19 75.5t18 59t27 70t37 69.5q-62 -94 -150 -96q-56 -1 -90 42t-23 116
q19 116 102 199t197 83z" />
    <glyph glyph-name="r" unicode="r" horiz-adv-x="422" 
d="M43 155q-3 -6 -11 -6q-13 0 -25 10t-7 19q64 117 90 207q-28 45 -21.5 78t30 52t51.5 19t42.5 -22.5t2.5 -66.5q13 -12 43 -35t46 -38t32 -36.5t14.5 -43.5t-19.5 -46q-56 -74 -67 -119q-11 -43 30 -43q49 0 93 36t70 85q1 3 6 3q10 0 24.5 -11t11.5 -16
q-95 -189 -270 -189q-64 0 -97 28.5t-32 77.5q0 28 15.5 66t26.5 57t38 63q3 5 4.5 10t2 9t-0.5 8.5t-2 7.5t-4 8t-4.5 7t-6 7t-5.5 6l-6 6l-6 5q-27 -96 -89 -203z" />
    <glyph glyph-name="s" unicode="s" horiz-adv-x="490" 
d="M189 -13q-43 0 -84 20.5t-58 64.5q6 19 28.5 34t43.5 15q6 0 14 -2q5 -14 18 -26t30 -13q17 0 27 9q-19 20 -13 44.5t30 29.5q-7 101 -34 207q-31 -30 -74 -95t-74 -120q-3 -6 -11 -6q-13 0 -25 10t-7 19q82 155 172 245q53 53 120 53q45 0 61.5 -26t-12.5 -72
q4 -14 14 -53t13 -51.5t9 -41.5t7 -45t0.5 -39t-4.5 -45q76 6 124 102q2 3 6 3q10 0 24.5 -11t12.5 -16q-67 -131 -194 -133q-49 -61 -164 -61z" />
    <glyph glyph-name="t" unicode="t" horiz-adv-x="338" 
d="M167 -8q-48 0 -80.5 13t-48.5 39.5t-23 57.5t-2.5 77t13 87t22.5 98h-25q-15 8 -8 46.5t23 41.5h34q62 197 71 223q12 14 57 14q35 0 66 -10t35 -27q-28 -88 -60 -200h62q17 -16 11.5 -48.5t-20.5 -39.5h-77q-34 -117 -39 -137q-17 -62 -15 -103t31 -43q96 0 158 123
q1 4 7 4q11 0 25 -11t11 -17q-45 -93 -99.5 -140.5t-128.5 -47.5z" />
    <glyph glyph-name="u" unicode="u" horiz-adv-x="527" 
d="M334 419q11 14 57 14q75 0 94 -31q-6 -25 -20 -73t-25 -87t-20 -78t-8.5 -61.5t12.5 -21.5q21 1 57 36.5t60 85.5q3 4 8 4q11 0 25 -10.5t10 -16.5q-18 -33 -39.5 -63t-51 -60.5t-65.5 -49t-73 -17.5q-39 1 -58.5 36.5t-7.5 87.5q-77 -124 -193 -124q-135 0 -100 152
q12 53 43.5 157t35.5 119q10 15 59 15q33 0 61 -8.5t31 -22.5q-1 -4 -21.5 -78t-30.5 -113q-22 -88 -22 -103q3 -19 17 -20q25 1 57.5 44t48.5 93q27 83 59 194z" />
    <glyph glyph-name="v" unicode="v" horiz-adv-x="517" 
d="M75 416q17 16 67 16q73 0 85 -32q-8 -31 -22.5 -81.5t-25 -86t-19 -71.5t-7 -55.5t13.5 -20.5q19 0 38 16q-11 23 3 46.5t39 23.5q5 0 8 -1q28 52 48.5 124t22.5 125q15 15 67 15q72 0 85 -31q-4 -84 -35.5 -163.5t-80.5 -134.5q18 -3 35 -3q44 0 75.5 24.5t58.5 76.5
q3 4 9 4q11 0 24.5 -10t9.5 -17q-40 -76 -87 -105t-103 -29q-27 0 -77 8q-87 -63 -190 -63q-73 0 -99.5 35.5t-14.5 116.5q5 32 14 70.5t16.5 65t21.5 72t20 65.5z" />
    <glyph glyph-name="w" unicode="w" horiz-adv-x="769" 
d="M385 -8q-47 0 -76.5 28.5t-23.5 88.5q-40 -65 -91.5 -91t-99.5 -26q-52 0 -77.5 22t-25 57.5t8.5 81.5q18 83 74 261q22 18 67 18q33 0 59 -10t27 -26q-7 -24 -22 -72.5t-25.5 -87t-17.5 -72.5q-8 -33 -8 -54.5t15 -22.5q22 -1 50 31.5t49 86.5q16 43 70 210q14 17 64 17
q32 0 57.5 -9t29.5 -25q-47 -124 -66 -197q-7 -26 -11 -46.5t-5 -36.5t2.5 -24.5t11.5 -8.5q17 0 36 19q-10 23 3.5 45t36.5 22q3 0 11 -2q28 54 48.5 122.5t21.5 125.5q11 17 66 17q31 0 56 -8t29 -23q-1 -78 -33.5 -159.5t-80.5 -138.5q18 -3 35 -3q82 0 134 102q1 4 7 4
q11 0 24.5 -11t10.5 -17q-40 -76 -88 -105t-106 -29q-30 0 -72 7q-68 -61 -175 -61z" />
    <glyph glyph-name="x" unicode="x" horiz-adv-x="550" 
d="M565 204q1 3 6 3q10 0 24 -11t12 -16q-41 -79 -102 -134t-136 -55q-32 0 -57 15.5t-37 33t-30 51.5l-68 -80q-18 -21 -82 -21q-62 0 -68 17q-2 5 3 10l158 187q-1 4 -25 61q-15 34 -28 34q-7 0 -14 -11q-5 -8 -15.5 -26l-28 -48t-35.5 -60q-3 -4 -10 -4q-12 0 -24.5 9.5
t-7.5 18.5q16 27 44.5 81t44.5 82t42 54.5t53 30.5q14 2 20 2q13 0 24 -2.5t20.5 -10.5t15.5 -13t13.5 -18.5t10.5 -19.5t11 -23.5t10 -22.5l62 75q18 22 75 22q55 0 72 -16q6 -5 1 -11l-156 -188q17 -43 23 -54q15 -30 28.5 -47t27.5 -16q59 2 123 121z" />
    <glyph glyph-name="y" unicode="y" horiz-adv-x="531" 
d="M124 -297q-63 0 -100 32t-30 86q4 27 14.5 48.5t29.5 37t37.5 26.5t48 19.5t50 13t55.5 11.5q20 47 40 112q-69 -97 -171 -97q-142 0 -99 161q37 140 77 266q12 14 58 14q31 0 59 -8t33 -22q-24 -81 -63 -239q-19 -77 5 -77q30 6 60 47.5t47 90.5q33 97 58 193
q14 14 56 14q33 0 62 -8.5t34 -22.5q-46 -164 -107 -385q50 21 84.5 61.5t83.5 127.5q2 3 7 3q10 0 24.5 -10.5t10.5 -17.5q-58 -106 -107.5 -158t-122.5 -80q-15 -48 -26 -76.5t-26 -59.5t-30.5 -47.5t-37.5 -30.5t-49.5 -19.5t-64.5 -5.5zM140 -202h5q32 4 49 47
q6 17 16 57q-47 -13 -73 -39q-19 -19 -20 -41.5t23 -23.5z" />
    <glyph glyph-name="z" unicode="z" horiz-adv-x="493" 
d="M188 429q27 -36 80 -36q21 0 54 7q25 8 53 8q47 0 70.5 -26t7.5 -53q-72 -123 -184 -236q40 -16 90 -16q44 4 79 34t70 94q2 3 6 3q9 0 23.5 -11t12.5 -16q-43 -86 -109 -143.5t-151 -57.5q-27 0 -65 10.5t-61 10.5h-3q-41 -28 -76 -28q-37 0 -54 27t-2.5 58.5t57.5 43.5
l12 12q43 43 64.5 65.5t50 57.5t46.5 66q-6 -2 -20 -2q-30 0 -61 15t-46 37q-33 -103 -89 -198q-3 -6 -12 -6q-12 0 -24 10t-7 19q2 5 10 19.5t11 20.5t10.5 19.5t11 21.5t10 22t10.5 25t9.5 25.5t10.5 30t10 32.5q-31 59 -9.5 97t61.5 38q28 0 42 -25.5t1 -74.5z" />
    <glyph glyph-name="braceleft" unicode="{" horiz-adv-x="505" 
d="M348 -145q-42 -20 -102 -20q-103 0 -118 66q-12 58 0 128q11 65 39 145q6 20 -9 32.5t-43 15.5q-24 3 -17.5 42.5t26.5 41.5q66 5 80 36q12 26 34.5 137t36.5 145q15 36 50.5 55.5t81.5 19.5q43 0 86 -20q14 -10 12.5 -30t-14 -39.5t-23.5 -18.5q-6 1 -17 1
q-21 0 -33.5 -11.5t-22.5 -38.5q-7 -19 -24 -109.5t-28 -117.5q-10 -22 -31.5 -39t-40.5 -17q63 -29 39 -106q-28 -89 -34 -122q-17 -83 13 -93q7 -3 16 -3t35 7q20 -1 22 -38t-14 -49z" />
    <glyph glyph-name="bar" unicode="|" horiz-adv-x="508" 
d="M433 665l-229 -935q-4 -13 -27 -20.5t-51 -7.5q-29 0 -47.5 8.5t-14.5 23.5l233 941q7 25 66 25q31 0 52.5 -9.5t17.5 -25.5z" />
    <glyph glyph-name="braceright" unicode="}" horiz-adv-x="521" 
d="M43 -154q-14 10 -12.5 30t14 39.5t23.5 18.5q6 -1 17 -1q21 0 33.5 11.5t22.5 38.5q7 19 24 109.5t28 117.5q10 22 31.5 39t40.5 17q-63 29 -39 106q28 89 34 122q17 83 -13 93q-8 3 -16 3q-9 0 -35 -7q-20 1 -22 38t14 49q42 20 102 20q103 0 118 -66q12 -58 0 -128
q-11 -65 -39 -145q-6 -20 9 -32.5t43 -15.5q24 -3 17.5 -42.5t-26.5 -41.5q-66 -5 -80 -36q-12 -26 -34.5 -137t-36.5 -145q-15 -36 -50.5 -55.5t-81.5 -19.5q-43 0 -86 20z" />
    <glyph glyph-name="asciitilde" unicode="~" horiz-adv-x="536" 
d="M344 228q-28 0 -68.5 21.5t-60.5 21.5q-36 0 -60 -33q-3 -3 -7 -3q-15 0 -34 18.5t-13 31.5q11 28 42 55t71 27q29 0 69.5 -21.5t59.5 -21.5q36 0 60 33q3 3 8 3q14 0 32 -17.5t12 -30.5q-12 -29 -42 -56.5t-69 -27.5z" />
    <glyph glyph-name="exclamdown" unicode="&#xa1;" horiz-adv-x="382" 
d="M260 407q30 0 49.5 -21t17.5 -50t-24.5 -49.5t-52.5 -20.5q-32 0 -50 20.5t-15 49.5q3 30 24.5 50.5t50.5 20.5zM279 173q-89 -332 -125 -447q-7 -23 -60 -23q-23 0 -46 5t-36.5 13.5t-10.5 18.5q11 31 67.5 193t86.5 242q10 25 58 25q27 0 48 -8t18 -19z" />
    <glyph glyph-name="cent" unicode="&#xa2;" horiz-adv-x="556" 
d="M515 187q-98 -71 -199 -76q-6 -24 -15 -62.5t-11 -45.5q-5 -20 -43 -20q-20 0 -33.5 8t-9.5 23q8 31 25 102q-104 18 -143.5 97t-7.5 165q25 67 97 115.5t155 51.5q4 15 11.5 46t11.5 47q4 14 18.5 22t31.5 8q18 0 29 -9t7 -25l-22 -91q44 -4 71.5 -21t36.5 -41t6.5 -49
t-14.5 -49q-18 -34 -69 -34q-19 0 -29.5 7.5t-4.5 20.5q4 7 7 16t4.5 21.5t-6 22t-24.5 11.5q-4 -16 -25.5 -108t-30.5 -138q6 -1 21 -1q71 0 126 38q2 2 8 2q15 0 24.5 -21.5t-3.5 -32.5zM207 319q-9 -88 46 -106l55 237q-40 -3 -68 -40.5t-33 -90.5z" />
    <glyph glyph-name="sterling" unicode="&#xa3;" horiz-adv-x="634" 
d="M158 -2q-20 -15 -40 -15q-33 0 -48 28.5t10 60.5q35 42 51 89t26 123h-45q-18 0 -23 20t3 40t23 20q31 0 47 -1q7 156 59 233t161 77q97 0 147.5 -58t18.5 -163q-4 -12 -22 -20t-39 -8t-33.5 8.5t-8.5 25.5q13 53 0 86t-52 33h-10q-42 -4 -62 -55.5t-23 -159.5q54 0 82 1
q15 0 18.5 -19.5t-6.5 -39.5t-27 -21t-72 -1q-11 -92 -54 -177q23 9 50 9q15 0 23 -2q13 -2 34.5 -7.5t38 -9t31.5 -3.5q37 0 65 24q7 6 14 6q17 0 29.5 -24t6.5 -37q-17 -36 -51 -56t-75 -20q-36 0 -95.5 18.5t-84.5 18.5q-36 0 -67 -24z" />
    <glyph glyph-name="currency" unicode="&#xa4;" horiz-adv-x="675" 
d="M261 542q48 17 98 17q54 0 95 -20q14 16 22 26q23 27 56 27t55.5 -24.5t9.5 -47.5q-10 -10 -60 -66q26 -62 12.5 -133.5t-60.5 -127.5q31 -42 52 -72q16 -24 -9 -51.5t-58 -27.5q-26 0 -41 21q-23 33 -42 56q-57 -25 -119 -25q-38 0 -65 8q-2 -2 -37 -43q-19 -22 -43 -22
q-35 0 -54.5 31t3.5 62l32 40q-45 69 -30 156.5t78 150.5l-28 43q-14 20 9.5 47t55.5 27q16 0 30 -8.5t21 -17.5t17 -26zM354 456q-61 0 -96.5 -37.5t-46.5 -100.5q-9 -58 10 -89t57 -32q55 -1 90.5 37t47.5 101q9 57 -8.5 88.5t-53.5 32.5z" />
    <glyph glyph-name="yen" unicode="&#xa5;" horiz-adv-x="567" 
d="M475 659q10 15 32 15q31 0 58 -23t15 -43q-103 -167 -206 -288h39q13 0 15 -20t-8 -39.5t-27 -19.5q-11 0 -31 0.5t-31 0.5q-2 -6 -5.5 -20.5t-5.5 -22.5h66q13 0 15 -19.5t-8 -39.5t-27 -20q-10 0 -32 0.5t-32 0.5l-24 -101q-8 -33 -65 -33q-28 0 -48 9t-17 23
q10 40 24 103q-10 0 -29 0.5t-28 0.5q-16 0 -20 19.5t5 38.5t25 19h64l9 43q-10 0 -28 0.5t-28 0.5q-16 0 -20 19.5t5 38.5t25 19h42q-49 169 -76 314q-1 16 23.5 27.5t53.5 11.5q48 0 52 -29q21 -141 51 -256q23 30 53.5 77t68.5 107.5t55 85.5z" />
    <glyph glyph-name="brokenbar" unicode="&#xa6;" horiz-adv-x="514" 
d="M439 665l-94 -375q-9 -32 -72 -32q-30 0 -51 9t-17 23l98 385q7 25 66 25q31 0 52.5 -9.5t17.5 -25.5zM302 122l-98 -391q-4 -13 -27 -21t-51 -8q-29 0 -47 8.5t-14 24.5l96 386q8 31 71 31q29 0 51 -8.5t19 -21.5z" />
    <glyph glyph-name="section" unicode="&#xa7;" horiz-adv-x="542" 
d="M294 695q140 0 174 -130q-1 -15 -18.5 -25.5t-37.5 -10.5q-24 0 -34 15q-6 26 -25.5 41t-41.5 15q-16 0 -26.5 -9.5t-11.5 -28.5q-1 -21 18.5 -42.5t48 -42.5t56.5 -44.5t47.5 -57t18.5 -71.5q-1 -40 -23.5 -77t-64.5 -59q18 -61 -26.5 -119t-118.5 -58q-159 0 -165 147
q6 28 48 28q37 0 46 -24q1 -27 15 -41.5t33 -13.5q20 0 35.5 17.5t15.5 47.5q0 23 -17 44.5t-41 41t-47.5 41t-39.5 52.5t-14 67q2 32 22 60.5t50 38.5q-21 31 -18 77q4 57 44 89t98 32zM236 438q-20 -11 -20 -40q0 -19 19 -41.5t49.5 -51.5t44.5 -47q12 20 13 49
q0 17 -7 33.5t-13.5 27t-26 26.5t-27 21.5t-32.5 22.5z" />
    <glyph glyph-name="dieresis" unicode="&#xa8;" horiz-adv-x="406" 
d="M108 730q-35 0 -52 21t-15 48q5 27 26.5 47.5t55.5 21.5t51.5 -20.5t13.5 -49.5q-2 -26 -24 -47t-56 -21zM287 730q-37 0 -53 21t-12 48q3 30 26.5 49.5t54.5 19.5q35 0 51 -20.5t15 -48.5q-2 -27 -24.5 -48t-57.5 -21z" />
    <glyph glyph-name="copyright" unicode="&#xa9;" horiz-adv-x="937" 
d="M414 -176q-171 -2 -268 97t-80 260q12 111 76 198t161 133.5t209 46.5q172 0 269 -101.5t80 -258.5q-8 -73 -39.5 -138.5t-85 -119t-137 -85t-185.5 -32.5zM410 -82q135 -1 216.5 78t95.5 211q13 122 -42.5 189.5t-163.5 68.5q-134 1 -214 -81.5t-95 -210.5
q-14 -117 45.5 -185.5t157.5 -69.5zM452 33q-66 2 -109 41t-38 111q5 83 63.5 132t142.5 49q47 -1 71 -23.5t22.5 -48.5t-7.5 -47q-12 -15 -45 -15q-20 0 -33 7t-7 19q5 8 3.5 22t-14.5 13q-22 -1 -44 -31t-25 -76q-4 -41 18.5 -62t60.5 -21q36 0 69 19q7 2 16.5 -15
t5.5 -24q-58 -50 -150 -50z" />
    <glyph glyph-name="guillemotleft" unicode="&#xab;" horiz-adv-x="687" 
d="M238 123q-18 17 -65.5 61.5t-62.5 59.5q-22 22 -23.5 44t8.5 35t27 23q38 23 156 107q14 10 28 10q32 0 48 -32.5t-9 -51.5q-31 -23 -128 -89q17 -19 59 -59.5t53 -53.5q14 -16 -7.5 -42t-50.5 -26q-19 0 -33 14zM500 123q-18 17 -65.5 61.5t-62.5 59.5q-22 22 -23.5 44
t8.5 35t27 23q38 23 156 107q14 10 28 10q32 0 48 -32.5t-9 -51.5q-31 -23 -128 -89q17 -19 59 -59.5t53 -53.5q14 -16 -7.5 -42t-50.5 -26q-19 0 -33 14z" />
    <glyph glyph-name="logicalnot" unicode="&#xac;" horiz-adv-x="561" 
d="M480 293l-27 -133q-3 -16 -41 -16q-22 0 -38 6t-14 17l16 79h-250q-18 0 -24 24t4 48.5t31 24.5h304q21 0 32.5 -13t6.5 -37z" />
    <glyph glyph-name="registered" unicode="&#xae;" horiz-adv-x="951" 
d="M418 -176q-174 -2 -271.5 96.5t-80.5 260.5q19 169 148.5 273.5t302.5 104.5q178 0 276.5 -101.5t81.5 -258.5q-8 -74 -39.5 -139t-86 -118.5t-140 -85t-191.5 -32.5zM414 -82q142 -1 225 77.5t97 211.5q13 123 -44 190t-172 68q-137 1 -217.5 -81.5t-95.5 -210.5
q-14 -117 46.5 -185.5t160.5 -69.5zM487 21q-34 30 -17 130q4 27 -26 27q-6 -19 -19 -73t-17 -65q-5 -16 -34 -16q-26 0 -48.5 12t-16.5 26q13 32 33.5 114.5t42.5 124.5q47 84 138 84q57 -1 83.5 -31.5t18.5 -73.5q-6 -32 -27.5 -56t-46.5 -32q-11 -91 18 -131
q1 -17 -20 -30.5t-43 -13.5q-12 0 -19 4zM455 226q60 2 75 50q10 33 -16 34q-21 1 -35.5 -23t-23.5 -61z" />
    <glyph glyph-name="macron" unicode="&#xaf;" horiz-adv-x="346" 
d="M98 737h-41q-17 0 -20.5 21.5t6.5 42.5t26 21q46 -1 159 -1h68q17 0 19.5 -20.5t-7 -41.5t-23.5 -21q-30 0 -94 -0.5t-93 -0.5z" />
    <glyph glyph-name="degree" unicode="&#xb0;" horiz-adv-x="463" 
d="M243 677q72 0 113 -41.5t31 -102.5q-6 -55 -58 -96.5t-119 -41.5q-73 0 -113 41.5t-31 102.5q7 56 57.5 97t119.5 41zM237 588q-24 0 -40 -13.5t-22 -33.5q-8 -22 3 -39.5t38 -17.5q30 0 48.5 19.5t17.5 43.5q0 18 -11.5 29.5t-33.5 11.5z" />
    <glyph glyph-name="plusminus" unicode="&#xb1;" horiz-adv-x="562" 
d="M101 177h303q21 0 28 -24t-2.5 -48t-29.5 -24l-310 -1q-18 0 -24 24t4 48.5t31 24.5zM366 404h91q21 0 28 -24t-2.5 -48.5t-29.5 -24.5h-115l-18 -67q-6 -20 -53 -20q-22 0 -38 7t-12 19l17 61h-91q-18 0 -24 24.5t4 48.5t31 24h107l21 74q7 23 48 23q24 0 41.5 -8.5
t13.5 -21.5z" />
    <glyph glyph-name="two.sups" unicode="&#xb2;" horiz-adv-x="354" 
d="M265 402l-166 -2h-3q-18 0 -24 28t6 35q88 57 106 117q8 26 -13 26q-16 0 -22 -25q-4 -17 -34 -17q-18 0 -32 8t-12 21q6 37 40 58t74 21q47 0 75.5 -26t22.5 -72q-4 -33 -35 -64.5t-65 -43.5h83q13 0 17 -15.5t-2 -31.5t-16 -17z" />
    <glyph glyph-name="three.sups" unicode="&#xb3;" horiz-adv-x="361" 
d="M190 673q46 0 74.5 -19t26.5 -52q-2 -45 -40 -67q38 -22 34 -63q-4 -33 -33 -52.5t-79 -19.5q-46 0 -78.5 27t-23.5 66q4 16 39 16q32 0 33 -18q1 -11 9.5 -17.5t19.5 -6.5q22 0 26 18q2 11 -4 16.5t-21 6.5q-14 1 -17.5 15.5t3.5 28.5t21 14q33 0 33 17q1 11 -7 17
t-20 6q-24 -4 -34 -23q-4 -11 -25 -11q-18 0 -31.5 9t-10.5 23q9 34 38.5 51.5t66.5 17.5z" />
    <glyph glyph-name="acute" unicode="&#xb4;" horiz-adv-x="281" 
d="M59 759l64 92q12 18 49 18q43 0 58 -18q6 -9 -1 -18l-91 -104q-10 -11 -34 -11q-25 0 -41 12t-4 29z" />
    <glyph glyph-name="paragraph" unicode="&#xb6;" horiz-adv-x="708" 
d="M311 673h396q16 0 18.5 -22.5t-9 -45.5t-29.5 -23h-67l-93 -325q-40 -140 -95 -202t-171 -63q-78 -1 -123 26.5t-53 67.5t2 79.5t34 65.5q13 15 43 15q32 0 56.5 -16t13.5 -36q-23 -44 -15 -78t44 -34q29 0 50.5 41t43.5 117l99 342h-73l-60 -197q-13 -44 -39 -64.5
t-71 -20.5q-72 4 -99.5 67t-4.5 148q22 82 71.5 120t130.5 38z" />
    <glyph glyph-name="periodcentered" unicode="&#xb7;" horiz-adv-x="312" 
d="M137 322q-30 0 -49.5 21t-17.5 50t24.5 49.5t52.5 20.5q31 0 49 -20.5t16 -49.5t-24 -50t-51 -21z" />
    <glyph glyph-name="cedilla" unicode="&#xb8;" horiz-adv-x="307" 
d="M117 -53l69 104l76 -9l-69 -86q43 -7 60.5 -38t3.5 -66q-12 -31 -43.5 -51t-70.5 -20q-50 0 -95 34q-9 6 3 28t22 22q36 -20 56 -20q24 0 36 22q25 44 -35 47q-15 1 -18.5 10.5t5.5 22.5z" />
    <glyph glyph-name="one.sups" unicode="&#xb9;" horiz-adv-x="363" 
d="M190 662q10 12 35 12q16 0 33 -4.5t27 -11t8 -13.5q-47 -149 -60 -225q-11 -17 -46 -17q-43 0 -47 25q2 18 13.5 57.5t24.5 65.5q-35 -34 -61 -44q-12 0 -26.5 11t-18.5 24t5 21q67 41 113 99z" />
    <glyph glyph-name="guillemotright" unicode="&#xbb;" horiz-adv-x="687" 
d="M167 119q-14 -10 -28 -10q-32 0 -48.5 32.5t9.5 51.5q31 23 128 89q-17 19 -59 59.5t-53 53.5q-14 16 7.5 42t50.5 26q19 0 33 -14q18 -17 65.5 -61.5t62.5 -59.5q22 -22 23.5 -44t-8.5 -35t-27 -23q-38 -23 -156 -107zM429 119q-14 -10 -28 -10q-32 0 -48.5 32.5
t9.5 51.5q31 23 128 89q-17 19 -59 59.5t-53 53.5q-14 16 7.5 42t50.5 26q19 0 33 -14q18 -17 65.5 -61.5t62.5 -59.5q22 -22 23.5 -44t-8.5 -35t-27 -23q-38 -23 -156 -107z" />
    <glyph glyph-name="onequarter" unicode="&#xbc;" horiz-adv-x="775" 
d="M650 66l-9 -58q-2 -17 -49 -17q-20 0 -33.5 5.5t-11.5 14.5l11 52h-99q-26 0 -35.5 25.5t5.5 44.5l157 217q14 18 58 18q23 0 38.5 -6t13.5 -17l-36 -218h35q9 0 10 -15t-6.5 -30.5t-18.5 -15.5h-30zM595 250l-79 -123h53zM230 311q-3 -17 -55 -17q-54 0 -50 19
q4 20 12 58.5t11 50.5t10.5 37t17 46t24.5 49q-34 -51 -84 -65q-18 0 -31.5 14.5t-14.5 28.5t5 20q98 50 138 108q10 13 47 13q15 0 29 -2.5t22 -7t6 -9.5q-30 -91 -87 -343zM262 6q-10 -13 -41 -13q-37 0 -66.5 15t-15.5 35q30 42 172.5 295t196.5 324q9 10 30 10
q34 0 67 -20t19 -38q-46 -60 -181.5 -303t-180.5 -305z" />
    <glyph glyph-name="onehalf" unicode="&#xbd;" horiz-adv-x="784" 
d="M262 6q-10 -13 -41 -13q-37 0 -66.5 15t-15.5 35q30 42 172.5 295t196.5 324q9 10 30 10q34 0 67 -20t19 -38q-46 -60 -181.5 -303t-180.5 -305zM680 -6l-195 -2q-14 -1 -20 15.5t-2 36t16 26.5q85 50 129 155q11 28 8 42.5t-16 15.5t-22 -11.5t-10 -35.5q0 -15 -33 -15
q-40 0 -43 24q-5 56 31.5 88.5t86.5 32.5q41 0 70.5 -23t32.5 -63q4 -58 -26 -111.5t-85 -95.5h82q16 0 21.5 -19.5t-2 -39.5t-23.5 -20zM230 311q-3 -17 -55 -17q-54 0 -50 19q4 20 12 58.5t11 50.5t10.5 37t17 46t24.5 49q-34 -51 -84 -65q-18 0 -31.5 14.5t-14.5 28.5
t5 20q98 50 138 108q10 13 47 13q15 0 29 -2.5t22 -7t6 -9.5q-30 -91 -87 -343z" />
    <glyph glyph-name="threequarters" unicode="&#xbe;" horiz-adv-x="809" 
d="M684 66l-9 -58q-2 -17 -49 -17q-20 0 -33.5 5.5t-11.5 14.5l11 52h-99q-26 0 -35.5 25.5t5.5 44.5l157 217q14 18 58 18q23 0 38.5 -6t13.5 -17l-36 -218h35q9 0 10 -15t-6.5 -30.5t-18.5 -15.5h-30zM629 250l-79 -123h53zM164 293q-45 2 -71.5 30.5t-22.5 84.5
q2 18 36 18q18 0 32 -7t12 -19q-1 -17 6 -26.5t18 -9.5q10 -1 18.5 6.5t12.5 21.5q8 29 -3 43t-53 17q-13 1 -16 16.5t3 30t16 14.5q34 0 51 10.5t20 41.5q1 15 -5 24t-16 9q-13 1 -22.5 -11t-9.5 -35q0 -12 -38 -12q-41 0 -42 19q-5 55 34.5 85t91.5 30h5q47 -1 75 -28.5
t26 -69.5q-2 -39 -25 -63t-53 -27q29 -9 45.5 -36.5t10.5 -64.5q-8 -49 -45.5 -70.5t-90.5 -21.5zM296 6q-10 -13 -41 -13q-37 0 -66.5 15t-15.5 35q30 42 172.5 295t196.5 324q9 10 30 10q34 0 67 -20t19 -38q-46 -60 -181.5 -303t-180.5 -305z" />
    <glyph glyph-name="questiondown" unicode="&#xbf;" horiz-adv-x="476" 
d="M339 407q30 0 49.5 -21t17.5 -50t-24.5 -49.5t-52.5 -20.5q-32 0 -50 20.5t-15 49.5q3 30 24.5 50.5t50.5 20.5zM355 174q1 -48 -21 -86t-63 -82q-3 -3 -22.5 -24t-24.5 -26.5t-18.5 -23.5t-18 -28.5t-9.5 -27t-5 -32.5q0 -47 42 -49q68 0 80 107q3 29 53 29
q25 0 44 -9.5t19 -25.5q1 -99 -53 -145t-148 -47q-80 -1 -130.5 36.5t-51.5 103.5q0 15 1.5 29.5t8 29t9.5 24.5t15 25.5t15.5 21.5t20 22.5l19 19t21.5 20.5l20 19q25 24 38.5 39.5t26.5 38t15 44.5q3 27 57 27q24 0 42 -8t18 -22z" />
    <glyph glyph-name="Agrave" unicode="&#xc0;" horiz-adv-x="917" 
d="M255 -8q-95 0 -139.5 41.5t-33.5 116.5q13 86 96.5 134t201.5 48q4 0 13 -0.5t14 -0.5q4 8 16 35.5t15.5 35t14 30.5t14.5 31t14 27.5t15.5 28.5t15.5 25t18.5 26.5t19 24t22.5 26.5q63 70 157 70q46 0 80 -21.5t42 -60.5q19 -94 -41 -315q97 2 135 32q7 5 11 5
q13 0 22.5 -19t3.5 -25q-55 -55 -182 -67q-20 -78 -43 -198q-23 -27 -85 -27t-82 26q12 81 43 198l-104 7q-24 -57 -45 -93.5t-53 -71.5t-75.5 -52t-100.5 -17zM268 83q27 1 50.5 38.5t52.5 114.5q-45 0 -82 -21.5t-49 -62.5q-9 -23 -2.5 -46.5t30.5 -22.5zM651 302
q58 202 64 258q3 26 -13 26q-42 0 -139 -276q13 -2 44.5 -4t43.5 -4zM733 885l64 -92q12 -17 -4 -29t-41 -12q-24 0 -34 11l-91 104q-15 18 19 30q18 6 38 6q37 0 49 -18z" />
    <glyph glyph-name="Aacute" unicode="&#xc1;" horiz-adv-x="917" 
d="M255 -8q-95 0 -139.5 41.5t-33.5 116.5q13 86 96.5 134t201.5 48q4 0 13 -0.5t14 -0.5q4 8 16 35.5t15.5 35t14 30.5t14.5 31t14 27.5t15.5 28.5t15.5 25t18.5 26.5t19 24t22.5 26.5q63 70 157 70q46 0 80 -21.5t42 -60.5q19 -94 -41 -315q97 2 135 32q7 5 11 5
q13 0 22.5 -19t3.5 -25q-55 -55 -182 -67q-20 -78 -43 -198q-23 -27 -85 -27t-82 26q12 81 43 198l-104 7q-24 -57 -45 -93.5t-53 -71.5t-75.5 -52t-100.5 -17zM268 83q27 1 50.5 38.5t52.5 114.5q-45 0 -82 -21.5t-49 -62.5q-9 -23 -2.5 -46.5t30.5 -22.5zM651 302
q58 202 64 258q3 26 -13 26q-42 0 -139 -276q13 -2 44.5 -4t43.5 -4zM689 794l64 92q12 18 51 18q45 0 60 -18q7 -9 -1 -18l-91 -104q-10 -11 -35 -11q-26 0 -43.5 12t-4.5 29z" />
    <glyph glyph-name="Acircumflex" unicode="&#xc2;" horiz-adv-x="917" 
d="M255 -8q-95 0 -139.5 41.5t-33.5 116.5q13 86 96.5 134t201.5 48q4 0 13 -0.5t14 -0.5q4 8 16 35.5t15.5 35t14 30.5t14.5 31t14 27.5t15.5 28.5t15.5 25t18.5 26.5t19 24t22.5 26.5q63 70 157 70q46 0 80 -21.5t42 -60.5q19 -94 -41 -315q97 2 135 32q7 5 11 5
q13 0 22.5 -19t3.5 -25q-55 -55 -182 -67q-20 -78 -43 -198q-23 -27 -85 -27t-82 26q12 81 43 198l-104 7q-24 -57 -45 -93.5t-53 -71.5t-75.5 -52t-100.5 -17zM268 83q27 1 50.5 38.5t52.5 114.5q-45 0 -82 -21.5t-49 -62.5q-9 -23 -2.5 -46.5t30.5 -22.5zM651 302
q58 202 64 258q3 26 -13 26q-42 0 -139 -276q13 -2 44.5 -4t43.5 -4zM734 894q16 10 42 10q29 0 43 -11q12 -8 32.5 -29.5t41.5 -45t26 -28.5q15 -16 -21 -30q-21 -7 -42 -7t-28 8l-60 60l-80 -61q-9 -6 -22 -6q-28 0 -48.5 19t0.5 37q22 19 116 84z" />
    <glyph glyph-name="Atilde" unicode="&#xc3;" horiz-adv-x="917" 
d="M255 -8q-95 0 -139.5 41.5t-33.5 116.5q13 86 96.5 134t201.5 48q4 0 13 -0.5t14 -0.5q4 8 16 35.5t15.5 35t14 30.5t14.5 31t14 27.5t15.5 28.5t15.5 25t18.5 26.5t19 24t22.5 26.5q63 70 157 70q46 0 80 -21.5t42 -60.5q19 -94 -41 -315q97 2 135 32q7 5 11 5
q13 0 22.5 -19t3.5 -25q-55 -55 -182 -67q-20 -78 -43 -198q-23 -27 -85 -27t-82 26q12 81 43 198l-104 7q-24 -57 -45 -93.5t-53 -71.5t-75.5 -52t-100.5 -17zM268 83q27 1 50.5 38.5t52.5 114.5q-45 0 -82 -21.5t-49 -62.5q-9 -23 -2.5 -46.5t30.5 -22.5zM651 302
q58 202 64 258q3 26 -13 26q-42 0 -139 -276q13 -2 44.5 -4t43.5 -4zM796 762q-23 1 -59 18t-49 17q-30 0 -51 -28q-3 -3 -7 -3q-15 0 -35 18t-14 31q15 34 44 54t65 20q23 -1 57 -17.5t51 -16.5q30 0 52 25q3 3 7 3q14 0 30 -19t10 -32q-15 -31 -41.5 -50.5t-59.5 -19.5z
" />
    <glyph glyph-name="Adieresis" unicode="&#xc4;" horiz-adv-x="917" 
d="M255 -8q-95 0 -139.5 41.5t-33.5 116.5q13 86 96.5 134t201.5 48q4 0 13 -0.5t14 -0.5q4 8 16 35.5t15.5 35t14 30.5t14.5 31t14 27.5t15.5 28.5t15.5 25t18.5 26.5t19 24t22.5 26.5q63 70 157 70q46 0 80 -21.5t42 -60.5q19 -94 -41 -315q97 2 135 32q7 5 11 5
q13 0 22.5 -19t3.5 -25q-55 -55 -182 -67q-20 -78 -43 -198q-23 -27 -85 -27t-82 26q12 81 43 198l-104 7q-24 -57 -45 -93.5t-53 -71.5t-75.5 -52t-100.5 -17zM268 83q27 1 50.5 38.5t52.5 114.5q-45 0 -82 -21.5t-49 -62.5q-9 -23 -2.5 -46.5t30.5 -22.5zM651 302
q58 202 64 258q3 26 -13 26q-42 0 -139 -276q13 -2 44.5 -4t43.5 -4zM670 753q-35 0 -52 21t-15 48q5 27 26.5 47.5t55.5 21.5t51.5 -20.5t13.5 -49.5q-2 -26 -24 -47t-56 -21zM849 753q-37 0 -53 21t-12 48q3 30 26.5 49.5t54.5 19.5q35 0 51 -20.5t15 -48.5
q-2 -27 -24.5 -48t-57.5 -21z" />
    <glyph glyph-name="Aring" unicode="&#xc5;" horiz-adv-x="917" 
d="M255 -8q-95 0 -139.5 41.5t-33.5 116.5q13 86 96.5 134t201.5 48q4 0 13 -0.5t14 -0.5q4 8 16 35.5t15.5 35t14 30.5t14.5 31t14 27.5t15.5 28.5t15.5 25t18.5 26.5t19 24t22.5 26.5q63 70 157 70q46 0 80 -21.5t42 -60.5q19 -94 -41 -315q97 2 135 32q7 5 11 5
q13 0 22.5 -19t3.5 -25q-55 -55 -182 -67q-20 -78 -43 -198q-23 -27 -85 -27t-82 26q12 81 43 198l-104 7q-24 -57 -45 -93.5t-53 -71.5t-75.5 -52t-100.5 -17zM268 83q27 1 50.5 38.5t52.5 114.5q-45 0 -82 -21.5t-49 -62.5q-9 -23 -2.5 -46.5t30.5 -22.5zM651 302
q58 202 64 258q3 26 -13 26q-42 0 -139 -276q13 -2 44.5 -4t43.5 -4zM773 920q49 0 76 -26.5t20 -69.5q-5 -39 -37.5 -63.5t-78.5 -24.5q-49 0 -76 26.5t-20 69.5q5 39 37.5 63.5t78.5 24.5zM769 859q-29 0 -37 -31q-7 -31 25 -31q30 0 37 31t-25 31z" />
    <glyph glyph-name="AE" unicode="&#xc6;" horiz-adv-x="1191" 
d="M915 -36q-125 0 -182 53q-13 -48 -13 -49q-16 -16 -59 -16q-31 0 -57 9t-32 24q11 66 63 234q-17 1 -52.5 3.5t-53.5 3.5q-24 -57 -45 -93.5t-53 -71.5t-75.5 -52t-100.5 -17q-95 0 -139.5 41.5t-33.5 116.5q13 86 96.5 134t201.5 48q4 0 13 -0.5t14 -0.5
q50 112 85.5 175.5t89.5 120.5q60 64 145 64q44 0 76.5 -21.5t40.5 -60.5q16 -78 -17 -242q42 15 75 17q-32 45 -30 100.5t26 91.5q-22 46 -21 85q2 17 27 17q24 0 27 -17q5 -27 13 -42q39 31 77 39.5t100 8.5q63 -4 102.5 -36t34.5 -87q-5 -52 -46.5 -86t-95.5 -40
q-2 0 -7.5 -0.5t-8.5 -0.5q-66 0 -106 43q0 -84 61 -94q10 -9 2.5 -43.5t-24.5 -40.5q-54 3 -63 3q-150 0 -176 -87q-21 -68 21.5 -104t118.5 -36q81 0 160 39t112 107q3 5 8 5q9 0 22.5 -11.5t11.5 -16.5q-47 -99 -136 -158t-197 -59zM268 83q27 1 50.5 38.5t52.5 114.5
q-45 0 -82 -21.5t-49 -62.5q-9 -23 -2.5 -46.5t30.5 -22.5zM651 302q58 202 64 258q3 26 -13 26q-42 0 -139 -276q13 -2 44.5 -4t43.5 -4zM1087 500q48 4 54 44q1 14 -12 22.5t-33 8.5h-6q-50 -4 -74 -44q28 -31 71 -31z" />
    <glyph glyph-name="Ccedilla" unicode="&#xc7;" horiz-adv-x="670" 
d="M732 518q-11 -65 -70.5 -106t-140.5 -41q-100 0 -193 63q-34 -82 -31 -166q3 -97 49.5 -142t120.5 -45q66 0 125.5 33t90.5 90q3 4 8 4q11 0 25 -11t10 -17q-47 -86 -113.5 -133t-166.5 -55l-36 -45q43 -7 60.5 -38t3.5 -66q-12 -31 -43.5 -51t-70.5 -20q-50 0 -95 34
q-9 6 3 28t22 22q36 -20 56 -20q24 0 36 22q25 44 -35 47q-15 1 -18.5 10.5t5.5 22.5l36 54q-109 11 -175.5 87t-55.5 210q11 146 100 253q-39 64 -45 127q-1 10 10.5 16.5t26.5 6.5q25 0 29 -13q19 -62 31 -83q109 96 249 96q4 0 11 -0.5t11 -0.5q93 -5 138 -52.5
t32 -120.5zM537 598q-100 0 -167 -90q50 -32 110 -32q42 0 71.5 19.5t33.5 58.5q2 18 -11.5 30.5t-36.5 13.5z" />
    <glyph glyph-name="Egrave" unicode="&#xc8;" horiz-adv-x="612" 
d="M301 684q4 -28 11 -42q61 52 165 52q80 0 136 -35.5t53 -100.5q-3 -70 -51 -101t-122 -31q-32 1 -65.5 15t-53.5 33q4 -40 33 -68.5t82 -36.5q14 -15 4 -48.5t-29 -38.5q-19 4 -45 4q-56 0 -98.5 -22.5t-50.5 -68.5q-6 -34 5 -57.5t35 -34.5t46.5 -15.5t48.5 -4.5
q69 0 128.5 31.5t92.5 89.5q3 5 8 5q11 0 24 -11.5t11 -16.5q-47 -93 -130.5 -141.5t-190.5 -48.5q-38 0 -73.5 6t-69.5 21.5t-57.5 38.5t-34.5 60t-4 84q13 78 72 120t132 45q-38 16 -56 59.5t-14.5 88.5t21.5 76q-21 40 -23 92q0 9 9.5 14.5t22.5 5.5q25 0 28 -18z
M392 549q41 -36 89 -36q45 2 48 45q1 17 -15 27.5t-39 10.5q-57 0 -83 -47zM463 885l64 -92q12 -17 -4 -29t-41 -12q-24 0 -34 11l-91 104q-15 18 19 30q18 6 38 6q37 0 49 -18z" />
    <glyph glyph-name="Eacute" unicode="&#xc9;" horiz-adv-x="612" 
d="M301 684q4 -28 11 -42q61 52 165 52q80 0 136 -35.5t53 -100.5q-3 -70 -51 -101t-122 -31q-32 1 -65.5 15t-53.5 33q4 -40 33 -68.5t82 -36.5q14 -15 4 -48.5t-29 -38.5q-19 4 -45 4q-56 0 -98.5 -22.5t-50.5 -68.5q-6 -34 5 -57.5t35 -34.5t46.5 -15.5t48.5 -4.5
q69 0 128.5 31.5t92.5 89.5q3 5 8 5q11 0 24 -11.5t11 -16.5q-47 -93 -130.5 -141.5t-190.5 -48.5q-38 0 -73.5 6t-69.5 21.5t-57.5 38.5t-34.5 60t-4 84q13 78 72 120t132 45q-38 16 -56 59.5t-14.5 88.5t21.5 76q-21 40 -23 92q0 9 9.5 14.5t22.5 5.5q25 0 28 -18z
M392 549q41 -36 89 -36q45 2 48 45q1 17 -15 27.5t-39 10.5q-57 0 -83 -47zM419 794l64 92q12 18 51 18q45 0 60 -18q7 -9 -1 -18l-91 -104q-10 -11 -35 -11q-26 0 -43.5 12t-4.5 29z" />
    <glyph glyph-name="Ecircumflex" unicode="&#xca;" horiz-adv-x="612" 
d="M301 684q4 -28 11 -42q61 52 165 52q80 0 136 -35.5t53 -100.5q-3 -70 -51 -101t-122 -31q-32 1 -65.5 15t-53.5 33q4 -40 33 -68.5t82 -36.5q14 -15 4 -48.5t-29 -38.5q-19 4 -45 4q-56 0 -98.5 -22.5t-50.5 -68.5q-6 -34 5 -57.5t35 -34.5t46.5 -15.5t48.5 -4.5
q69 0 128.5 31.5t92.5 89.5q3 5 8 5q11 0 24 -11.5t11 -16.5q-47 -93 -130.5 -141.5t-190.5 -48.5q-38 0 -73.5 6t-69.5 21.5t-57.5 38.5t-34.5 60t-4 84q13 78 72 120t132 45q-38 16 -56 59.5t-14.5 88.5t21.5 76q-21 40 -23 92q0 9 9.5 14.5t22.5 5.5q25 0 28 -18z
M392 549q41 -36 89 -36q45 2 48 45q1 17 -15 27.5t-39 10.5q-57 0 -83 -47zM464 894q16 10 42 10q29 0 43 -11q12 -8 32.5 -29.5t41.5 -45t26 -28.5q15 -16 -21 -30q-21 -7 -42 -7t-28 8l-60 60l-80 -61q-9 -6 -22 -6q-28 0 -48.5 19t0.5 37q22 19 116 84z" />
    <glyph glyph-name="Edieresis" unicode="&#xcb;" horiz-adv-x="612" 
d="M301 684q4 -28 11 -42q61 52 165 52q80 0 136 -35.5t53 -100.5q-3 -70 -51 -101t-122 -31q-32 1 -65.5 15t-53.5 33q4 -40 33 -68.5t82 -36.5q14 -15 4 -48.5t-29 -38.5q-19 4 -45 4q-56 0 -98.5 -22.5t-50.5 -68.5q-6 -34 5 -57.5t35 -34.5t46.5 -15.5t48.5 -4.5
q69 0 128.5 31.5t92.5 89.5q3 5 8 5q11 0 24 -11.5t11 -16.5q-47 -93 -130.5 -141.5t-190.5 -48.5q-38 0 -73.5 6t-69.5 21.5t-57.5 38.5t-34.5 60t-4 84q13 78 72 120t132 45q-38 16 -56 59.5t-14.5 88.5t21.5 76q-21 40 -23 92q0 9 9.5 14.5t22.5 5.5q25 0 28 -18z
M392 549q41 -36 89 -36q45 2 48 45q1 17 -15 27.5t-39 10.5q-57 0 -83 -47zM400 753q-35 0 -52 21t-15 48q5 27 26.5 47.5t55.5 21.5t51.5 -20.5t13.5 -49.5q-2 -26 -24 -47t-56 -21zM579 753q-37 0 -53 21t-12 48q3 30 26.5 49.5t54.5 19.5q35 0 51 -20.5t15 -48.5
q-2 -27 -24.5 -48t-57.5 -21z" />
    <glyph glyph-name="Igrave" unicode="&#xcc;" horiz-adv-x="580" 
d="M479 667q25 20 87 20q64 0 78 -21q-4 -10 -130 -383q-2 -7 -7 -21q-15 -45 -23 -66.5t-22.5 -56.5t-27 -52t-33 -39t-43.5 -32t-54.5 -17.5t-70.5 -7.5q-111 -1 -157 73q-36 58 -12 121q24 60 90 73q29 0 57 -21.5t27 -46.5q-21 -22 -26.5 -48t4.5 -43t31 -17
q11 0 21 6.5t19 22t16.5 31t17 43.5t15.5 48.5t17 57.5t18 60q4 11 27 87.5t37 115.5q-22 -26 -64 -38t-74.5 -24t-40.5 -40q-14 -50 26 -62q7 -15 -2 -39t-26 -31q-18 -2 -26 -2q-62 0 -102 40t-29 98q8 43 40 68t76.5 36t91.5 20.5t95.5 30.5t78.5 56zM564 885l64 -92
q12 -17 -4 -29t-41 -12q-24 0 -34 11l-91 104q-15 18 19 30q18 6 38 6q37 0 49 -18z" />
    <glyph glyph-name="Iacute" unicode="&#xcd;" horiz-adv-x="580" 
d="M479 667q25 20 87 20q64 0 78 -21q-4 -10 -130 -383q-2 -7 -7 -21q-15 -45 -23 -66.5t-22.5 -56.5t-27 -52t-33 -39t-43.5 -32t-54.5 -17.5t-70.5 -7.5q-111 -1 -157 73q-36 58 -12 121q24 60 90 73q29 0 57 -21.5t27 -46.5q-21 -22 -26.5 -48t4.5 -43t31 -17
q11 0 21 6.5t19 22t16.5 31t17 43.5t15.5 48.5t17 57.5t18 60q4 11 27 87.5t37 115.5q-22 -26 -64 -38t-74.5 -24t-40.5 -40q-14 -50 26 -62q7 -15 -2 -39t-26 -31q-18 -2 -26 -2q-62 0 -102 40t-29 98q8 43 40 68t76.5 36t91.5 20.5t95.5 30.5t78.5 56zM520 794l64 92
q12 18 51 18q45 0 60 -18q7 -9 -1 -18l-91 -104q-10 -11 -35 -11q-26 0 -43.5 12t-4.5 29z" />
    <glyph glyph-name="Icircumflex" unicode="&#xce;" horiz-adv-x="580" 
d="M479 667q25 20 87 20q64 0 78 -21q-4 -10 -130 -383q-2 -7 -7 -21q-15 -45 -23 -66.5t-22.5 -56.5t-27 -52t-33 -39t-43.5 -32t-54.5 -17.5t-70.5 -7.5q-111 -1 -157 73q-36 58 -12 121q24 60 90 73q29 0 57 -21.5t27 -46.5q-21 -22 -26.5 -48t4.5 -43t31 -17
q11 0 21 6.5t19 22t16.5 31t17 43.5t15.5 48.5t17 57.5t18 60q4 11 27 87.5t37 115.5q-22 -26 -64 -38t-74.5 -24t-40.5 -40q-14 -50 26 -62q7 -15 -2 -39t-26 -31q-18 -2 -26 -2q-62 0 -102 40t-29 98q8 43 40 68t76.5 36t91.5 20.5t95.5 30.5t78.5 56zM565 894
q16 10 42 10q29 0 43 -11q12 -8 32.5 -29.5t41.5 -45t26 -28.5q15 -16 -21 -30q-21 -7 -42 -7t-28 8l-60 60l-80 -61q-9 -6 -22 -6q-28 0 -48.5 19t0.5 37q22 19 116 84z" />
    <glyph glyph-name="Idieresis" unicode="&#xcf;" horiz-adv-x="580" 
d="M479 667q25 20 87 20q64 0 78 -21q-4 -10 -130 -383q-2 -7 -7 -21q-15 -45 -23 -66.5t-22.5 -56.5t-27 -52t-33 -39t-43.5 -32t-54.5 -17.5t-70.5 -7.5q-111 -1 -157 73q-36 58 -12 121q24 60 90 73q29 0 57 -21.5t27 -46.5q-21 -22 -26.5 -48t4.5 -43t31 -17
q11 0 21 6.5t19 22t16.5 31t17 43.5t15.5 48.5t17 57.5t18 60q4 11 27 87.5t37 115.5q-22 -26 -64 -38t-74.5 -24t-40.5 -40q-14 -50 26 -62q7 -15 -2 -39t-26 -31q-18 -2 -26 -2q-62 0 -102 40t-29 98q8 43 40 68t76.5 36t91.5 20.5t95.5 30.5t78.5 56zM501 753
q-35 0 -52 21t-15 48q5 27 26.5 47.5t55.5 21.5t51.5 -20.5t13.5 -49.5q-2 -26 -24 -47t-56 -21zM680 753q-37 0 -53 21t-12 48q3 30 26.5 49.5t54.5 19.5q35 0 51 -20.5t15 -48.5q-2 -27 -24.5 -48t-57.5 -21z" />
    <glyph glyph-name="Eth" unicode="&#xd0;" horiz-adv-x="948" 
d="M254 -8q-86 0 -135.5 32t-44.5 91q4 55 48 84t106 29q69 0 127 -32q8 19 22 63h-41q-11 9 -7 36t21 33h48q17 55 28 87.5t32 71t45 59.5q18 12 50 12q27 0 50 -8t25 -19q-41 -57 -86 -204h85q11 -8 6 -35.5t-17 -33.5h-97q-27 -83 -51 -125q67 -49 129 -49q43 0 75 27.5
t47.5 72t23 86t7.5 81.5q1 52 -7 93t-29.5 78t-65.5 57.5t-108 20.5q-39 0 -79 -13t-71 -38t-43.5 -60t3.5 -80q-2 -16 -28 -38.5t-56 -22.5q-9 0 -18 3q-60 32 -63 103t49 127q101 111 334 111q67 -2 126 -22t108.5 -59.5t78 -106.5t25.5 -154q-3 -94 -33.5 -172.5
t-99 -132t-164.5 -53.5q-89 0 -179 63q-63 -63 -176 -63zM242 81q25 0 48.5 13t35.5 35q-35 20 -70 20q-38 -3 -45 -31q-5 -23 16 -33q7 -4 15 -4z" />
    <glyph glyph-name="Ntilde" unicode="&#xd1;" horiz-adv-x="890" 
d="M762 692q33 0 56.5 -10t36.5 -23t18.5 -37t6.5 -41.5t-4 -47.5t-8.5 -45t-12 -44t-9.5 -34q-11 -40 -31 -102t-30 -98t-16.5 -77t2.5 -66.5t34 -39.5q16 -21 -15.5 -65t-71.5 -44h-6q-26 3 -45.5 12.5t-31 27t-19 37.5t-8.5 49.5t0 55.5t8 63.5t13.5 66.5t18 70.5
t20 69.5t21.5 70q3 9 8.5 26.5t9.5 29.5t8.5 28t5.5 26.5t0.5 20.5t-5.5 15t-14 5q-52 0 -118 -82.5t-103 -200.5q-28 -88 -49 -160t-28.5 -99t-11.5 -36q-9 -23 -72 -23q-33 0 -59.5 9.5t-29.5 25.5q14 45 69 229.5t93 301.5q-18 -22 -49.5 -35t-57.5 -17t-48.5 -16.5
t-27.5 -34.5q-6 -26 0.5 -40t26.5 -24q6 -6 5.5 -20.5t-11 -30.5t-23.5 -18q-16 -2 -24 -2q-62 0 -102.5 41.5t-28.5 99.5q9 42 41.5 67t77.5 36t92.5 21t96.5 32t79 59q18 14 63 14q65 0 75 -25q-19 -59 -38 -110q40 59 100 99.5t122 39.5zM751 762q-23 1 -59 18t-49 17
q-30 0 -51 -28q-3 -3 -7 -3q-15 0 -35 18t-14 31q15 34 44 54t65 20q23 -1 57 -17.5t51 -16.5q30 0 52 25q3 3 7 3q14 0 30 -19t10 -32q-15 -31 -41.5 -50.5t-59.5 -19.5z" />
    <glyph glyph-name="Ograve" unicode="&#xd2;" horiz-adv-x="779" 
d="M486 692q79 -2 131.5 -34.5t73.5 -79t25 -105t-5 -108t-24 -92.5q33 2 75 15.5t62 28.5q7 0 9 -11.5t-1.5 -24.5t-8.5 -17q-66 -49 -160 -59q-43 -100 -125 -156.5t-189 -56.5q-141 0 -195 90q-31 50 -26 126t44 118q9 6 21 6q27 0 57 -23t27 -39q-16 -24 -18.5 -57
t7.5 -62t34 -49t57 -20q58 0 92 35t59 98q-130 22 -214 106t-65 200q9 60 50.5 100t93.5 55.5t113 15.5zM474 599q-40 0 -64.5 -25.5t-28.5 -65.5q-7 -62 32.5 -126.5t118.5 -87.5q6 25 11.5 55.5t9 77.5t-1 83t-24 62.5t-53.5 26.5zM503 885l64 -92q12 -17 -4 -29t-41 -12
q-24 0 -34 11l-91 104q-15 18 19 30q18 6 38 6q37 0 49 -18z" />
    <glyph glyph-name="Oacute" unicode="&#xd3;" horiz-adv-x="779" 
d="M486 692q79 -2 131.5 -34.5t73.5 -79t25 -105t-5 -108t-24 -92.5q33 2 75 15.5t62 28.5q7 0 9 -11.5t-1.5 -24.5t-8.5 -17q-66 -49 -160 -59q-43 -100 -125 -156.5t-189 -56.5q-141 0 -195 90q-31 50 -26 126t44 118q9 6 21 6q27 0 57 -23t27 -39q-16 -24 -18.5 -57
t7.5 -62t34 -49t57 -20q58 0 92 35t59 98q-130 22 -214 106t-65 200q9 60 50.5 100t93.5 55.5t113 15.5zM474 599q-40 0 -64.5 -25.5t-28.5 -65.5q-7 -62 32.5 -126.5t118.5 -87.5q6 25 11.5 55.5t9 77.5t-1 83t-24 62.5t-53.5 26.5zM459 794l64 92q12 18 51 18q45 0 60 -18
q7 -9 -1 -18l-91 -104q-10 -11 -35 -11q-26 0 -43.5 12t-4.5 29z" />
    <glyph glyph-name="Ocircumflex" unicode="&#xd4;" horiz-adv-x="779" 
d="M486 692q79 -2 131.5 -34.5t73.5 -79t25 -105t-5 -108t-24 -92.5q33 2 75 15.5t62 28.5q7 0 9 -11.5t-1.5 -24.5t-8.5 -17q-66 -49 -160 -59q-43 -100 -125 -156.5t-189 -56.5q-141 0 -195 90q-31 50 -26 126t44 118q9 6 21 6q27 0 57 -23t27 -39q-16 -24 -18.5 -57
t7.5 -62t34 -49t57 -20q58 0 92 35t59 98q-130 22 -214 106t-65 200q9 60 50.5 100t93.5 55.5t113 15.5zM474 599q-40 0 -64.5 -25.5t-28.5 -65.5q-7 -62 32.5 -126.5t118.5 -87.5q6 25 11.5 55.5t9 77.5t-1 83t-24 62.5t-53.5 26.5zM504 894q16 10 42 10q29 0 43 -11
q12 -8 32.5 -29.5t41.5 -45t26 -28.5q15 -16 -21 -30q-21 -7 -42 -7t-28 8l-60 60l-80 -61q-9 -6 -22 -6q-28 0 -48.5 19t0.5 37q22 19 116 84z" />
    <glyph glyph-name="Otilde" unicode="&#xd5;" horiz-adv-x="779" 
d="M486 692q79 -2 131.5 -34.5t73.5 -79t25 -105t-5 -108t-24 -92.5q33 2 75 15.5t62 28.5q7 0 9 -11.5t-1.5 -24.5t-8.5 -17q-66 -49 -160 -59q-43 -100 -125 -156.5t-189 -56.5q-141 0 -195 90q-31 50 -26 126t44 118q9 6 21 6q27 0 57 -23t27 -39q-16 -24 -18.5 -57
t7.5 -62t34 -49t57 -20q58 0 92 35t59 98q-130 22 -214 106t-65 200q9 60 50.5 100t93.5 55.5t113 15.5zM474 599q-40 0 -64.5 -25.5t-28.5 -65.5q-7 -62 32.5 -126.5t118.5 -87.5q6 25 11.5 55.5t9 77.5t-1 83t-24 62.5t-53.5 26.5zM566 762q-23 1 -59 18t-49 17
q-30 0 -51 -28q-3 -3 -7 -3q-15 0 -35 18t-14 31q15 34 44 54t65 20q23 -1 57 -17.5t51 -16.5q30 0 52 25q3 3 7 3q14 0 30 -19t10 -32q-15 -31 -41.5 -50.5t-59.5 -19.5z" />
    <glyph glyph-name="Odieresis" unicode="&#xd6;" horiz-adv-x="779" 
d="M486 692q79 -2 131.5 -34.5t73.5 -79t25 -105t-5 -108t-24 -92.5q33 2 75 15.5t62 28.5q7 0 9 -11.5t-1.5 -24.5t-8.5 -17q-66 -49 -160 -59q-43 -100 -125 -156.5t-189 -56.5q-141 0 -195 90q-31 50 -26 126t44 118q9 6 21 6q27 0 57 -23t27 -39q-16 -24 -18.5 -57
t7.5 -62t34 -49t57 -20q58 0 92 35t59 98q-130 22 -214 106t-65 200q9 60 50.5 100t93.5 55.5t113 15.5zM474 599q-40 0 -64.5 -25.5t-28.5 -65.5q-7 -62 32.5 -126.5t118.5 -87.5q6 25 11.5 55.5t9 77.5t-1 83t-24 62.5t-53.5 26.5zM440 753q-35 0 -52 21t-15 48
q5 27 26.5 47.5t55.5 21.5t51.5 -20.5t13.5 -49.5q-2 -26 -24 -47t-56 -21zM619 753q-37 0 -53 21t-12 48q3 30 26.5 49.5t54.5 19.5q35 0 51 -20.5t15 -48.5q-2 -27 -24.5 -48t-57.5 -21z" />
    <glyph glyph-name="multiply" unicode="&#xd7;" horiz-adv-x="585" 
d="M303 232l-127 -84q-2 -2 -9 -2q-14 0 -34 15.5t-28 32t2 26.5l117 81l-79 69q-17 15 5 44t48 29q11 0 18 -7l92 -79l117 77q5 4 14 4q17 0 36.5 -16t26.5 -33t-3 -27l-112 -74l69 -60q20 -17 -1 -47t-47 -30q-12 0 -19 7z" />
    <glyph glyph-name="Oslash" unicode="&#xd8;" horiz-adv-x="737" 
d="M557 678l23 42q7 12 23 12q24 0 50.5 -21.5t18.5 -34.5q-4 -6 -12 -21.5t-14 -24.5q40 -40 57.5 -104t14 -130.5t-22.5 -134.5q-38 -132 -126.5 -201t-200.5 -69q-50 0 -83 10q-11 -16 -30 -51q-7 -13 -24 -13q-25 0 -52 20.5t-19 33.5q1 2 11.5 20t16.5 27
q-52 46 -60 130.5t42 154.5q9 9 24 9q26 0 56 -22.5t28 -38.5q-30 -57 -16 -110q39 67 119 210t124 218q-16 10 -44 10q-35 0 -59.5 -16.5t-33 -40t-10.5 -49t8 -44.5q2 -23 -20.5 -44.5t-45.5 -21.5q-9 0 -13 2q-29 20 -48.5 56.5t-11.5 79.5q15 88 83.5 129.5t162.5 41.5
q46 -1 84 -14zM574 503q-157 -276 -243 -420q16 -2 24 -2q95 0 161 110q82 135 58 312z" />
    <glyph glyph-name="Ugrave" unicode="&#xd9;" horiz-adv-x="938" 
d="M471 669q24 18 85 18q72 0 77 -24q-13 -39 -39 -113t-49 -145t-57 -181q-43 -142 30 -142q40 0 81.5 47t66.5 127q5 17 55 180.5t70 222.5q21 14 63 14q36 0 65.5 -10t32.5 -26q-56 -139 -152 -493q-15 -58 11 -60q83 0 141 120q2 4 7 4q10 0 24.5 -10.5t11.5 -17.5
q-35 -71 -101 -131t-141 -60q-42 0 -71.5 24.5t-28.5 70.5q-33 -45 -85.5 -69t-97.5 -24q-102 0 -138 68t0 202q12 45 47 147.5t49 147.5q-17 -22 -48 -34.5t-57 -16.5t-49 -17t-29 -36q-11 -45 25 -62q11 -9 0 -38.5t-27 -30.5q-16 -2 -25 -2q-63 0 -104 41t-26 99
q11 41 43.5 65.5t77 36t91 21t94 31t77.5 56.5zM712 885l64 -92q12 -17 -4 -29t-41 -12q-24 0 -34 11l-91 104q-15 18 19 30q18 6 38 6q37 0 49 -18z" />
    <glyph glyph-name="Uacute" unicode="&#xda;" horiz-adv-x="938" 
d="M471 669q24 18 85 18q72 0 77 -24q-13 -39 -39 -113t-49 -145t-57 -181q-43 -142 30 -142q40 0 81.5 47t66.5 127q5 17 55 180.5t70 222.5q21 14 63 14q36 0 65.5 -10t32.5 -26q-56 -139 -152 -493q-15 -58 11 -60q83 0 141 120q2 4 7 4q10 0 24.5 -10.5t11.5 -17.5
q-35 -71 -101 -131t-141 -60q-42 0 -71.5 24.5t-28.5 70.5q-33 -45 -85.5 -69t-97.5 -24q-102 0 -138 68t0 202q12 45 47 147.5t49 147.5q-17 -22 -48 -34.5t-57 -16.5t-49 -17t-29 -36q-11 -45 25 -62q11 -9 0 -38.5t-27 -30.5q-16 -2 -25 -2q-63 0 -104 41t-26 99
q11 41 43.5 65.5t77 36t91 21t94 31t77.5 56.5zM668 794l64 92q12 18 51 18q45 0 60 -18q7 -9 -1 -18l-91 -104q-10 -11 -35 -11q-26 0 -43.5 12t-4.5 29z" />
    <glyph glyph-name="Ucircumflex" unicode="&#xdb;" horiz-adv-x="938" 
d="M471 669q24 18 85 18q72 0 77 -24q-13 -39 -39 -113t-49 -145t-57 -181q-43 -142 30 -142q40 0 81.5 47t66.5 127q5 17 55 180.5t70 222.5q21 14 63 14q36 0 65.5 -10t32.5 -26q-56 -139 -152 -493q-15 -58 11 -60q83 0 141 120q2 4 7 4q10 0 24.5 -10.5t11.5 -17.5
q-35 -71 -101 -131t-141 -60q-42 0 -71.5 24.5t-28.5 70.5q-33 -45 -85.5 -69t-97.5 -24q-102 0 -138 68t0 202q12 45 47 147.5t49 147.5q-17 -22 -48 -34.5t-57 -16.5t-49 -17t-29 -36q-11 -45 25 -62q11 -9 0 -38.5t-27 -30.5q-16 -2 -25 -2q-63 0 -104 41t-26 99
q11 41 43.5 65.5t77 36t91 21t94 31t77.5 56.5zM713 894q16 10 42 10q29 0 43 -11q12 -8 32.5 -29.5t41.5 -45t26 -28.5q15 -16 -21 -30q-21 -7 -42 -7t-28 8l-60 60l-80 -61q-9 -6 -22 -6q-28 0 -48.5 19t0.5 37q22 19 116 84z" />
    <glyph glyph-name="Udieresis" unicode="&#xdc;" horiz-adv-x="938" 
d="M471 669q24 18 85 18q72 0 77 -24q-13 -39 -39 -113t-49 -145t-57 -181q-43 -142 30 -142q40 0 81.5 47t66.5 127q5 17 55 180.5t70 222.5q21 14 63 14q36 0 65.5 -10t32.5 -26q-56 -139 -152 -493q-15 -58 11 -60q83 0 141 120q2 4 7 4q10 0 24.5 -10.5t11.5 -17.5
q-35 -71 -101 -131t-141 -60q-42 0 -71.5 24.5t-28.5 70.5q-33 -45 -85.5 -69t-97.5 -24q-102 0 -138 68t0 202q12 45 47 147.5t49 147.5q-17 -22 -48 -34.5t-57 -16.5t-49 -17t-29 -36q-11 -45 25 -62q11 -9 0 -38.5t-27 -30.5q-16 -2 -25 -2q-63 0 -104 41t-26 99
q11 41 43.5 65.5t77 36t91 21t94 31t77.5 56.5zM649 753q-35 0 -52 21t-15 48q5 27 26.5 47.5t55.5 21.5t51.5 -20.5t13.5 -49.5q-2 -26 -24 -47t-56 -21zM828 753q-37 0 -53 21t-12 48q3 30 26.5 49.5t54.5 19.5q35 0 51 -20.5t15 -48.5q-2 -27 -24.5 -48t-57.5 -21z" />
    <glyph glyph-name="Yacute" unicode="&#xdd;" horiz-adv-x="922" 
d="M937 204q1 3 7 3q10 0 24.5 -10.5t10.5 -16.5q-54 -99 -112.5 -152.5t-136.5 -83.5q-13 -59 -29 -98.5t-43.5 -74.5t-71.5 -51.5t-105 -16.5q-63 0 -100.5 32.5t-30.5 85.5q6 40 27 68t59 45t67.5 25t80.5 18q30 90 36 110q-62 -73 -149 -73q-96 0 -131 67.5t0 200.5
q12 46 43.5 139t44.5 135q-17 -22 -48 -35t-57 -17t-49.5 -16.5t-29.5 -35.5q-11 -45 24 -62q13 -5 3 -35.5t-30 -33.5q-16 -2 -23 -2q-64 0 -104 39.5t-27 97.5q9 42 41.5 67t77.5 36t92 21t95.5 32.5t78.5 58.5q30 15 79 15q32 0 56 -6.5t25 -15.5q-7 -23 -50 -148.5
t-86 -269.5q-43 -141 23 -142q48 -1 89 46t66 128q103 339 116 379q16 16 60 16q36 0 68 -10.5t34 -25.5q-28 -72 -93.5 -275.5t-107.5 -345.5q113 49 186 188zM572 -92q-34 -9 -61.5 -29.5t-34.5 -39.5q-7 -20 -2 -31.5t19 -12.5q14 0 30 11.5t26 33.5q8 17 23 68zM667 796
l64 92q12 18 51 18q45 0 60 -18q7 -9 -1 -18l-91 -104q-10 -11 -35 -11q-26 0 -43.5 12t-4.5 29z" />
    <glyph glyph-name="Thorn" unicode="&#xde;" horiz-adv-x="807" 
d="M543 703q1 0 4 0.5t5 0.5q21 0 40 -11.5t24.5 -24.5t-1.5 -21q-10 -7 -31 -60q111 -20 174.5 -89.5t40.5 -178.5q-20 -98 -97.5 -165.5t-198.5 -67.5q-39 0 -77 7q-18 -63 -21 -77q-8 -26 -78 -26q-34 0 -57.5 9.5t-17.5 27.5q53 188 138 452q-81 -23 -120 -72t-5 -106
q5 -8 -8 -21.5t-36.5 -24t-43.5 -10.5q-7 0 -19 4q-67 29 -65 104q1 72 51 125.5t123.5 80.5t165.5 34q50 103 110 110zM547 486q-27 -78 -92 -290q3 0 9 -0.5t9 -0.5q63 0 109 35t63 105q15 64 -13.5 101.5t-84.5 49.5z" />
    <glyph glyph-name="germandbls" unicode="&#xdf;" horiz-adv-x="625" 
d="M640 205q2 3 6 3q9 0 23.5 -11t12.5 -16q-62 -133 -197 -133q-55 -55 -150 -55q-67 0 -110 33.5t-44 113.5q0 11 20 22t41 11q28 0 35 -23q19 -61 52 -61q10 0 19 6q-13 21 -1.5 48t33.5 33q-1 49 -21 79t-60 51q-24 12 -17 57.5t34 56.5q40 16 61.5 35.5t28.5 59.5
q6 33 -8.5 54t-47.5 21q-29 0 -53.5 -21.5t-54.5 -92.5q-25 -59 -61.5 -224.5t-31.5 -227.5q1 -16 -21.5 -24.5t-54.5 -8.5q-31 0 -54 8.5t-23 22.5q6 133 41.5 281t92.5 257q73 139 219 139q97 0 156.5 -55.5t46.5 -138.5q-7 -47 -46 -84t-90 -54q146 -103 106 -261
q71 9 118 99z" />
    <glyph glyph-name="agrave" unicode="&#xe0;" horiz-adv-x="549" 
d="M323 429q136 0 202 -67q7 -15 -16 -44.5t-39 -29.5h-2q-57 45 -150 45q-45 -2 -84.5 -37t-58.5 -87q-34 -92 -8 -116q7 -7 17 -7q30 0 65.5 63.5t61.5 132.5q12 9 38 9q30 0 61.5 -11t38.5 -24q-20 -64 -27 -94q-20 -80 16 -78q24 1 63 36.5t62 82.5q1 4 8 4
q11 0 25 -10.5t10 -16.5q-47 -87 -110.5 -137.5t-134.5 -50.5q-39 0 -56 32t-11 87q-31 -58 -70.5 -88.5t-99.5 -30.5q-58 0 -96.5 36t-26.5 124q16 116 110.5 196.5t211.5 80.5zM323 619l64 -92q12 -17 -4 -29t-41 -12q-24 0 -34 11l-91 104q-15 18 19 30q18 6 38 6
q37 0 49 -18z" />
    <glyph glyph-name="aacute" unicode="&#xe1;" horiz-adv-x="549" 
d="M323 429q136 0 202 -67q7 -15 -16 -44.5t-39 -29.5h-2q-57 45 -150 45q-45 -2 -84.5 -37t-58.5 -87q-34 -92 -8 -116q7 -7 17 -7q30 0 65.5 63.5t61.5 132.5q12 9 38 9q30 0 61.5 -11t38.5 -24q-20 -64 -27 -94q-20 -80 16 -78q24 1 63 36.5t62 82.5q1 4 8 4
q11 0 25 -10.5t10 -16.5q-47 -87 -110.5 -137.5t-134.5 -50.5q-39 0 -56 32t-11 87q-31 -58 -70.5 -88.5t-99.5 -30.5q-58 0 -96.5 36t-26.5 124q16 116 110.5 196.5t211.5 80.5zM279 528l64 92q12 18 51 18q45 0 60 -18q7 -9 -1 -18l-91 -104q-10 -11 -35 -11
q-26 0 -43.5 12t-4.5 29z" />
    <glyph glyph-name="acircumflex" unicode="&#xe2;" horiz-adv-x="549" 
d="M323 429q136 0 202 -67q7 -15 -16 -44.5t-39 -29.5h-2q-57 45 -150 45q-45 -2 -84.5 -37t-58.5 -87q-34 -92 -8 -116q7 -7 17 -7q30 0 65.5 63.5t61.5 132.5q12 9 38 9q30 0 61.5 -11t38.5 -24q-20 -64 -27 -94q-20 -80 16 -78q24 1 63 36.5t62 82.5q1 4 8 4
q11 0 25 -10.5t10 -16.5q-47 -87 -110.5 -137.5t-134.5 -50.5q-39 0 -56 32t-11 87q-31 -58 -70.5 -88.5t-99.5 -30.5q-58 0 -96.5 36t-26.5 124q16 116 110.5 196.5t211.5 80.5zM324 628q16 10 42 10q29 0 43 -11q12 -8 32.5 -29.5t41.5 -45t26 -28.5q15 -16 -21 -30
q-21 -7 -42 -7t-28 8l-60 60l-80 -61q-9 -6 -22 -6q-28 0 -48.5 19t0.5 37q22 19 116 84z" />
    <glyph glyph-name="atilde" unicode="&#xe3;" horiz-adv-x="549" 
d="M323 429q136 0 202 -67q7 -15 -16 -44.5t-39 -29.5h-2q-57 45 -150 45q-45 -2 -84.5 -37t-58.5 -87q-34 -92 -8 -116q7 -7 17 -7q30 0 65.5 63.5t61.5 132.5q12 9 38 9q30 0 61.5 -11t38.5 -24q-20 -64 -27 -94q-20 -80 16 -78q24 1 63 36.5t62 82.5q1 4 8 4
q11 0 25 -10.5t10 -16.5q-47 -87 -110.5 -137.5t-134.5 -50.5q-39 0 -56 32t-11 87q-31 -58 -70.5 -88.5t-99.5 -30.5q-58 0 -96.5 36t-26.5 124q16 116 110.5 196.5t211.5 80.5zM386 496q-23 1 -59 18t-49 17q-30 0 -51 -28q-3 -3 -7 -3q-15 0 -35 18t-14 31q15 34 44 54
t65 20q23 -1 57 -17.5t51 -16.5q30 0 52 25q3 3 7 3q14 0 30 -19t10 -32q-15 -31 -41.5 -50.5t-59.5 -19.5z" />
    <glyph glyph-name="adieresis" unicode="&#xe4;" horiz-adv-x="549" 
d="M323 429q136 0 202 -67q7 -15 -16 -44.5t-39 -29.5h-2q-57 45 -150 45q-45 -2 -84.5 -37t-58.5 -87q-34 -92 -8 -116q7 -7 17 -7q30 0 65.5 63.5t61.5 132.5q12 9 38 9q30 0 61.5 -11t38.5 -24q-20 -64 -27 -94q-20 -80 16 -78q24 1 63 36.5t62 82.5q1 4 8 4
q11 0 25 -10.5t10 -16.5q-47 -87 -110.5 -137.5t-134.5 -50.5q-39 0 -56 32t-11 87q-31 -58 -70.5 -88.5t-99.5 -30.5q-58 0 -96.5 36t-26.5 124q16 116 110.5 196.5t211.5 80.5zM260 487q-35 0 -52 21t-15 48q5 27 26.5 47.5t55.5 21.5t51.5 -20.5t13.5 -49.5
q-2 -26 -24 -47t-56 -21zM439 487q-37 0 -53 21t-12 48q3 30 26.5 49.5t54.5 19.5q35 0 51 -20.5t15 -48.5q-2 -27 -24.5 -48t-57.5 -21z" />
    <glyph glyph-name="aring" unicode="&#xe5;" horiz-adv-x="549" 
d="M323 429q136 0 202 -67q7 -15 -16 -44.5t-39 -29.5h-2q-57 45 -150 45q-45 -2 -84.5 -37t-58.5 -87q-34 -92 -8 -116q7 -7 17 -7q30 0 65.5 63.5t61.5 132.5q12 9 38 9q30 0 61.5 -11t38.5 -24q-20 -64 -27 -94q-20 -80 16 -78q24 1 63 36.5t62 82.5q1 4 8 4
q11 0 25 -10.5t10 -16.5q-47 -87 -110.5 -137.5t-134.5 -50.5q-39 0 -56 32t-11 87q-31 -58 -70.5 -88.5t-99.5 -30.5q-58 0 -96.5 36t-26.5 124q16 116 110.5 196.5t211.5 80.5zM363 654q49 0 76 -26.5t20 -69.5q-5 -39 -37.5 -63.5t-78.5 -24.5q-49 0 -76 26.5t-20 69.5
q5 39 37.5 63.5t78.5 24.5zM359 593q-29 0 -37 -31q-7 -31 25 -31q30 0 37 31t-25 31z" />
    <glyph glyph-name="ae" unicode="&#xe6;" horiz-adv-x="734" 
d="M268 421q3 0 9 0.5t8 0.5q86 0 130 -65q65 68 166 68q66 -1 105.5 -34t39.5 -78q0 -73 -54.5 -115.5t-142.5 -42.5q-31 0 -56 4q7 -76 89 -76q122 0 186 120q3 5 10 5q11 0 24 -10.5t9 -17.5q-103 -188 -265 -188q-43 0 -83 19.5t-64 53.5q-58 -67 -163 -67
q-68 1 -102.5 30.5t-32.5 80.5q4 71 59 113t144 42q19 0 28 -1q-2 44 -14.5 65t-51.5 21q-104 -4 -203 -194q-3 -6 -11 -6q-12 0 -24.5 10t-7.5 19q58 117 121 177t147 66zM265 192q-24 -10 -36.5 -35t-5.5 -46t32 -21q42 0 54 109q-23 0 -44 -7zM567 330q-36 0 -58.5 -33
t-30.5 -74q36 0 63.5 18t38.5 51q10 35 -13 38z" />
    <glyph glyph-name="ccedilla" unicode="&#xe7;" horiz-adv-x="437" 
d="M451 204q1 4 7 4q10 0 24.5 -11t11.5 -16q-81 -155 -224 -182l-35 -43q43 -7 60.5 -38t3.5 -66q-12 -31 -43.5 -51t-70.5 -20q-50 0 -95 34q-9 6 3 28t22 22q36 -20 56 -20q24 0 36 22q25 44 -35 47q-15 1 -18.5 10.5t5.5 22.5l31 46q-81 2 -134 55.5t-44 134.5
q11 104 84 174t188 69q42 -1 71 -12t42.5 -28t18 -38t0 -42t-15.5 -40q-9 -16 -35.5 -25t-55.5 -9q-27 0 -42.5 7.5t-9.5 20.5q6 11 9 18t8.5 21.5t4 23t-10.5 9.5q-26 0 -47 -27t-31 -57t-12 -56q-4 -52 23.5 -80t73.5 -28h7q113 7 169 120z" />
    <glyph glyph-name="egrave" unicode="&#xe8;" horiz-adv-x="478" 
d="M283 425q47 -1 81.5 -17.5t48.5 -42t16.5 -56.5t-15.5 -61q-21 -44 -69.5 -68.5t-114.5 -24.5q-30 0 -55 4q7 -77 121 -77q53 0 106.5 28t88.5 94q1 4 7 4q11 0 25.5 -11t11.5 -16q-57 -103 -129 -147.5t-167 -43.5q-122 1 -178 59t-48 145q10 106 86 168.5t184 62.5z
M269 330q-35 0 -57 -33t-32 -74q36 0 64.5 18t37.5 51q10 35 -13 38zM276 619l64 -92q12 -17 -4 -29t-41 -12q-24 0 -34 11l-91 104q-15 18 19 30q18 6 38 6q37 0 49 -18z" />
    <glyph glyph-name="eacute" unicode="&#xe9;" horiz-adv-x="478" 
d="M283 425q47 -1 81.5 -17.5t48.5 -42t16.5 -56.5t-15.5 -61q-21 -44 -69.5 -68.5t-114.5 -24.5q-30 0 -55 4q7 -77 121 -77q53 0 106.5 28t88.5 94q1 4 7 4q11 0 25.5 -11t11.5 -16q-57 -103 -129 -147.5t-167 -43.5q-122 1 -178 59t-48 145q10 106 86 168.5t184 62.5z
M269 330q-35 0 -57 -33t-32 -74q36 0 64.5 18t37.5 51q10 35 -13 38zM232 528l64 92q12 18 51 18q45 0 60 -18q7 -9 -1 -18l-91 -104q-10 -11 -35 -11q-26 0 -43.5 12t-4.5 29z" />
    <glyph glyph-name="ecircumflex" unicode="&#xea;" horiz-adv-x="478" 
d="M283 425q47 -1 81.5 -17.5t48.5 -42t16.5 -56.5t-15.5 -61q-21 -44 -69.5 -68.5t-114.5 -24.5q-30 0 -55 4q7 -77 121 -77q53 0 106.5 28t88.5 94q1 4 7 4q11 0 25.5 -11t11.5 -16q-57 -103 -129 -147.5t-167 -43.5q-122 1 -178 59t-48 145q10 106 86 168.5t184 62.5z
M269 330q-35 0 -57 -33t-32 -74q36 0 64.5 18t37.5 51q10 35 -13 38zM277 628q16 10 42 10q29 0 43 -11q12 -8 32.5 -29.5t41.5 -45t26 -28.5q15 -16 -21 -30q-21 -7 -42 -7t-28 8l-60 60l-80 -61q-9 -6 -22 -6q-28 0 -48.5 19t0.5 37q22 19 116 84z" />
    <glyph glyph-name="edieresis" unicode="&#xeb;" horiz-adv-x="478" 
d="M283 425q47 -1 81.5 -17.5t48.5 -42t16.5 -56.5t-15.5 -61q-21 -44 -69.5 -68.5t-114.5 -24.5q-30 0 -55 4q7 -77 121 -77q53 0 106.5 28t88.5 94q1 4 7 4q11 0 25.5 -11t11.5 -16q-57 -103 -129 -147.5t-167 -43.5q-122 1 -178 59t-48 145q10 106 86 168.5t184 62.5z
M269 330q-35 0 -57 -33t-32 -74q36 0 64.5 18t37.5 51q10 35 -13 38zM213 487q-35 0 -52 21t-15 48q5 27 26.5 47.5t55.5 21.5t51.5 -20.5t13.5 -49.5q-2 -26 -24 -47t-56 -21zM392 487q-37 0 -53 21t-12 48q3 30 26.5 49.5t54.5 19.5q35 0 51 -20.5t15 -48.5
q-2 -27 -24.5 -48t-57.5 -21z" />
    <glyph glyph-name="igrave" unicode="&#xec;" horiz-adv-x="265" 
d="M83 411q6 18 80 18q36 0 61 -6.5t21 -18.5q-53 -143 -85 -246q-12 -33 -11 -54t19 -20q20 1 54 36t57 84q1 4 7 4q11 0 25 -11t11 -17q-37 -71 -94 -126.5t-125 -60.5q-3 0 -8.5 -0.5t-7.5 -0.5q-126 0 -94 135q25 107 90 284zM167 614l64 -92q12 -17 -4 -29t-41 -12
q-24 0 -34 11l-91 104q-15 18 19 30q18 6 38 6q37 0 49 -18z" />
    <glyph glyph-name="iacute" unicode="&#xed;" horiz-adv-x="265" 
d="M83 411q6 18 80 18q36 0 61 -6.5t21 -18.5q-53 -143 -85 -246q-12 -33 -11 -54t19 -20q20 1 54 36t57 84q1 4 7 4q11 0 25 -11t11 -17q-37 -71 -94 -126.5t-125 -60.5q-3 0 -8.5 -0.5t-7.5 -0.5q-126 0 -94 135q25 107 90 284zM123 523l64 92q12 18 51 18q45 0 60 -18
q7 -9 -1 -18l-91 -104q-10 -11 -35 -11q-26 0 -43.5 12t-4.5 29z" />
    <glyph glyph-name="icircumflex" unicode="&#xee;" horiz-adv-x="265" 
d="M83 411q6 18 80 18q36 0 61 -6.5t21 -18.5q-53 -143 -85 -246q-12 -33 -11 -54t19 -20q20 1 54 36t57 84q1 4 7 4q11 0 25 -11t11 -17q-37 -71 -94 -126.5t-125 -60.5q-3 0 -8.5 -0.5t-7.5 -0.5q-126 0 -94 135q25 107 90 284zM168 623q16 10 42 10q29 0 43 -11
q12 -8 32.5 -29.5t41.5 -45t26 -28.5q15 -16 -21 -30q-21 -7 -42 -7t-28 8l-60 60l-80 -61q-9 -6 -22 -6q-28 0 -48.5 19t0.5 37q22 19 116 84z" />
    <glyph glyph-name="idieresis" unicode="&#xef;" horiz-adv-x="265" 
d="M83 411q6 18 80 18q36 0 61 -6.5t21 -18.5q-53 -143 -85 -246q-12 -33 -11 -54t19 -20q20 1 54 36t57 84q1 4 7 4q11 0 25 -11t11 -17q-37 -71 -94 -126.5t-125 -60.5q-3 0 -8.5 -0.5t-7.5 -0.5q-126 0 -94 135q25 107 90 284zM104 482q-35 0 -52 21t-15 48
q5 27 26.5 47.5t55.5 21.5t51.5 -20.5t13.5 -49.5q-2 -26 -24 -47t-56 -21zM283 482q-37 0 -53 21t-12 48q3 30 26.5 49.5t54.5 19.5q35 0 51 -20.5t15 -48.5q-2 -27 -24.5 -48t-57.5 -21z" />
    <glyph glyph-name="eth" unicode="&#xf0;" horiz-adv-x="504" 
d="M154 -10q-78 3 -119.5 62.5t-18.5 160.5q17 73 61.5 125.5t97 76t106.5 23.5q41 0 74 -15q14 47 12 86l-71 -22q-2 -1 -7 -1q-21 0 -27.5 30t13.5 36q12 4 37 12t38 12q-11 19 -32 28t-36.5 10.5t-43.5 1.5q-24 0 -25 36.5t20 42.5q22 5 43 5q58 0 106.5 -22.5
t74.5 -68.5q6 2 20 7t20 7q12 0 22 -14t9.5 -30.5t-13.5 -20.5q-15 -4 -36 -12q12 -90 -11 -196q-38 -165 -91 -245q5 -1 16 -1q76 0 124 101q1 3 6 3q10 0 24 -11t12 -16q-62 -131 -184 -131q-21 0 -42 3q-77 -63 -179 -63zM177 91q28 0 47 14q-9 22 4.5 44t37.5 22h4
q38 61 67 164q-21 6 -42 6q-95 0 -135 -113q-20 -57 -15 -96t32 -41z" />
    <glyph glyph-name="ntilde" unicode="&#xf1;" horiz-adv-x="529" 
d="M371 428q57 -1 76.5 -36t4.5 -97q-4 -18 -20.5 -70t-21.5 -77q-6 -28 -2 -46t17 -18q27 0 60.5 35t57.5 85q1 4 7 4q11 0 25 -11t11 -17q-99 -188 -239 -188q-131 0 -98 133q25 96 37 151q9 41 -15 41q-1 0 -3 -0.5t-4 -0.5q-28 -4 -71 -39q-11 -34 -69 -268
q-13 -19 -81 -19q-72 0 -80 25q33 145 114 406q19 12 60 12q69 0 90 -30q-3 -8 -8 -25t-8 -25q98 76 160 75zM338 495q-23 1 -59 18t-49 17q-30 0 -51 -28q-3 -3 -7 -3q-15 0 -35 18t-14 31q15 34 44 54t65 20q23 -1 57 -17.5t51 -16.5q30 0 52 25q3 3 7 3q14 0 30 -19
t10 -32q-15 -31 -41.5 -50.5t-59.5 -19.5z" />
    <glyph glyph-name="ograve" unicode="&#xf2;" horiz-adv-x="535" 
d="M286 428q89 -1 134.5 -51t41 -124t-50.5 -149q2 0 5.5 -0.5t5.5 -0.5q35 0 69.5 26.5t57.5 74.5q1 4 8 4q11 0 25 -10.5t10 -17.5q-68 -132 -191 -132q-1 0 -40 3q-74 -61 -180 -61q-97 0 -145 54t-21 169q25 105 99.5 160.5t171.5 54.5zM264 335q-51 -1 -83 -119
q-8 -29 -11.5 -47t-4.5 -41t8.5 -34.5t30.5 -11.5q20 0 36 16q-12 23 1.5 47.5t38.5 25.5q23 62 21 113.5t-37 50.5zM276 618l64 -92q12 -17 -4 -29t-41 -12q-24 0 -34 11l-91 104q-15 18 19 30q18 6 38 6q37 0 49 -18z" />
    <glyph glyph-name="oacute" unicode="&#xf3;" horiz-adv-x="535" 
d="M286 428q89 -1 134.5 -51t41 -124t-50.5 -149q2 0 5.5 -0.5t5.5 -0.5q35 0 69.5 26.5t57.5 74.5q1 4 8 4q11 0 25 -10.5t10 -17.5q-68 -132 -191 -132q-1 0 -40 3q-74 -61 -180 -61q-97 0 -145 54t-21 169q25 105 99.5 160.5t171.5 54.5zM264 335q-51 -1 -83 -119
q-8 -29 -11.5 -47t-4.5 -41t8.5 -34.5t30.5 -11.5q20 0 36 16q-12 23 1.5 47.5t38.5 25.5q23 62 21 113.5t-37 50.5zM232 527l64 92q12 18 51 18q45 0 60 -18q7 -9 -1 -18l-91 -104q-10 -11 -35 -11q-26 0 -43.5 12t-4.5 29z" />
    <glyph glyph-name="ocircumflex" unicode="&#xf4;" horiz-adv-x="535" 
d="M286 428q89 -1 134.5 -51t41 -124t-50.5 -149q2 0 5.5 -0.5t5.5 -0.5q35 0 69.5 26.5t57.5 74.5q1 4 8 4q11 0 25 -10.5t10 -17.5q-68 -132 -191 -132q-1 0 -40 3q-74 -61 -180 -61q-97 0 -145 54t-21 169q25 105 99.5 160.5t171.5 54.5zM264 335q-51 -1 -83 -119
q-8 -29 -11.5 -47t-4.5 -41t8.5 -34.5t30.5 -11.5q20 0 36 16q-12 23 1.5 47.5t38.5 25.5q23 62 21 113.5t-37 50.5zM277 627q16 10 42 10q29 0 43 -11q12 -8 32.5 -29.5t41.5 -45t26 -28.5q15 -16 -21 -30q-21 -7 -42 -7t-28 8l-60 60l-80 -61q-9 -6 -22 -6q-28 0 -48.5 19
t0.5 37q22 19 116 84z" />
    <glyph glyph-name="otilde" unicode="&#xf5;" horiz-adv-x="535" 
d="M286 428q89 -1 134.5 -51t41 -124t-50.5 -149q2 0 5.5 -0.5t5.5 -0.5q35 0 69.5 26.5t57.5 74.5q1 4 8 4q11 0 25 -10.5t10 -17.5q-68 -132 -191 -132q-1 0 -40 3q-74 -61 -180 -61q-97 0 -145 54t-21 169q25 105 99.5 160.5t171.5 54.5zM264 335q-51 -1 -83 -119
q-8 -29 -11.5 -47t-4.5 -41t8.5 -34.5t30.5 -11.5q20 0 36 16q-12 23 1.5 47.5t38.5 25.5q23 62 21 113.5t-37 50.5zM339 495q-23 1 -59 18t-49 17q-30 0 -51 -28q-3 -3 -7 -3q-15 0 -35 18t-14 31q15 34 44 54t65 20q23 -1 57 -17.5t51 -16.5q30 0 52 25q3 3 7 3
q14 0 30 -19t10 -32q-15 -31 -41.5 -50.5t-59.5 -19.5z" />
    <glyph glyph-name="odieresis" unicode="&#xf6;" horiz-adv-x="535" 
d="M286 428q89 -1 134.5 -51t41 -124t-50.5 -149q2 0 5.5 -0.5t5.5 -0.5q35 0 69.5 26.5t57.5 74.5q1 4 8 4q11 0 25 -10.5t10 -17.5q-68 -132 -191 -132q-1 0 -40 3q-74 -61 -180 -61q-97 0 -145 54t-21 169q25 105 99.5 160.5t171.5 54.5zM264 335q-51 -1 -83 -119
q-8 -29 -11.5 -47t-4.5 -41t8.5 -34.5t30.5 -11.5q20 0 36 16q-12 23 1.5 47.5t38.5 25.5q23 62 21 113.5t-37 50.5zM213 486q-35 0 -52 21t-15 48q5 27 26.5 47.5t55.5 21.5t51.5 -20.5t13.5 -49.5q-2 -26 -24 -47t-56 -21zM392 486q-37 0 -53 21t-12 48q3 30 26.5 49.5
t54.5 19.5q35 0 51 -20.5t15 -48.5q-2 -27 -24.5 -48t-57.5 -21z" />
    <glyph glyph-name="divide" unicode="&#xf7;" horiz-adv-x="551" 
d="M231 55q-30 0 -49.5 21t-17.5 50t24.5 49.5t52.5 20.5q31 0 49 -20.5t16 -49.5t-24 -50t-51 -21zM436 247l-310 -1q-18 0 -24 24t4 48.5t31 24.5h303q21 0 28 -24t-2.5 -48t-29.5 -24zM323 393q-30 0 -49.5 21t-17.5 50t24.5 49.5t52.5 20.5q31 0 49 -20.5t16 -49.5
t-24 -50t-51 -21z" />
    <glyph glyph-name="oslash" unicode="&#xf8;" horiz-adv-x="562" 
d="M162 -79q-9 -20 -36 -20q-20 0 -31.5 12t-0.5 30q6 10 29 58q-66 17 -98 72t-13 140q21 98 99 157t179 59q4 0 11 -0.5t10 -0.5q15 31 32 59q8 15 28 15t32.5 -14t1.5 -32q-8 -13 -22 -40q97 -24 117 -119t-42 -193q72 3 118 100q1 4 7 4q11 0 25.5 -10.5t10.5 -17.5
q-37 -73 -79.5 -102.5t-94.5 -29.5q-17 0 -37 3q-60 -60 -182 -60q-19 0 -28 1q-19 -42 -36 -71zM170 99q14 33 46.5 114.5t50.5 121.5q-37 -4 -67 -37t-44 -82q-23 -85 14 -117zM341 320l-103 -237q47 6 58 26q-12 22 1 41.5t39 20.5q23 38 25.5 80t-20.5 69z" />
    <glyph glyph-name="ugrave" unicode="&#xf9;" horiz-adv-x="527" 
d="M334 419q11 14 57 14q75 0 94 -31q-6 -25 -20 -73t-25 -87t-20 -78t-8.5 -61.5t12.5 -21.5q21 1 57 36.5t60 85.5q3 4 8 4q11 0 25 -10.5t10 -16.5q-18 -33 -39.5 -63t-51 -60.5t-65.5 -49t-73 -17.5q-39 1 -58.5 36.5t-7.5 87.5q-77 -124 -193 -124q-135 0 -100 152
q12 53 43.5 157t35.5 119q10 15 59 15q33 0 61 -8.5t31 -22.5q-1 -4 -21.5 -78t-30.5 -113q-22 -88 -22 -103q3 -19 17 -20q25 1 57.5 44t48.5 93q27 83 59 194zM277 618l64 -92q12 -17 -4 -29t-41 -12q-24 0 -34 11l-91 104q-15 18 19 30q18 6 38 6q37 0 49 -18z" />
    <glyph glyph-name="uacute" unicode="&#xfa;" horiz-adv-x="527" 
d="M334 419q11 14 57 14q75 0 94 -31q-6 -25 -20 -73t-25 -87t-20 -78t-8.5 -61.5t12.5 -21.5q21 1 57 36.5t60 85.5q3 4 8 4q11 0 25 -10.5t10 -16.5q-18 -33 -39.5 -63t-51 -60.5t-65.5 -49t-73 -17.5q-39 1 -58.5 36.5t-7.5 87.5q-77 -124 -193 -124q-135 0 -100 152
q12 53 43.5 157t35.5 119q10 15 59 15q33 0 61 -8.5t31 -22.5q-1 -4 -21.5 -78t-30.5 -113q-22 -88 -22 -103q3 -19 17 -20q25 1 57.5 44t48.5 93q27 83 59 194zM233 527l64 92q12 18 51 18q45 0 60 -18q7 -9 -1 -18l-91 -104q-10 -11 -35 -11q-26 0 -43.5 12t-4.5 29z" />
    <glyph glyph-name="ucircumflex" unicode="&#xfb;" horiz-adv-x="527" 
d="M334 419q11 14 57 14q75 0 94 -31q-6 -25 -20 -73t-25 -87t-20 -78t-8.5 -61.5t12.5 -21.5q21 1 57 36.5t60 85.5q3 4 8 4q11 0 25 -10.5t10 -16.5q-18 -33 -39.5 -63t-51 -60.5t-65.5 -49t-73 -17.5q-39 1 -58.5 36.5t-7.5 87.5q-77 -124 -193 -124q-135 0 -100 152
q12 53 43.5 157t35.5 119q10 15 59 15q33 0 61 -8.5t31 -22.5q-1 -4 -21.5 -78t-30.5 -113q-22 -88 -22 -103q3 -19 17 -20q25 1 57.5 44t48.5 93q27 83 59 194zM278 627q16 10 42 10q29 0 43 -11q12 -8 32.5 -29.5t41.5 -45t26 -28.5q15 -16 -21 -30q-21 -7 -42 -7t-28 8
l-60 60l-80 -61q-9 -6 -22 -6q-28 0 -48.5 19t0.5 37q22 19 116 84z" />
    <glyph glyph-name="udieresis" unicode="&#xfc;" horiz-adv-x="527" 
d="M334 419q11 14 57 14q75 0 94 -31q-6 -25 -20 -73t-25 -87t-20 -78t-8.5 -61.5t12.5 -21.5q21 1 57 36.5t60 85.5q3 4 8 4q11 0 25 -10.5t10 -16.5q-18 -33 -39.5 -63t-51 -60.5t-65.5 -49t-73 -17.5q-39 1 -58.5 36.5t-7.5 87.5q-77 -124 -193 -124q-135 0 -100 152
q12 53 43.5 157t35.5 119q10 15 59 15q33 0 61 -8.5t31 -22.5q-1 -4 -21.5 -78t-30.5 -113q-22 -88 -22 -103q3 -19 17 -20q25 1 57.5 44t48.5 93q27 83 59 194zM214 486q-35 0 -52 21t-15 48q5 27 26.5 47.5t55.5 21.5t51.5 -20.5t13.5 -49.5q-2 -26 -24 -47t-56 -21z
M393 486q-37 0 -53 21t-12 48q3 30 26.5 49.5t54.5 19.5q35 0 51 -20.5t15 -48.5q-2 -27 -24.5 -48t-57.5 -21z" />
    <glyph glyph-name="yacute" unicode="&#xfd;" horiz-adv-x="531" 
d="M124 -297q-63 0 -100 32t-30 86q4 27 14.5 48.5t29.5 37t37.5 26.5t48 19.5t50 13t55.5 11.5q20 47 40 112q-69 -97 -171 -97q-142 0 -99 161q37 140 77 266q12 14 58 14q31 0 59 -8t33 -22q-24 -81 -63 -239q-19 -77 5 -77q30 6 60 47.5t47 90.5q33 97 58 193
q14 14 56 14q33 0 62 -8.5t34 -22.5q-46 -164 -107 -385q50 21 84.5 61.5t83.5 127.5q2 3 7 3q10 0 24.5 -10.5t10.5 -17.5q-58 -106 -107.5 -158t-122.5 -80q-15 -48 -26 -76.5t-26 -59.5t-30.5 -47.5t-37.5 -30.5t-49.5 -19.5t-64.5 -5.5zM140 -202h5q32 4 49 47
q6 17 16 57q-47 -13 -73 -39q-19 -19 -20 -41.5t23 -23.5zM227 528l64 92q12 18 51 18q45 0 60 -18q7 -9 -1 -18l-91 -104q-10 -11 -35 -11q-26 0 -43.5 12t-4.5 29z" />
    <glyph glyph-name="thorn" unicode="&#xfe;" horiz-adv-x="528" 
d="M542 204q1 4 7 4q11 0 25.5 -10.5t10.5 -17.5q-67 -131 -185 -131q-10 0 -26 2q-61 -58 -147 -58q-59 0 -104 29q-24 -87 -72 -297q-2 -9 -27.5 -15t-57.5 -6q-33 0 -54.5 7t-17.5 20q14 53 37 143.5t34 135t30 118t29 111t25 95.5t24 90t21 74.5t20.5 69.5t17.5 55.5
t17 50.5q6 15 62 15q74 0 99 -19q7 -6 6 -12q-38 -107 -91 -278q59 47 144 47q62 -3 86.5 -62t10.5 -134t-53 -128q40 3 74 29.5t55 71.5zM273 169l6 -1q27 62 27.5 102t-23.5 45q-3 1 -12 1q-37 0 -74 -29q-11 -33 -27.5 -95.5t-22.5 -81.5q26 -26 63 -26q18 0 32 9
q-16 23 -3 49.5t34 26.5z" />
    <glyph glyph-name="ydieresis" unicode="&#xff;" horiz-adv-x="531" 
d="M124 -297q-63 0 -100 32t-30 86q4 27 14.5 48.5t29.5 37t37.5 26.5t48 19.5t50 13t55.5 11.5q20 47 40 112q-69 -97 -171 -97q-142 0 -99 161q37 140 77 266q12 14 58 14q31 0 59 -8t33 -22q-24 -81 -63 -239q-19 -77 5 -77q30 6 60 47.5t47 90.5q33 97 58 193
q14 14 56 14q33 0 62 -8.5t34 -22.5q-46 -164 -107 -385q50 21 84.5 61.5t83.5 127.5q2 3 7 3q10 0 24.5 -10.5t10.5 -17.5q-58 -106 -107.5 -158t-122.5 -80q-15 -48 -26 -76.5t-26 -59.5t-30.5 -47.5t-37.5 -30.5t-49.5 -19.5t-64.5 -5.5zM140 -202h5q32 4 49 47
q6 17 16 57q-47 -13 -73 -39q-19 -19 -20 -41.5t23 -23.5zM208 487q-35 0 -52 21t-15 48q5 27 26.5 47.5t55.5 21.5t51.5 -20.5t13.5 -49.5q-2 -26 -24 -47t-56 -21zM387 487q-37 0 -53 21t-12 48q3 30 26.5 49.5t54.5 19.5q35 0 51 -20.5t15 -48.5q-2 -27 -24.5 -48
t-57.5 -21z" />
    <glyph glyph-name="Amacron" unicode="&#x100;" horiz-adv-x="917" 
d="M255 -8q-95 0 -139.5 41.5t-33.5 116.5q13 86 96.5 134t201.5 48q4 0 13 -0.5t14 -0.5q4 8 16 35.5t15.5 35t14 30.5t14.5 31t14 27.5t15.5 28.5t15.5 25t18.5 26.5t19 24t22.5 26.5q63 70 157 70q46 0 80 -21.5t42 -60.5q19 -94 -41 -315q97 2 135 32q7 5 11 5
q13 0 22.5 -19t3.5 -25q-55 -55 -182 -67q-20 -78 -43 -198q-23 -27 -85 -27t-82 26q12 81 43 198l-104 7q-24 -57 -45 -93.5t-53 -71.5t-75.5 -52t-100.5 -17zM268 83q27 1 50.5 38.5t52.5 114.5q-45 0 -82 -21.5t-49 -62.5q-9 -23 -2.5 -46.5t30.5 -22.5zM651 302
q58 202 64 258q3 26 -13 26q-42 0 -139 -276q13 -2 44.5 -4t43.5 -4zM676 772h-41q-17 0 -20.5 21.5t6.5 42.5t26 21q46 -1 159 -1h68q17 0 19.5 -21t-7 -41.5t-23.5 -20.5q-30 0 -94 -0.5t-93 -0.5z" />
    <glyph glyph-name="amacron" unicode="&#x101;" horiz-adv-x="549" 
d="M323 429q136 0 202 -67q7 -15 -16 -44.5t-39 -29.5h-2q-57 45 -150 45q-45 -2 -84.5 -37t-58.5 -87q-34 -92 -8 -116q7 -7 17 -7q30 0 65.5 63.5t61.5 132.5q12 9 38 9q30 0 61.5 -11t38.5 -24q-20 -64 -27 -94q-20 -80 16 -78q24 1 63 36.5t62 82.5q1 4 8 4
q11 0 25 -10.5t10 -16.5q-47 -87 -110.5 -137.5t-134.5 -50.5q-39 0 -56 32t-11 87q-31 -58 -70.5 -88.5t-99.5 -30.5q-58 0 -96.5 36t-26.5 124q16 116 110.5 196.5t211.5 80.5zM266 506h-41q-17 0 -20.5 21.5t6.5 42.5t26 21q46 -1 159 -1h68q17 0 19.5 -21t-7 -41.5
t-23.5 -20.5q-30 0 -94 -0.5t-93 -0.5z" />
    <glyph glyph-name="Abreve" unicode="&#x102;" horiz-adv-x="917" 
d="M255 -8q-95 0 -139.5 41.5t-33.5 116.5q13 86 96.5 134t201.5 48q4 0 13 -0.5t14 -0.5q4 8 16 35.5t15.5 35t14 30.5t14.5 31t14 27.5t15.5 28.5t15.5 25t18.5 26.5t19 24t22.5 26.5q63 70 157 70q46 0 80 -21.5t42 -60.5q19 -94 -41 -315q97 2 135 32q7 5 11 5
q13 0 22.5 -19t3.5 -25q-55 -55 -182 -67q-20 -78 -43 -198q-23 -27 -85 -27t-82 26q12 81 43 198l-104 7q-24 -57 -45 -93.5t-53 -71.5t-75.5 -52t-100.5 -17zM268 83q27 1 50.5 38.5t52.5 114.5q-45 0 -82 -21.5t-49 -62.5q-9 -23 -2.5 -46.5t30.5 -22.5zM651 302
q58 202 64 258q3 26 -13 26q-42 0 -139 -276q13 -2 44.5 -4t43.5 -4zM748 752q-61 0 -100.5 35.5t-33.5 97.5q1 19 38 19q32 0 34 -15q6 -53 65 -53q60 0 84 55q6 13 30 13q19 0 34 -8t11 -21q-14 -58 -58 -90.5t-104 -32.5z" />
    <glyph glyph-name="abreve" unicode="&#x103;" horiz-adv-x="549" 
d="M323 429q136 0 202 -67q7 -15 -16 -44.5t-39 -29.5h-2q-57 45 -150 45q-45 -2 -84.5 -37t-58.5 -87q-34 -92 -8 -116q7 -7 17 -7q30 0 65.5 63.5t61.5 132.5q12 9 38 9q30 0 61.5 -11t38.5 -24q-20 -64 -27 -94q-20 -80 16 -78q24 1 63 36.5t62 82.5q1 4 8 4
q11 0 25 -10.5t10 -16.5q-47 -87 -110.5 -137.5t-134.5 -50.5q-39 0 -56 32t-11 87q-31 -58 -70.5 -88.5t-99.5 -30.5q-58 0 -96.5 36t-26.5 124q16 116 110.5 196.5t211.5 80.5zM338 486q-61 0 -100.5 35.5t-33.5 97.5q1 19 38 19q32 0 34 -15q6 -53 65 -53q60 0 84 55
q6 13 30 13q19 0 34 -8t11 -21q-14 -58 -58 -90.5t-104 -32.5z" />
    <glyph glyph-name="Aogonek" unicode="&#x104;" horiz-adv-x="926" 
d="M801 -153q-20 -35 -54 -54.5t-69 -19.5q-42 0 -68.5 27.5t-22.5 77.5q7 60 56 119q-39 5 -53 24q12 81 43 198q-18 1 -52 3.5t-52 3.5q-24 -57 -45 -93.5t-53 -71.5t-75.5 -52t-100.5 -17q-95 0 -139.5 41.5t-33.5 116.5q13 86 96.5 134t201.5 48q4 0 13 -0.5t14 -0.5
q47 105 85.5 172.5t92.5 127.5q56 62 142 62q47 0 81.5 -22t42.5 -62q19 -95 -41 -315q97 2 135 32q7 5 11 5q13 0 22.5 -19t3.5 -25q-55 -55 -182 -67q-20 -78 -43 -198q-3 -3 -13 -11q-21 -16 -34.5 -52.5t-13.5 -67.5q0 -32 20 -32q19 0 49 31q6 6 12 6q13 0 21.5 -19.5
t2.5 -29.5zM268 83q27 1 50.5 38.5t52.5 114.5q-45 0 -82 -21.5t-49 -62.5q-9 -23 -2.5 -46.5t30.5 -22.5zM651 302q58 202 64 258q3 26 -13 26q-42 0 -139 -276q13 -2 44.5 -4t43.5 -4z" />
    <glyph glyph-name="aogonek" unicode="&#x105;" horiz-adv-x="538" 
d="M523 -153q-20 -35 -54 -54.5t-69 -19.5q-42 0 -68 27.5t-22 77.5q6 60 52 114q-92 0 -68 119q-31 -58 -70.5 -88.5t-99.5 -30.5q-58 0 -96.5 36t-26.5 124q16 116 110.5 196.5t211.5 80.5q136 0 202 -67q12 -12 -11 -44t-40 -32q-64 47 -156 47q-45 -2 -84.5 -37
t-58.5 -87q-34 -92 -8 -116q7 -7 17 -7q30 0 65.5 63.5t61.5 132.5q4 13 34 13q21 0 46.5 -6.5t42.5 -15.5t15 -17q-20 -64 -27 -94q-20 -80 16 -78q23 1 57 36t57 84q1 4 7 4q11 0 25.5 -11t10.5 -17q-26 -53 -104 -143q-33 -38 -53 -78t-20 -68q0 -32 20 -32q19 0 49 31
q6 6 12 6q13 0 21.5 -19.5t2.5 -29.5z" />
    <glyph glyph-name="Cacute" unicode="&#x106;" horiz-adv-x="670" 
d="M562 691q93 -5 138 -52.5t32 -120.5q-11 -65 -70.5 -106t-140.5 -41q-100 0 -193 63q-34 -82 -31 -166q3 -97 49.5 -142t120.5 -45q66 0 125.5 33t90.5 90q3 4 8 4q11 0 25 -11t10 -17q-52 -97 -130 -143.5t-189 -46.5q-122 0 -200.5 77t-67.5 222q11 146 100 253
q-39 64 -45 127q-1 10 10.5 16.5t26.5 6.5q25 0 29 -13q19 -62 31 -83q109 96 249 96q4 0 11 -0.5t11 -0.5zM537 598q-100 0 -167 -90q50 -32 110 -32q42 0 71.5 19.5t33.5 58.5q2 18 -11.5 30.5t-36.5 13.5zM467 794l64 92q12 18 51 18q45 0 60 -18q7 -9 -1 -18l-91 -104
q-10 -11 -35 -11q-26 0 -43.5 12t-4.5 29z" />
    <glyph glyph-name="cacute" unicode="&#x107;" horiz-adv-x="436" 
d="M283 426q42 -1 71 -12t42.5 -28t18 -38t0 -42t-15.5 -40q-21 -29 -84 -29q-52 0 -59 23q6 11 9 18t8.5 21.5t4 23t-10.5 9.5q-26 0 -47 -27t-31 -57t-12 -56q-4 -52 23.5 -80t73.5 -28h7q113 7 169 120q1 4 7 4q10 0 24.5 -11t11.5 -16q-52 -99 -122.5 -143.5
t-178.5 -44.5q-79 3 -131 57.5t-50 132.5q2 101 78.5 172.5t193.5 70.5zM221 528l64 92q12 18 51 18q45 0 60 -18q7 -9 -1 -18l-91 -104q-10 -11 -35 -11q-26 0 -43.5 12t-4.5 29z" />
    <glyph glyph-name="Cdotaccent" unicode="&#x10a;" horiz-adv-x="670" 
d="M562 691q93 -5 138 -52.5t32 -120.5q-11 -65 -70.5 -106t-140.5 -41q-100 0 -193 63q-34 -82 -31 -166q3 -97 49.5 -142t120.5 -45q66 0 125.5 33t90.5 90q3 4 8 4q11 0 25 -11t10 -17q-52 -97 -130 -143.5t-189 -46.5q-122 0 -200.5 77t-67.5 222q11 146 100 253
q-39 64 -45 127q-1 10 10.5 16.5t26.5 6.5q25 0 29 -13q19 -62 31 -83q109 96 249 96q4 0 11 -0.5t11 -0.5zM537 598q-100 0 -167 -90q50 -32 110 -32q42 0 71.5 19.5t33.5 58.5q2 18 -11.5 30.5t-36.5 13.5zM527 758q-39 0 -55.5 22t-11.5 49q6 29 28.5 50t58.5 22
q35 1 52.5 -21.5t12.5 -51.5q-4 -27 -27 -48.5t-58 -21.5z" />
    <glyph glyph-name="cdotaccent" unicode="&#x10b;" horiz-adv-x="436" 
d="M283 426q42 -1 71 -12t42.5 -28t18 -38t0 -42t-15.5 -40q-21 -29 -84 -29q-52 0 -59 23q6 11 9 18t8.5 21.5t4 23t-10.5 9.5q-26 0 -47 -27t-31 -57t-12 -56q-4 -52 23.5 -80t73.5 -28h7q113 7 169 120q1 4 7 4q10 0 24.5 -11t11.5 -16q-52 -99 -122.5 -143.5
t-178.5 -44.5q-79 3 -131 57.5t-50 132.5q2 101 78.5 172.5t193.5 70.5zM281 492q-39 0 -55.5 22t-11.5 49q6 29 28.5 50t58.5 22q35 1 52.5 -21.5t12.5 -51.5q-4 -27 -27 -48.5t-58 -21.5z" />
    <glyph glyph-name="Ccaron" unicode="&#x10c;" horiz-adv-x="670" 
d="M562 691q93 -5 138 -52.5t32 -120.5q-11 -65 -70.5 -106t-140.5 -41q-100 0 -193 63q-34 -82 -31 -166q3 -97 49.5 -142t120.5 -45q66 0 125.5 33t90.5 90q3 4 8 4q11 0 25 -11t10 -17q-52 -97 -130 -143.5t-189 -46.5q-122 0 -200.5 77t-67.5 222q11 146 100 253
q-39 64 -45 127q-1 10 10.5 16.5t26.5 6.5q25 0 29 -13q19 -62 31 -83q109 96 249 96q4 0 11 -0.5t11 -0.5zM537 598q-100 0 -167 -90q50 -32 110 -32q42 0 71.5 19.5t33.5 58.5q2 18 -11.5 30.5t-36.5 13.5zM565 763q-16 -10 -42 -10q-29 0 -43 11q-12 8 -32.5 29.5
t-41.5 45t-26 28.5q-15 16 19 29q20 8 41 8t28 -8l57 -63l86 64q9 6 22 6q28 0 48.5 -19t-0.5 -37q-22 -19 -116 -84z" />
    <glyph glyph-name="ccaron" unicode="&#x10d;" horiz-adv-x="436" 
d="M283 426q42 -1 71 -12t42.5 -28t18 -38t0 -42t-15.5 -40q-21 -29 -84 -29q-52 0 -59 23q6 11 9 18t8.5 21.5t4 23t-10.5 9.5q-26 0 -47 -27t-31 -57t-12 -56q-4 -52 23.5 -80t73.5 -28h7q113 7 169 120q1 4 7 4q10 0 24.5 -11t11.5 -16q-52 -99 -122.5 -143.5
t-178.5 -44.5q-79 3 -131 57.5t-50 132.5q2 101 78.5 172.5t193.5 70.5zM319 497q-16 -10 -42 -10q-29 0 -43 11q-12 8 -32.5 29.5t-41.5 45t-26 28.5q-15 16 19 29q20 8 41 8t28 -8l57 -63l86 64q9 6 22 6q28 0 48.5 -19t-0.5 -37q-22 -19 -116 -84z" />
    <glyph glyph-name="Dcaron" unicode="&#x10e;" horiz-adv-x="948" 
d="M568 692q67 -2 126 -22t108.5 -59.5t78 -106.5t25.5 -154q-3 -94 -33.5 -172.5t-99 -132t-164.5 -53.5q-89 0 -179 63q-63 -63 -176 -63q-86 0 -135.5 32t-44.5 91q4 55 48 84t106 29q69 0 127 -32q14 34 38.5 118t49.5 143t60 89q18 12 50 12q27 0 50 -8t25 -19
q-40 -56 -86.5 -203.5t-73.5 -194.5q67 -49 129 -49q43 0 75 27.5t47.5 72t23 86t7.5 81.5q1 52 -7 93t-29.5 78t-65.5 57.5t-108 20.5q-39 0 -79 -13t-71 -38t-43.5 -60t3.5 -80q-2 -16 -28 -38.5t-56 -22.5q-9 0 -18 3q-60 32 -63 103t49 127q101 111 334 111zM256 149
q-38 -3 -45 -31q-5 -23 16 -33q7 -4 15 -4q25 0 48.5 13t35.5 35q-35 20 -70 20zM642 763q-16 -10 -42 -10q-29 0 -43 11q-12 8 -32.5 29.5t-41.5 45t-26 28.5q-15 16 19 29q20 8 41 8t28 -8l57 -63l86 64q9 6 22 6q28 0 48.5 -19t-0.5 -37q-22 -19 -116 -84z" />
    <glyph glyph-name="dcaron" unicode="&#x10f;" horiz-adv-x="557" 
d="M125 -8q-83 -1 -111 60t-2.5 142.5t84.5 142.5q88 92 230 92q16 0 24 -1q45 137 87 247q6 14 58 14q71 0 93 -18q7 -6 4 -12q-73 -170 -131.5 -374.5t-4.5 -201.5q22 1 57 37t58 84q1 4 7 4q11 0 25.5 -11t10.5 -17q-46 -88 -107.5 -138t-130.5 -50q-42 0 -65.5 31.5
t-18.5 87.5q-29 -53 -67.5 -85.5t-99.5 -33.5zM171 87q2 -1 8 -1q17 0 40 23t47 67q11 21 54 157q-73 -2 -120 -74q-15 -24 -29 -59.5t-17.5 -69.5t17.5 -43zM744 654l-55 -110q-11 -21 -42 -21q-17 0 -26.5 9t-3.5 25q5 17 19 55.5t20 55.5q7 23 45 23q22 0 36.5 -10.5
t6.5 -26.5z" />
    <glyph glyph-name="Dcroat" unicode="&#x110;" horiz-adv-x="948" 
d="M254 -8q-86 0 -135.5 32t-44.5 91q4 55 48 84t106 29q69 0 127 -32q8 19 22 63h-41q-11 9 -7 36t21 33h48q17 55 28 87.5t32 71t45 59.5q18 12 50 12q27 0 50 -8t25 -19q-41 -57 -86 -204h85q11 -8 6 -35.5t-17 -33.5h-97q-27 -83 -51 -125q67 -49 129 -49q43 0 75 27.5
t47.5 72t23 86t7.5 81.5q1 52 -7 93t-29.5 78t-65.5 57.5t-108 20.5q-39 0 -79 -13t-71 -38t-43.5 -60t3.5 -80q-2 -16 -28 -38.5t-56 -22.5q-9 0 -18 3q-60 32 -63 103t49 127q101 111 334 111q67 -2 126 -22t108.5 -59.5t78 -106.5t25.5 -154q-3 -94 -33.5 -172.5
t-99 -132t-164.5 -53.5q-89 0 -179 63q-63 -63 -176 -63zM242 81q25 0 48.5 13t35.5 35q-35 20 -70 20q-38 -3 -45 -31q-5 -23 16 -33q7 -4 15 -4z" />
    <glyph glyph-name="dcroat" unicode="&#x111;" horiz-adv-x="557" 
d="M571 204q1 4 7 4q11 0 25.5 -11t10.5 -17q-46 -88 -107.5 -138t-130.5 -50q-42 0 -65.5 31.5t-18.5 87.5q-29 -53 -67.5 -85.5t-99.5 -33.5q-83 -1 -111 60t-2.5 142.5t84.5 142.5q88 92 230 92q16 0 24 -1q15 45 33 97q-11 0 -32.5 0.5t-32.5 0.5q-10 0 -11 19t6 37.5
t18 18.5q48 0 78 -1q24 64 28 75q6 14 58 14q71 0 93 -18q7 -6 4 -12q-9 -21 -25 -61q28 -2 44 -2q15 1 8 -31q-11 -36 -28 -40h-52q-117 -320 -105 -413q3 -30 22 -29q22 1 57 37t58 84zM266 176q11 21 54 157q-73 -2 -120 -74q-15 -24 -29 -59.5t-17.5 -69.5t17.5 -43
q2 -1 8 -1q17 0 40 23t47 67z" />
    <glyph glyph-name="Emacron" unicode="&#x112;" horiz-adv-x="612" 
d="M301 684q4 -28 11 -42q61 52 165 52q80 0 136 -35.5t53 -100.5q-3 -70 -51 -101t-122 -31q-32 1 -65.5 15t-53.5 33q4 -40 33 -68.5t82 -36.5q14 -15 4 -48.5t-29 -38.5q-19 4 -45 4q-56 0 -98.5 -22.5t-50.5 -68.5q-6 -34 5 -57.5t35 -34.5t46.5 -15.5t48.5 -4.5
q69 0 128.5 31.5t92.5 89.5q3 5 8 5q11 0 24 -11.5t11 -16.5q-47 -93 -130.5 -141.5t-190.5 -48.5q-38 0 -73.5 6t-69.5 21.5t-57.5 38.5t-34.5 60t-4 84q13 78 72 120t132 45q-38 16 -56 59.5t-14.5 88.5t21.5 76q-21 40 -23 92q0 9 9.5 14.5t22.5 5.5q25 0 28 -18z
M392 549q41 -36 89 -36q45 2 48 45q1 17 -15 27.5t-39 10.5q-57 0 -83 -47zM406 772h-41q-17 0 -20.5 21.5t6.5 42.5t26 21q46 -1 159 -1h68q17 0 19.5 -21t-7 -41.5t-23.5 -20.5q-30 0 -94 -0.5t-93 -0.5z" />
    <glyph glyph-name="emacron" unicode="&#x113;" horiz-adv-x="478" 
d="M283 425q47 -1 81.5 -17.5t48.5 -42t16.5 -56.5t-15.5 -61q-21 -44 -69.5 -68.5t-114.5 -24.5q-30 0 -55 4q7 -77 121 -77q53 0 106.5 28t88.5 94q1 4 7 4q11 0 25.5 -11t11.5 -16q-57 -103 -129 -147.5t-167 -43.5q-122 1 -178 59t-48 145q10 106 86 168.5t184 62.5z
M269 330q-35 0 -57 -33t-32 -74q36 0 64.5 18t37.5 51q10 35 -13 38zM219 506h-41q-17 0 -20.5 21.5t6.5 42.5t26 21q46 -1 159 -1h68q17 0 19.5 -21t-7 -41.5t-23.5 -20.5q-30 0 -94 -0.5t-93 -0.5z" />
    <glyph glyph-name="Edotaccent" unicode="&#x116;" horiz-adv-x="612" 
d="M301 684q4 -28 11 -42q61 52 165 52q80 0 136 -35.5t53 -100.5q-3 -70 -51 -101t-122 -31q-32 1 -65.5 15t-53.5 33q4 -40 33 -68.5t82 -36.5q14 -15 4 -48.5t-29 -38.5q-19 4 -45 4q-56 0 -98.5 -22.5t-50.5 -68.5q-6 -34 5 -57.5t35 -34.5t46.5 -15.5t48.5 -4.5
q69 0 128.5 31.5t92.5 89.5q3 5 8 5q11 0 24 -11.5t11 -16.5q-47 -93 -130.5 -141.5t-190.5 -48.5q-38 0 -73.5 6t-69.5 21.5t-57.5 38.5t-34.5 60t-4 84q13 78 72 120t132 45q-38 16 -56 59.5t-14.5 88.5t21.5 76q-21 40 -23 92q0 9 9.5 14.5t22.5 5.5q25 0 28 -18z
M392 549q41 -36 89 -36q45 2 48 45q1 17 -15 27.5t-39 10.5q-57 0 -83 -47zM479 758q-39 0 -55.5 22t-11.5 49q6 29 28.5 50t58.5 22q35 1 52.5 -21.5t12.5 -51.5q-4 -27 -27 -48.5t-58 -21.5z" />
    <glyph glyph-name="edotaccent" unicode="&#x117;" horiz-adv-x="478" 
d="M283 425q47 -1 81.5 -17.5t48.5 -42t16.5 -56.5t-15.5 -61q-21 -44 -69.5 -68.5t-114.5 -24.5q-30 0 -55 4q7 -77 121 -77q53 0 106.5 28t88.5 94q1 4 7 4q11 0 25.5 -11t11.5 -16q-57 -103 -129 -147.5t-167 -43.5q-122 1 -178 59t-48 145q10 106 86 168.5t184 62.5z
M269 330q-35 0 -57 -33t-32 -74q36 0 64.5 18t37.5 51q10 35 -13 38zM292 492q-39 0 -55.5 22t-11.5 49q6 29 28.5 50t58.5 22q35 1 52.5 -21.5t12.5 -51.5q-4 -27 -27 -48.5t-58 -21.5z" />
    <glyph glyph-name="Eogonek" unicode="&#x118;" horiz-adv-x="611" 
d="M595 -153q-20 -35 -54 -54.5t-69 -19.5q-42 0 -68.5 27.5t-22.5 77.5q5 58 57 120q-50 -11 -95 -11q-32 0 -56 4q-90 14 -141 70t-38 140q13 78 72 120t132 45q-38 16 -56 59.5t-14.5 88.5t21.5 76q-21 40 -23 92q0 9 9.5 14.5t22.5 5.5q25 0 28 -18q4 -28 11 -42
q61 52 165 52q80 0 136 -35.5t53 -100.5q-3 -70 -51 -101t-122 -31q-32 1 -65.5 15t-53.5 33q4 -40 33 -68.5t82 -36.5q13 -15 3.5 -48.5t-28.5 -38.5q-19 4 -45 4q-56 0 -98.5 -22.5t-50.5 -68.5q-6 -34 5 -57.5t35 -34.5t46.5 -15.5t48.5 -4.5q69 0 128.5 31.5t92.5 89.5
q3 4 9 4q10 0 23 -11t11 -16q-24 -51 -70 -101q-108 -120 -108 -189q0 -32 20 -32q19 0 49 31q6 6 12 6q13 0 21.5 -19.5t2.5 -29.5zM528 558q1 17 -15 27.5t-39 10.5q-57 0 -83 -47q41 -36 83 -36q51 0 54 45z" />
    <glyph glyph-name="eogonek" unicode="&#x119;" horiz-adv-x="438" 
d="M416 -153q-20 -35 -54 -54.5t-69 -19.5q-42 0 -68.5 27.5t-22.5 77.5q5 59 56 118q-20 -3 -61 -3q-99 4 -146 60.5t-37 140.5q13 106 87.5 168.5t182.5 62.5q47 -1 81.5 -17.5t48.5 -42t16.5 -56.5t-15.5 -61q-21 -44 -69.5 -68.5t-114.5 -24.5q-30 0 -55 4q7 -76 89 -76
q125 0 187 121q2 3 7 3q10 0 24.5 -10.5t11.5 -15.5q-9 -18 -17 -31t-13 -21.5t-16.5 -21t-16 -17l-23 -23l-27.5 -27.5q-34 -35 -52.5 -77t-18.5 -72q0 -32 20 -32q19 0 49 31q6 6 12 6q13 0 21.5 -19.5t2.5 -29.5zM181 223q36 0 64.5 18t37.5 51q10 35 -13 38
q-35 0 -57 -33t-32 -74z" />
    <glyph glyph-name="Ecaron" unicode="&#x11a;" horiz-adv-x="612" 
d="M301 684q4 -28 11 -42q61 52 165 52q80 0 136 -35.5t53 -100.5q-3 -70 -51 -101t-122 -31q-32 1 -65.5 15t-53.5 33q4 -40 33 -68.5t82 -36.5q14 -15 4 -48.5t-29 -38.5q-19 4 -45 4q-56 0 -98.5 -22.5t-50.5 -68.5q-6 -34 5 -57.5t35 -34.5t46.5 -15.5t48.5 -4.5
q69 0 128.5 31.5t92.5 89.5q3 5 8 5q11 0 24 -11.5t11 -16.5q-47 -93 -130.5 -141.5t-190.5 -48.5q-38 0 -73.5 6t-69.5 21.5t-57.5 38.5t-34.5 60t-4 84q13 78 72 120t132 45q-38 16 -56 59.5t-14.5 88.5t21.5 76q-21 40 -23 92q0 9 9.5 14.5t22.5 5.5q25 0 28 -18z
M392 549q41 -36 89 -36q45 2 48 45q1 17 -15 27.5t-39 10.5q-57 0 -83 -47zM517 763q-16 -10 -42 -10q-29 0 -43 11q-12 8 -32.5 29.5t-41.5 45t-26 28.5q-15 16 19 29q20 8 41 8t28 -8l57 -63l86 64q9 6 22 6q28 0 48.5 -19t-0.5 -37q-22 -19 -116 -84z" />
    <glyph glyph-name="ecaron" unicode="&#x11b;" horiz-adv-x="478" 
d="M283 425q47 -1 81.5 -17.5t48.5 -42t16.5 -56.5t-15.5 -61q-21 -44 -69.5 -68.5t-114.5 -24.5q-30 0 -55 4q7 -77 121 -77q53 0 106.5 28t88.5 94q1 4 7 4q11 0 25.5 -11t11.5 -16q-57 -103 -129 -147.5t-167 -43.5q-122 1 -178 59t-48 145q10 106 86 168.5t184 62.5z
M269 330q-35 0 -57 -33t-32 -74q36 0 64.5 18t37.5 51q10 35 -13 38zM330 497q-16 -10 -42 -10q-29 0 -43 11q-12 8 -32.5 29.5t-41.5 45t-26 28.5q-15 16 19 29q20 8 41 8t28 -8l57 -63l86 64q9 6 22 6q28 0 48.5 -19t-0.5 -37q-22 -19 -116 -84z" />
    <glyph glyph-name="Gbreve" unicode="&#x11e;" horiz-adv-x="703" 
d="M483 692q105 -1 158.5 -64t18.5 -142q-27 -60 -79 -90t-117 -30q-109 0 -197 69q-21 -46 -34 -99.5t-14 -105.5t23.5 -86.5t74.5 -35.5q35 0 63.5 15.5t49 44.5t33 55t25.5 63q6 18 67 18q34 0 57 -8.5t18 -24.5q-47 -158 -73 -255q92 54 160 188q1 4 7 4q11 0 25 -11
t11 -17q-53 -99 -102.5 -153t-121.5 -83q-13 -48 -22.5 -76.5t-28.5 -64t-42 -54.5t-60 -32.5t-85 -13.5q-67 0 -108 29.5t-34 88.5q5 38 25 65.5t56.5 45t69 26.5t84.5 20l21 72q-47 -34 -127 -34q-94 3 -149.5 58.5t-64.5 135t18.5 170.5t87.5 164q-39 68 -46 133
q-1 9 8.5 14t23.5 5q33 0 36 -16q6 -40 30 -82q109 94 254 94zM475 600q-97 -1 -166 -93q47 -37 106 -37q38 0 66.5 17.5t38.5 52.5q8 25 -3.5 42.5t-41.5 17.5zM359 -151l18 58q-35 -9 -61 -28.5t-33 -37.5q-8 -23 -3 -34.5t19 -11.5q16 0 34 14.5t26 39.5zM468 752
q-61 0 -100.5 35.5t-33.5 97.5q1 19 38 19q32 0 34 -15q6 -53 65 -53q60 0 84 55q6 13 30 13q19 0 34 -8t11 -21q-14 -58 -58 -90.5t-104 -32.5z" />
    <glyph glyph-name="gbreve" unicode="&#x11f;" horiz-adv-x="545" 
d="M328 428q129 0 204 -66q6 -13 -16.5 -43.5t-38.5 -30.5h-2q-54 45 -157 45q-44 -2 -81.5 -36.5t-59.5 -87.5q-19 -46 -20 -79.5t13 -39.5q8 -4 13 -4q19 0 43 23t46 67q22 43 46 106q9 9 35 9q30 0 64.5 -11.5t38.5 -24.5q-18 -57 -37.5 -135.5t-26.5 -103.5q50 21 86 63
t82 126q2 3 6 3q11 0 25.5 -11t10.5 -18q-59 -106 -108.5 -157.5t-121.5 -79.5q-37 -113 -61 -152q-57 -86 -173 -87q-63 0 -100 32t-30 86q4 27 14.5 48.5t30 37t37.5 26.5t48 19.5t50.5 13t55.5 11.5q28 78 40 114q-59 -98 -157 -99q-74 -1 -106 50.5t-18.5 123.5
t62.5 133q47 62 116 95.5t147 33.5zM224 -98q-35 -9 -58 -26t-30 -35q-7 -20 -0.5 -31.5t20.5 -11.5q33 0 52 47q6 17 16 57zM354 485q-61 0 -100.5 35.5t-33.5 97.5q1 19 38 19q32 0 34 -15q6 -53 65 -53q60 0 84 55q6 13 30 13q19 0 34 -8t11 -21q-14 -58 -58 -90.5
t-104 -32.5z" />
    <glyph glyph-name="Gdotaccent" unicode="&#x120;" horiz-adv-x="703" 
d="M483 692q105 -1 158.5 -64t18.5 -142q-27 -60 -79 -90t-117 -30q-109 0 -197 69q-21 -46 -34 -99.5t-14 -105.5t23.5 -86.5t74.5 -35.5q35 0 63.5 15.5t49 44.5t33 55t25.5 63q6 18 67 18q34 0 57 -8.5t18 -24.5q-47 -158 -73 -255q92 54 160 188q1 4 7 4q11 0 25 -11
t11 -17q-53 -99 -102.5 -153t-121.5 -83q-13 -48 -22.5 -76.5t-28.5 -64t-42 -54.5t-60 -32.5t-85 -13.5q-67 0 -108 29.5t-34 88.5q5 38 25 65.5t56.5 45t69 26.5t84.5 20l21 72q-47 -34 -127 -34q-94 3 -149.5 58.5t-64.5 135t18.5 170.5t87.5 164q-39 68 -46 133
q-1 9 8.5 14t23.5 5q33 0 36 -16q6 -40 30 -82q109 94 254 94zM475 600q-97 -1 -166 -93q47 -37 106 -37q38 0 66.5 17.5t38.5 52.5q8 25 -3.5 42.5t-41.5 17.5zM359 -151l18 58q-35 -9 -61 -28.5t-33 -37.5q-8 -23 -3 -34.5t19 -11.5q16 0 34 14.5t26 39.5zM469 758
q-39 0 -55.5 22t-11.5 49q6 29 28.5 50t58.5 22q35 1 52.5 -21.5t12.5 -51.5q-4 -27 -27 -48.5t-58 -21.5z" />
    <glyph glyph-name="gdotaccent" unicode="&#x121;" horiz-adv-x="545" 
d="M328 428q129 0 204 -66q6 -13 -16.5 -43.5t-38.5 -30.5h-2q-54 45 -157 45q-44 -2 -81.5 -36.5t-59.5 -87.5q-19 -46 -20 -79.5t13 -39.5q8 -4 13 -4q19 0 43 23t46 67q22 43 46 106q9 9 35 9q30 0 64.5 -11.5t38.5 -24.5q-18 -57 -37.5 -135.5t-26.5 -103.5q50 21 86 63
t82 126q2 3 6 3q11 0 25.5 -11t10.5 -18q-59 -106 -108.5 -157.5t-121.5 -79.5q-37 -113 -61 -152q-57 -86 -173 -87q-63 0 -100 32t-30 86q4 27 14.5 48.5t30 37t37.5 26.5t48 19.5t50.5 13t55.5 11.5q28 78 40 114q-59 -98 -157 -99q-74 -1 -106 50.5t-18.5 123.5
t62.5 133q47 62 116 95.5t147 33.5zM224 -98q-35 -9 -58 -26t-30 -35q-7 -20 -0.5 -31.5t20.5 -11.5q33 0 52 47q6 17 16 57zM355 491q-39 0 -55.5 22t-11.5 49q6 29 28.5 50t58.5 22q35 1 52.5 -21.5t12.5 -51.5q-4 -27 -27 -48.5t-58 -21.5z" />
    <glyph glyph-name="Gcommaaccent" unicode="&#x122;" horiz-adv-x="703" 
d="M483 692q105 -1 158.5 -64t18.5 -142q-27 -60 -79 -90t-117 -30q-109 0 -197 69q-21 -46 -34 -99.5t-14 -105.5t23.5 -86.5t74.5 -35.5q35 0 63.5 15.5t49 44.5t33 55t25.5 63q6 18 67 18q34 0 57 -8.5t18 -24.5q-47 -158 -73 -255q92 54 160 188q1 4 7 4q11 0 25 -11
t11 -17q-53 -99 -102.5 -153t-121.5 -83q-13 -48 -22.5 -76.5t-28.5 -64t-42 -54.5t-60 -32.5t-85 -13.5q-67 0 -108 29.5t-34 88.5q5 38 25 65.5t56.5 45t69 26.5t84.5 20l21 72q-47 -34 -127 -34q-94 3 -149.5 58.5t-64.5 135t18.5 170.5t87.5 164q-39 68 -46 133
q-1 9 8.5 14t23.5 5q33 0 36 -16q6 -40 30 -82q109 94 254 94zM475 600q-97 -1 -166 -93q47 -37 106 -37q38 0 66.5 17.5t38.5 52.5q8 25 -3.5 42.5t-41.5 17.5zM359 -151l18 58q-35 -9 -61 -28.5t-33 -37.5q-8 -23 -3 -34.5t19 -11.5q16 0 34 14.5t26 39.5zM208 -518
l33 123q4 14 22.5 22t40.5 8q23 0 37 -8t8 -23l-50 -132q-10 -24 -51 -24q-20 0 -32 8.5t-8 25.5z" />
    <glyph glyph-name="gcommaaccent" unicode="&#x123;" horiz-adv-x="545" 
d="M328 428q129 0 204 -66q13 -12 -10 -44t-41 -32q-61 47 -163 47q-44 -2 -81.5 -36.5t-59.5 -87.5q-19 -46 -20 -79.5t13 -39.5q8 -4 13 -4q19 0 43 23t46 67q22 43 46 106q5 15 39 15q22 0 47 -6.5t41 -16.5t12 -19q-18 -57 -38.5 -137t-26.5 -102q50 21 86 63t82 126
q2 3 6 3q11 0 25.5 -11t10.5 -18q-59 -106 -108.5 -157.5t-121.5 -79.5q-37 -113 -61 -152q-57 -86 -173 -87q-63 0 -100 32t-30 86q4 27 14.5 48.5t30 37t37.5 26.5t48 19.5t50.5 13t55.5 11.5q10 21 21.5 59.5t18.5 54.5q-59 -98 -157 -99q-74 -1 -106 50.5t-18.5 123.5
t62.5 133q47 62 116 95.5t147 33.5zM224 -98q-35 -9 -58 -26t-30 -35q-7 -20 -0.5 -31.5t20.5 -11.5q33 0 52 47q6 17 16 57zM284 616q7 20 52 20q31 0 52.5 -10.5t13.5 -26.5l-49 -95q-9 -18 -49 -18q-25 0 -42.5 8.5t-12.5 22.5q17 50 35 99z" />
    <glyph glyph-name="Hbar" unicode="&#x126;" horiz-adv-x="950" 
d="M921 468l40 -1q12 -15 5 -48t-22 -40h-49q-28 -89 -31 -100q76 3 126 31q3 2 8 2q13 0 19 -19.5t-2 -24.5q-71 -50 -171 -58q-36 -122 -53 -189q-14 -25 -86 -25q-32 0 -55 8t-25 24q7 25 25.5 89.5t28.5 99.5q-17 2 -51.5 5.5t-52.5 5.5q-18 -47 -27.5 -70t-26.5 -56
t-33.5 -48.5t-42 -32t-58.5 -23t-76 -6.5q-105 -1 -147 48t-29 114q35 176 303 176q3 11 9 27t8 23h-40q-16 8 -7.5 45.5t28.5 42.5h51q17 48 41 106q-32 -33 -88 -33q-16 0 -47.5 3t-46.5 3q-36 0 -59 -14q-16 -10 -21 -26.5t1 -27.5q8 -19 29 -19q15 0 32 10
q18 -2 30 -23.5t7 -38.5q-40 -47 -110 -47q-37 0 -70 15.5t-51 44.5q-38 55 -18 119t89 90q48 18 94 18q30 0 78.5 -9t70.5 -9q61 0 115 49q16 13 60 13q36 0 66.5 -8.5t30.5 -19.5q-47 -130 -68 -195q17 0 51.5 -0.5t51.5 -0.5q58 168 67 192q7 13 55 13q36 0 67.5 -9
t34.5 -24q-34 -94 -58 -172zM322 82q27 -1 47 35.5t44 115.5q-55 -7 -80 -27t-39 -53q-11 -23 -2.5 -46.5t30.5 -24.5zM727 380h-104q-8 -23 -24 -71l101 -17q21 70 27 88z" />
    <glyph glyph-name="hbar" unicode="&#x127;" horiz-adv-x="528" 
d="M542 204q1 4 7 4q11 0 25.5 -11t10.5 -17q-96 -179 -228 -188q-3 0 -8.5 -0.5t-7.5 -0.5q-110 0 -94 113q8 58 46 172q14 43 -16 43h-5q-32 -3 -74 -42q-37 -133 -70 -269q-2 -8 -31 -14.5t-62 -6.5q-34 0 -55.5 8t-17.5 23q57 221 141 499h-34q-10 0 -10.5 18t8 35.5
t20.5 16.5h36l27 88q7 13 54 13q25 0 49.5 -4t41 -12.5t14.5 -18.5q-1 -5 -9 -28t-13 -40q55 0 65 1q15 1 9 -31q-7 -36 -25 -39q-2 0 -24 -0.5t-46 -0.5q-23 -77 -43 -153q90 66 154 66q63 0 83.5 -37t-0.5 -96q-3 -11 -10.5 -31.5t-14 -38.5t-13.5 -39.5t-10.5 -38.5
t-4.5 -32t4 -23t16 -8h2q24 1 58 37.5t55 82.5z" />
    <glyph glyph-name="Imacron" unicode="&#x12a;" horiz-adv-x="580" 
d="M479 667q25 20 87 20q64 0 78 -21q-4 -10 -130 -383q-2 -7 -7 -21q-15 -45 -23 -66.5t-22.5 -56.5t-27 -52t-33 -39t-43.5 -32t-54.5 -17.5t-70.5 -7.5q-111 -1 -157 73q-36 58 -12 121q24 60 90 73q29 0 57 -21.5t27 -46.5q-21 -22 -26.5 -48t4.5 -43t31 -17
q11 0 21 6.5t19 22t16.5 31t17 43.5t15.5 48.5t17 57.5t18 60q4 11 27 87.5t37 115.5q-22 -26 -64 -38t-74.5 -24t-40.5 -40q-14 -50 26 -62q7 -15 -2 -39t-26 -31q-18 -2 -26 -2q-62 0 -102 40t-29 98q8 43 40 68t76.5 36t91.5 20.5t95.5 30.5t78.5 56zM507 772h-41
q-17 0 -20.5 21.5t6.5 42.5t26 21q46 -1 159 -1h68q17 0 19.5 -21t-7 -41.5t-23.5 -20.5q-30 0 -94 -0.5t-93 -0.5z" />
    <glyph glyph-name="imacron" unicode="&#x12b;" horiz-adv-x="265" 
d="M83 411q6 18 80 18q36 0 61 -6.5t21 -18.5q-53 -143 -85 -246q-12 -33 -11 -54t19 -20q20 1 54 36t57 84q1 4 7 4q11 0 25 -11t11 -17q-37 -71 -94 -126.5t-125 -60.5q-3 0 -8.5 -0.5t-7.5 -0.5q-126 0 -94 135q25 107 90 284zM110 501h-41q-17 0 -20.5 21.5t6.5 42.5
t26 21q46 -1 159 -1h68q17 0 19.5 -20.5t-7 -41.5t-23.5 -21q-30 0 -94 -0.5t-93 -0.5z" />
    <glyph glyph-name="Iogonek" unicode="&#x12e;" horiz-adv-x="579" 
d="M479 667q25 19 82 19q32 0 57.5 -6.5t24.5 -14.5q-36 -98 -129 -382q-33 -101 -62.5 -156.5t-74.5 -98.5q-31 -29 -45.5 -67t-14.5 -63q0 -36 23 -36q19 0 46 28h3q16 0 28 -16t5 -27q-20 -35 -53.5 -54.5t-68.5 -19.5q-42 0 -69 27.5t-23 77.5q4 56 52 114q-9 -1 -27 -1
q-111 -1 -157 73q-36 58 -12 121q24 60 90 73q27 1 55 -21.5t27 -47.5q-21 -22 -26 -47.5t5.5 -42.5t31.5 -17q11 0 21 6.5t19 22t16.5 31t17 43.5t15.5 48.5t17 57.5t18 60q4 11 27 87.5t37 115.5q-22 -26 -64 -38t-74.5 -24t-40.5 -40q-14 -50 25 -62q8 -12 -1.5 -38.5
t-26.5 -31.5q-18 -2 -26 -2q-62 0 -101.5 40t-28.5 98q8 43 40 68t76.5 36t91.5 20.5t95.5 30.5t78.5 56z" />
    <glyph glyph-name="iogonek" unicode="&#x12f;" horiz-adv-x="266" 
d="M251 -153q-20 -35 -54 -54.5t-69 -19.5q-42 0 -68.5 27.5t-22.5 77.5q8 64 53 114q-67 -1 -89 35.5t-7 99.5q25 107 90 284q6 18 80 18q36 0 61 -6.5t21 -18.5q-53 -143 -85 -246q-12 -33 -11 -54t19 -20q20 1 54 36t57 84q1 4 7 4q11 0 25 -11t11 -17q-37 -71 -94 -129
q-50 -50 -66.5 -85.5t-16.5 -74.5q0 -32 20 -32q19 0 49 31q6 6 12 6q13 0 21.5 -19.5t2.5 -29.5z" />
    <glyph glyph-name="Idotaccent" unicode="&#x130;" horiz-adv-x="580" 
d="M479 667q25 20 87 20q64 0 78 -21q-4 -10 -130 -383q-2 -7 -7 -21q-15 -45 -23 -66.5t-22.5 -56.5t-27 -52t-33 -39t-43.5 -32t-54.5 -17.5t-70.5 -7.5q-111 -1 -157 73q-36 58 -12 121q24 60 90 73q29 0 57 -21.5t27 -46.5q-21 -22 -26.5 -48t4.5 -43t31 -17
q11 0 21 6.5t19 22t16.5 31t17 43.5t15.5 48.5t17 57.5t18 60q4 11 27 87.5t37 115.5q-22 -26 -64 -38t-74.5 -24t-40.5 -40q-14 -50 26 -62q7 -15 -2 -39t-26 -31q-18 -2 -26 -2q-62 0 -102 40t-29 98q8 43 40 68t76.5 36t91.5 20.5t95.5 30.5t78.5 56zM580 758
q-39 0 -55.5 22t-11.5 49q6 29 28.5 50t58.5 22q35 1 52.5 -21.5t12.5 -51.5q-4 -27 -27 -48.5t-58 -21.5z" />
    <glyph glyph-name="dotlessi" unicode="&#x131;" horiz-adv-x="265" 
d="M83 411q6 18 80 18q36 0 61 -6.5t21 -18.5q-53 -143 -85 -246q-12 -33 -11 -54t19 -20q20 1 54 36t57 84q1 4 7 4q11 0 25 -11t11 -17q-37 -71 -94 -126.5t-125 -60.5q-3 0 -8.5 -0.5t-7.5 -0.5q-126 0 -94 135q25 107 90 284zM180 482q-34 0 -54.5 25t-13.5 58
q8 38 35.5 60.5t65.5 22.5q38 -1 57.5 -24.5t13.5 -58.5q-6 -36 -33.5 -59.5t-70.5 -23.5z" />
    <glyph glyph-name="IJ" unicode="&#x132;" horiz-adv-x="1181" 
d="M479 667q25 20 87 20q64 0 78 -21q-4 -10 -130 -383q-2 -7 -7 -21q-15 -45 -23 -66.5t-22.5 -56.5t-27 -52t-33 -39t-43.5 -32t-54.5 -17.5t-70.5 -7.5q-111 -1 -157 73q-36 58 -12 121q24 60 90 73q29 0 57 -21.5t27 -46.5q-21 -22 -26.5 -48t4.5 -43t31 -17
q11 0 21 6.5t19 22t16.5 31t17 43.5t15.5 48.5t17 57.5t18 60q4 11 27 87.5t37 115.5q-22 -26 -64 -38t-74.5 -24t-40.5 -40q-14 -50 26 -62q7 -15 -2 -39t-26 -31q-18 -2 -26 -2q-62 0 -102 40t-29 98q8 43 40 68t76.5 36t91.5 20.5t95.5 30.5t78.5 56zM746 -297
q-70 -1 -106.5 34t-31 83t43.5 86q57 57 201 81q100 363 167 569q-17 -22 -47 -35t-55 -17t-48 -16t-30 -33q-17 -51 23 -65q7 -5 5.5 -20t-13 -32.5t-24.5 -18.5q-6 -1 -17 -1q-65 0 -106 41.5t-25 101.5q11 41 43.5 65t77 34t90.5 19t93.5 31t77.5 59q25 19 82 19
q71 0 78 -24q-36 -104 -108 -326.5t-100 -321.5q54 25 95.5 68t83.5 120q2 3 7 3q11 0 25 -10.5t10 -17.5q-55 -98 -110.5 -151t-131.5 -84q-16 -50 -27 -78.5t-31.5 -64t-44 -53.5t-61 -31t-86.5 -14zM752 -205q31 0 51 35.5t27 73.5q-78 -23 -95 -64q-7 -20 -2 -32t19 -13
z" />
    <glyph glyph-name="ij" unicode="&#x133;" horiz-adv-x="546" 
d="M561 205q1 3 6 3q9 0 24 -11.5t12 -16.5q-55 -102 -110 -155.5t-130 -82.5q-18 -64 -33.5 -101.5t-42 -72t-65.5 -50t-96 -15.5q-66 0 -100 34.5t-28 82.5t46 86q29 28 70.5 42t108.5 27q14 58 22 87q-74 -69 -163 -69q-129 0 -98 134q21 89 81 294q13 12 55 12
q33 0 63 -8.5t38 -23.5q-12 -41 -30.5 -101.5t-29 -97t-14.5 -60.5q-9 -58 12 -58q24 -1 56.5 25.5t58.5 68.5l62 240q11 14 56 14q35 0 66 -9t35 -23q-25 -77 -41 -132.5t-38 -138.5t-31 -114q53 24 94.5 68t83.5 122zM215 -98q-33 -10 -57 -27t-31 -34q-7 -20 -1.5 -31
t18.5 -12q51 0 71 104zM170 482q-34 0 -54.5 25t-13.5 58q8 38 35.5 60.5t65.5 22.5q38 -1 57.5 -24.5t13.5 -58.5q-6 -36 -33.5 -59.5t-70.5 -23.5zM444 482q-34 0 -54.5 25t-13.5 58q8 38 35.5 60.5t65.5 22.5q38 -1 57.5 -24.5t13.5 -58.5q-6 -36 -33.5 -59.5
t-70.5 -23.5z" />
    <glyph glyph-name="Kcommaaccent" unicode="&#x136;" horiz-adv-x="906" 
d="M765 670q18 18 67 18q31 0 58 -7.5t32 -18.5q-32 -118 -96.5 -206t-159.5 -123q19 -10 36 -32t25 -48q10 -32 19 -98t24.5 -110t50.5 -68q13 -28 -17 -69.5t-76 -41.5q-2 0 -5 0.5t-5 0.5q-35 12 -58.5 40.5t-34.5 68.5t-16.5 76.5t-9.5 81t-8 64.5q-8 40 -21 59t-42 24
q-16 -54 -27 -85.5t-27.5 -69.5t-35 -58.5t-45 -40t-61 -27.5t-79.5 -8q-111 -1 -157 73q-36 58 -10 120q23 58 86 73q27 1 57 -19.5t30 -47.5q-21 -21 -26.5 -47.5t5 -44.5t31.5 -18q40 1 83 135q18 57 32.5 104.5t34 112t36.5 121.5q-18 -19 -48.5 -32t-56 -18t-47.5 -19
t-28 -36q-11 -44 26 -61q9 -5 0.5 -33t-28.5 -36q-16 -2 -24 -2q-63 0 -104 43t-26 101q10 41 43 65.5t77.5 35.5t91 20t94 30t76.5 56q18 20 86 20q69 0 75 -22q-30 -79 -94 -267q29 12 52.5 28.5t42.5 39t31.5 39t25.5 46t18 41t15.5 42.5t11.5 35zM422 -221l33 123
q4 14 22.5 22t40.5 8q23 0 37 -8t8 -23l-50 -132q-10 -24 -51 -24q-20 0 -32 8.5t-8 25.5z" />
    <glyph glyph-name="kcommaaccent" unicode="&#x137;" horiz-adv-x="516" 
d="M531 205q1 3 6 3q10 0 24.5 -11t11.5 -17q-50 -95 -112 -141.5t-127 -47.5q-151 -2 -127 212q77 23 103 69q18 33 -8 46l-12 3q-1 0 -3.5 0.5t-3.5 0.5q-28 0 -57.5 -26.5t-38.5 -60.5q-50 -180 -59 -227q-5 -8 -32.5 -14t-58.5 -6q-74 0 -75 27q108 407 189 661
q11 12 54 12q37 0 69 -9.5t34 -25.5q-54 -176 -86 -294q76 68 160 68q38 0 61 -17q27 -19 31.5 -54t-11 -70t-50.5 -64t-81 -38q0 -21 1.5 -34.5t6.5 -31.5t17.5 -27t31.5 -9q41 0 73.5 28t68.5 95zM98 -221l33 123q4 14 22.5 22t40.5 8q23 0 37 -8t8 -23l-50 -132
q-10 -24 -51 -24q-20 0 -32 8.5t-8 25.5z" />
    <glyph glyph-name="Lacute" unicode="&#x139;" horiz-adv-x="625" 
d="M492 661q19 25 79 25q30 0 55.5 -7t31.5 -18q-19 -49 -89.5 -267t-101.5 -278q8 -9 23 -27q49 -57 72 -82t54.5 -46.5t59.5 -21.5q19 0 36 7q27 -5 33 -55.5t-18 -73.5q-30 -10 -61 -10q-43 0 -85 20t-79.5 57.5t-63.5 70.5t-57 79q-80 -42 -164 -42q-66 0 -110 27
t-44 87q0 61 50 93t120 32q62 0 110 -24q27 79 61.5 192t51.5 160q-17 -23 -48 -36.5t-57.5 -18t-50 -17.5t-29.5 -36q-13 -45 26 -61q4 -16 -4.5 -39t-22.5 -31q-18 -2 -26 -2q-62 0 -102 40.5t-28 100.5q9 42 40.5 66t76 34.5t90.5 19t94 28.5t77 54zM208 131
q-13 -15 -4 -31.5t35 -17.5q44 0 70 40q-24 23 -61 23q-31 0 -40 -14zM547 793l64 92q12 18 51 18q45 0 60 -18q7 -9 -1 -18l-91 -104q-10 -11 -35 -11q-26 0 -43.5 12t-4.5 29z" />
    <glyph glyph-name="lacute" unicode="&#x13a;" horiz-adv-x="390" 
d="M308 691q68 0 109.5 -52t24.5 -137q-20 -98 -92 -168.5t-185 -100.5q-35 -149 65 -152q109 0 175 124q1 3 6 3q9 0 23.5 -11t12.5 -16q-48 -91 -104.5 -140t-145.5 -49q-20 0 -30 1q-74 7 -111.5 52.5t-38.5 119t18 170.5q9 43 23 86.5t38 93.5t53.5 88t71 63t87.5 25z
M304 587q-15 0 -34.5 -34.5t-38 -85t-30.5 -87t-18 -59.5q34 15 66 58t50 88q18 47 20.5 82.5t-15.5 37.5zM260 786l64 92q12 18 51 18q45 0 60 -18q7 -9 -1 -18l-91 -104q-10 -11 -35 -11q-26 0 -43.5 12t-4.5 29z" />
    <glyph glyph-name="Lcommaaccent" unicode="&#x13b;" horiz-adv-x="625" 
d="M492 661q19 25 79 25q30 0 55.5 -7t31.5 -18q-19 -49 -89.5 -267t-101.5 -278q8 -9 23 -27q49 -57 72 -82t54.5 -46.5t59.5 -21.5q19 0 36 7q27 -5 33 -55.5t-18 -73.5q-30 -10 -61 -10q-43 0 -85 20t-79.5 57.5t-63.5 70.5t-57 79q-80 -42 -164 -42q-66 0 -110 27
t-44 87q0 61 50 93t120 32q62 0 110 -24q27 79 61.5 192t51.5 160q-17 -23 -48 -36.5t-57.5 -18t-50 -17.5t-29.5 -36q-13 -45 26 -61q4 -16 -4.5 -39t-22.5 -31q-18 -2 -26 -2q-62 0 -102 40.5t-28 100.5q9 42 40.5 66t76 34.5t90.5 19t94 28.5t77 54zM208 131
q-13 -15 -4 -31.5t35 -17.5q44 0 70 40q-24 23 -61 23q-31 0 -40 -14zM226 -231l33 123q4 14 22.5 22t40.5 8q23 0 37 -8t8 -23l-50 -132q-10 -24 -51 -24q-20 0 -32 8.5t-8 25.5z" />
    <glyph glyph-name="lcommaaccent" unicode="&#x13c;" horiz-adv-x="390" 
d="M308 691q68 0 109.5 -52t24.5 -137q-20 -98 -92 -168.5t-185 -100.5q-35 -149 65 -152q109 0 175 124q1 3 6 3q9 0 23.5 -11t12.5 -16q-48 -91 -104.5 -140t-145.5 -49q-20 0 -30 1q-74 7 -111.5 52.5t-38.5 119t18 170.5q9 43 23 86.5t38 93.5t53.5 88t71 63t87.5 25z
M304 587q-15 0 -34.5 -34.5t-38 -85t-30.5 -87t-18 -59.5q34 15 66 58t50 88q18 47 20.5 82.5t-15.5 37.5zM73 -228l33 123q4 14 22.5 22t40.5 8q23 0 37 -8t8 -23l-50 -132q-10 -24 -51 -24q-20 0 -32 8.5t-8 25.5z" />
    <glyph glyph-name="Lcaron" unicode="&#x13d;" horiz-adv-x="717" 
d="M492 661q19 25 79 25q30 0 55.5 -7t31.5 -18q-19 -49 -89.5 -267t-101.5 -278q27 -22 70 -60t62.5 -53.5t46 -29.5t49.5 -14q19 0 37 7q27 -5 33 -55.5t-18 -73.5q-33 -11 -61 -11q-35 0 -68.5 11.5t-70 39.5t-56.5 46t-60 59.5t-50 51.5q-80 -42 -164 -42q-66 0 -110 27
t-44 87q0 61 50 93t120 32q62 0 110 -24q27 79 61.5 192t51.5 160q-17 -23 -48 -36.5t-57.5 -18t-50 -17.5t-29.5 -36q-13 -45 26 -61q4 -16 -4.5 -39t-22.5 -31q-18 -2 -26 -2q-62 0 -102 40.5t-28 100.5q9 42 40.5 66t76 34.5t90.5 19t94 28.5t77 54zM208 131
q-13 -15 -4 -31.5t35 -17.5q44 0 70 40q-24 23 -61 23q-31 0 -40 -14zM729 657q9 23 52 23q26 0 44.5 -10.5t10.5 -26.5l-57 -123q-7 -18 -42 -18q-24 0 -40.5 10.5t-10.5 28.5q20 53 43 116z" />
    <glyph glyph-name="lcaron" unicode="&#x13e;" horiz-adv-x="386" 
d="M159 -7q-74 8 -109 53.5t-33.5 118.5t20.5 170q11 51 32.5 107.5t54.5 115.5t81 97t102 38q66 0 106 -53t21 -138q-18 -83 -98 -161t-179 -108q-35 -149 65 -152q116 0 182 123q2 3 6 3q10 0 24 -11t12 -16q-49 -90 -107.5 -139.5t-146.5 -49.5q-11 0 -33 2zM175 321
q34 16 68 59t52 87q9 23 14.5 44t7 38.5t-3.5 27.5t-17 10q-15 0 -34.5 -34.5t-38 -85t-30.5 -87t-18 -59.5zM606 659l-44 -97q-7 -15 -36 -15q-17 0 -28 7.5t-8 20.5q20 73 28 98q8 24 45 24q22 0 36.5 -10.5t6.5 -27.5z" />
    <glyph glyph-name="Ldot" unicode="&#x13f;" horiz-adv-x="625" 
d="M727 -183q-30 -10 -61 -10q-43 0 -85 20t-79.5 57.5t-63.5 70.5t-57 79q-80 -42 -164 -42q-66 0 -110 27t-44 87q0 61 50 93t120 32q62 0 110 -24q27 79 61.5 192t51.5 160q-17 -23 -48 -36.5t-57.5 -18t-50 -17.5t-29.5 -36q-13 -45 26 -61q4 -16 -4.5 -39t-22.5 -31
q-18 -2 -26 -2q-62 0 -102 40.5t-28 100.5q9 42 40.5 66t76 34.5t90.5 19t94 28.5t77 54q19 25 79 25q30 0 55.5 -7t31.5 -18q-19 -49 -89.5 -267t-101.5 -278q8 -9 23 -27q49 -57 72 -82t54.5 -46.5t59.5 -21.5q19 0 36 7q27 -5 33 -55.5t-18 -73.5zM239 82q44 0 70 40
q-24 23 -61 23q-31 0 -40 -14q-13 -15 -4 -31.5t35 -17.5zM682 222q-30 0 -49.5 21t-17.5 50t24.5 49.5t52.5 20.5q31 0 49 -20.5t16 -49.5t-24 -50t-51 -21z" />
    <glyph glyph-name="ldot" unicode="&#x140;" horiz-adv-x="390" 
d="M307 693q66 0 106 -53t21 -138q-18 -83 -98 -161t-179 -108q-35 -149 65 -152q116 0 182 123q2 3 6 3q10 0 24.5 -11t12.5 -16q-31 -58 -62.5 -96t-81.5 -65.5t-111 -27.5q-11 0 -33 2q-74 8 -109 53.5t-33.5 118.5t20.5 170q11 51 32.5 107.5t54.5 115.5t81 97t102 38z
M296 587q-15 0 -34.5 -34.5t-38 -85t-30.5 -87t-18 -59.5q34 16 68 59t52 87q9 23 14.5 44t7 38.5t-3.5 27.5t-17 10zM319 265q25 0 39 -13t14 -34q0 -20 -14 -32t-38 -12q-50 0 -50 46q0 20 13 32.5t36 12.5z" />
    <glyph glyph-name="Lslash" unicode="&#x141;" horiz-adv-x="643" 
d="M730 -34q28 -7 33 -58.5t-18 -70.5q-33 -11 -61 -11q-29 0 -60 11t-52.5 22.5t-55 40.5t-46.5 41.5t-49 50t-42 43.5q-63 -43 -150 -43q-171 0 -166 114q2 57 50 87t116 30q63 0 113 -24q2 5 20 62l-56 -4q-10 7 -10.5 27.5t10.5 29.5q7 1 73 4q11 34 36.5 116.5
t40.5 124.5q-17 -23 -47.5 -36.5t-57 -18t-50 -17.5t-30.5 -36q-13 -45 23 -61q7 -6 -1 -33.5t-26 -36.5q-18 -2 -26 -2q-61 0 -100 40.5t-27 100.5q9 42 40.5 66t76 34.5t90.5 19t94 28.5t77 54q18 25 77 25q32 0 58 -7.5t29 -18.5q-17 -44 -57.5 -169t-53.5 -162
q86 6 99 8q13 -5 14.5 -31t-8.5 -33q-42 -4 -129 -10q-34 -102 -55 -147q24 -20 57.5 -49.5t51 -45t40.5 -32t41.5 -23.5t37.5 -7q18 0 36 7zM241 81q45 1 66 42q-26 22 -60 22q-27 0 -41 -15q-14 -14 -3 -32t38 -17z" />
    <glyph glyph-name="lslash" unicode="&#x142;" horiz-adv-x="377" 
d="M4 160h-35q-12 4 -11.5 30t13.5 32h36q12 132 64.5 261.5t140.5 184.5q40 25 82 25q66 0 106 -53t21 -138q-18 -83 -98 -161t-179 -108q-2 -2 -3 -6t-2 -5h64q15 -2 15.5 -29t-14.5 -33h-69q5 -79 78 -79q112 0 178 123q1 3 6 3q10 0 24.5 -11t12.5 -16
q-31 -58 -62.5 -96t-81.5 -65.5t-111 -27.5q-86 0 -129 41t-46 128zM162 321q34 16 68 59t52 87q9 23 14.5 44t7 38.5t-3.5 27.5t-17 10q-15 0 -34.5 -34.5t-38 -85.5t-30 -86t-18.5 -60z" />
    <glyph glyph-name="Nacute" unicode="&#x143;" horiz-adv-x="890" 
d="M762 692q33 0 56.5 -10t36.5 -23t18.5 -37t6.5 -41.5t-4 -47.5t-8.5 -45t-12 -44t-9.5 -34q-11 -40 -31 -102t-30 -98t-16.5 -77t2.5 -66.5t34 -39.5q16 -21 -15.5 -65t-71.5 -44h-6q-26 3 -45.5 12.5t-31 27t-19 37.5t-8.5 49.5t0 55.5t8 63.5t13.5 66.5t18 70.5
t20 69.5t21.5 70q3 9 8.5 26.5t9.5 29.5t8.5 28t5.5 26.5t0.5 20.5t-5.5 15t-14 5q-52 0 -118 -82.5t-103 -200.5q-28 -88 -49 -160t-28.5 -99t-11.5 -36q-9 -23 -72 -23q-33 0 -59.5 9.5t-29.5 25.5q14 45 69 229.5t93 301.5q-18 -22 -49.5 -35t-57.5 -17t-48.5 -16.5
t-27.5 -34.5q-6 -26 0.5 -40t26.5 -24q6 -6 5.5 -20.5t-11 -30.5t-23.5 -18q-16 -2 -24 -2q-62 0 -102.5 41.5t-28.5 99.5q9 42 41.5 67t77.5 36t92.5 21t96.5 32t79 59q18 14 63 14q65 0 75 -25q-19 -59 -38 -110q40 59 100 99.5t122 39.5zM644 794l64 92q12 18 51 18
q45 0 60 -18q7 -9 -1 -18l-91 -104q-10 -11 -35 -11q-26 0 -43.5 12t-4.5 29z" />
    <glyph glyph-name="nacute" unicode="&#x144;" horiz-adv-x="529" 
d="M371 428q57 -1 76.5 -36t4.5 -97q-4 -18 -20.5 -70t-21.5 -77q-6 -28 -2 -46t17 -18q27 0 60.5 35t57.5 85q1 4 7 4q11 0 25 -11t11 -17q-99 -188 -239 -188q-131 0 -98 133q25 96 37 151q9 41 -15 41q-1 0 -3 -0.5t-4 -0.5q-28 -4 -71 -39q-11 -34 -69 -268
q-13 -19 -81 -19q-72 0 -80 25q33 145 114 406q19 12 60 12q69 0 90 -30q-3 -8 -8 -25t-8 -25q98 76 160 75zM231 527l64 92q12 18 51 18q45 0 60 -18q7 -9 -1 -18l-91 -104q-10 -11 -35 -11q-26 0 -43.5 12t-4.5 29z" />
    <glyph glyph-name="Ncommaaccent" unicode="&#x145;" horiz-adv-x="890" 
d="M762 692q33 0 56.5 -10t36.5 -23t18.5 -37t6.5 -41.5t-4 -47.5t-8.5 -45t-12 -44t-9.5 -34q-11 -40 -31 -102t-30 -98t-16.5 -77t2.5 -66.5t34 -39.5q16 -21 -15.5 -65t-71.5 -44h-6q-26 3 -45.5 12.5t-31 27t-19 37.5t-8.5 49.5t0 55.5t8 63.5t13.5 66.5t18 70.5
t20 69.5t21.5 70q3 9 8.5 26.5t9.5 29.5t8.5 28t5.5 26.5t0.5 20.5t-5.5 15t-14 5q-52 0 -118 -82.5t-103 -200.5q-28 -88 -49 -160t-28.5 -99t-11.5 -36q-9 -23 -72 -23q-33 0 -59.5 9.5t-29.5 25.5q14 45 69 229.5t93 301.5q-18 -22 -49.5 -35t-57.5 -17t-48.5 -16.5
t-27.5 -34.5q-6 -26 0.5 -40t26.5 -24q6 -6 5.5 -20.5t-11 -30.5t-23.5 -18q-16 -2 -24 -2q-62 0 -102.5 41.5t-28.5 99.5q9 42 41.5 67t77.5 36t92.5 21t96.5 32t79 59q18 14 63 14q65 0 75 -25q-19 -59 -38 -110q40 59 100 99.5t122 39.5zM417 -221l33 123q4 14 22.5 22
t40.5 8q23 0 37 -8t8 -23l-50 -132q-10 -24 -51 -24q-20 0 -32 8.5t-8 25.5z" />
    <glyph glyph-name="ncommaaccent" unicode="&#x146;" horiz-adv-x="529" 
d="M371 428q57 -1 76.5 -36t4.5 -97q-4 -18 -20.5 -70t-21.5 -77q-6 -28 -2 -46t17 -18q27 0 60.5 35t57.5 85q1 4 7 4q11 0 25 -11t11 -17q-99 -188 -239 -188q-131 0 -98 133q25 96 37 151q9 41 -15 41q-1 0 -3 -0.5t-4 -0.5q-28 -4 -71 -39q-11 -34 -69 -268
q-13 -19 -81 -19q-72 0 -80 25q33 145 114 406q19 12 60 12q69 0 90 -30q-3 -8 -8 -25t-8 -25q98 76 160 75zM96 -221l33 123q4 14 22.5 22t40.5 8q23 0 37 -8t8 -23l-50 -132q-10 -24 -51 -24q-20 0 -32 8.5t-8 25.5z" />
    <glyph glyph-name="Ncaron" unicode="&#x147;" horiz-adv-x="890" 
d="M762 692q33 0 56.5 -10t36.5 -23t18.5 -37t6.5 -41.5t-4 -47.5t-8.5 -45t-12 -44t-9.5 -34q-11 -40 -31 -102t-30 -98t-16.5 -77t2.5 -66.5t34 -39.5q16 -21 -15.5 -65t-71.5 -44h-6q-26 3 -45.5 12.5t-31 27t-19 37.5t-8.5 49.5t0 55.5t8 63.5t13.5 66.5t18 70.5
t20 69.5t21.5 70q3 9 8.5 26.5t9.5 29.5t8.5 28t5.5 26.5t0.5 20.5t-5.5 15t-14 5q-52 0 -118 -82.5t-103 -200.5q-28 -88 -49 -160t-28.5 -99t-11.5 -36q-9 -23 -72 -23q-33 0 -59.5 9.5t-29.5 25.5q14 45 69 229.5t93 301.5q-18 -22 -49.5 -35t-57.5 -17t-48.5 -16.5
t-27.5 -34.5q-6 -26 0.5 -40t26.5 -24q6 -6 5.5 -20.5t-11 -30.5t-23.5 -18q-16 -2 -24 -2q-62 0 -102.5 41.5t-28.5 99.5q9 42 41.5 67t77.5 36t92.5 21t96.5 32t79 59q18 14 63 14q65 0 75 -25q-19 -59 -38 -110q40 59 100 99.5t122 39.5zM742 763q-16 -10 -42 -10
q-29 0 -43 11q-12 8 -32.5 29.5t-41.5 45t-26 28.5q-15 16 19 29q21 8 41 8q21 0 28 -8l57 -63l86 64q9 6 22 6q28 0 48.5 -19t-0.5 -37q-22 -19 -116 -84z" />
    <glyph glyph-name="ncaron" unicode="&#x148;" horiz-adv-x="529" 
d="M371 428q57 -1 76.5 -36t4.5 -97q-4 -18 -20.5 -70t-21.5 -77q-6 -28 -2 -46t17 -18q27 0 60.5 35t57.5 85q1 4 7 4q11 0 25 -11t11 -17q-99 -188 -239 -188q-131 0 -98 133q25 96 37 151q9 41 -15 41q-1 0 -3 -0.5t-4 -0.5q-28 -4 -71 -39q-11 -34 -69 -268
q-13 -19 -81 -19q-72 0 -80 25q33 145 114 406q19 12 60 12q69 0 90 -30q-3 -8 -8 -25t-8 -25q98 76 160 75zM329 496q-16 -10 -42 -10q-29 0 -43 11q-12 8 -32.5 29.5t-41.5 45t-26 28.5q-15 16 19 29q20 8 41 8t28 -8l57 -63l86 64q9 6 22 6q28 0 48.5 -19t-0.5 -37
q-22 -19 -116 -84z" />
    <glyph glyph-name="Eng" unicode="&#x14a;" horiz-adv-x="882" 
d="M847 414l2 7q-3 0 -120 -405q51 23 87.5 65t80.5 124q1 3 7 3q11 0 25 -11t10 -18q-56 -104 -107 -156.5t-124 -80.5q-18 -57 -35 -93.5t-45 -73t-69 -54.5t-97 -18q-67 0 -101.5 34.5t-29.5 82.5t45 86q20 19 54 33.5t60.5 21t73.5 15.5l125 464q1 4 5 18t7.5 26t7 28.5
t5.5 29.5t1.5 24.5t-4.5 18t-12 6.5q-52 0 -116 -82t-102 -201q-20 -66 -37 -123t-25 -83.5t-14 -47.5t-8.5 -29.5t-5.5 -14.5q-9 -22 -77 -22q-37 0 -64 9.5t-21 26.5q22 67 76 247.5t88 284.5q-23 -27 -66.5 -40t-77 -24.5t-40.5 -38.5q-7 -26 0.5 -40t27.5 -24
q11 -6 1 -34.5t-30 -34.5q-16 -2 -24 -2q-62 0 -102.5 41.5t-28.5 99.5q9 42 41.5 66.5t77.5 35.5t92.5 20.5t96.5 32.5t79 61q20 14 59 14q29 0 53 -8t25 -19q-23 -70 -37 -109q40 59 100 99.5t122 39.5q35 0 59.5 -10.5t37 -27t18 -38.5t4.5 -46t-6 -49.5t-11 -48
t-12 -42.5q-4 -11 -5 -16zM548 -98q-33 -10 -57 -27t-31 -34q-7 -20 -1.5 -31t18.5 -12q14 0 25.5 7.5t18.5 17t13 26.5t8.5 26.5t5.5 26.5z" />
    <glyph glyph-name="eng" unicode="&#x14b;" horiz-adv-x="538" 
d="M130 -297q-72 0 -109.5 34.5t-32.5 82.5t45 86q20 19 54 33.5t60.5 21t73.5 15.5q53 232 75 300q14 43 -17 43h-5q-31 -4 -67 -28q-42 -124 -80 -282q-2 -10 -28 -16t-60 -6q-35 0 -57.5 7t-18.5 21q47 187 122 394q2 9 28.5 14.5t58.5 5.5q35 0 57.5 -6.5t17.5 -19.5
l-9 -24q70 49 133 49q123 0 89 -133q-26 -100 -75 -279q50 24 87.5 66t79.5 122q2 4 7 4q11 0 25.5 -10.5t10.5 -17.5q-57 -105 -107.5 -157.5t-123.5 -80.5q-16 -50 -26 -76t-29.5 -62.5t-41.5 -54.5t-57 -32t-80 -14zM134 -202q14 0 26 8t18.5 17t12.5 26.5t8 26.5t6 26
q-33 -10 -57 -27t-31 -34q-7 -20 -1.5 -31t18.5 -12z" />
    <glyph glyph-name="Omacron" unicode="&#x14c;" horiz-adv-x="779" 
d="M486 692q79 -2 131.5 -34.5t73.5 -79t25 -105t-5 -108t-24 -92.5q33 2 75 15.5t62 28.5q7 0 9 -11.5t-1.5 -24.5t-8.5 -17q-66 -49 -160 -59q-43 -100 -125 -156.5t-189 -56.5q-141 0 -195 90q-31 50 -26 126t44 118q9 6 21 6q27 0 57 -23t27 -39q-16 -24 -18.5 -57
t7.5 -62t34 -49t57 -20q58 0 92 35t59 98q-130 22 -214 106t-65 200q9 60 50.5 100t93.5 55.5t113 15.5zM474 599q-40 0 -64.5 -25.5t-28.5 -65.5q-7 -62 32.5 -126.5t118.5 -87.5q6 25 11.5 55.5t9 77.5t-1 83t-24 62.5t-53.5 26.5zM446 772h-41q-17 0 -20.5 21.5t6.5 42.5
t26 21q46 -1 159 -1h68q17 0 19.5 -21t-7 -41.5t-23.5 -20.5q-30 0 -94 -0.5t-93 -0.5z" />
    <glyph glyph-name="omacron" unicode="&#x14d;" horiz-adv-x="535" 
d="M286 428q89 -1 134.5 -51t41 -124t-50.5 -149q2 0 5.5 -0.5t5.5 -0.5q35 0 69.5 26.5t57.5 74.5q1 4 8 4q11 0 25 -10.5t10 -17.5q-68 -132 -191 -132q-1 0 -40 3q-74 -61 -180 -61q-97 0 -145 54t-21 169q25 105 99.5 160.5t171.5 54.5zM264 335q-51 -1 -83 -119
q-8 -29 -11.5 -47t-4.5 -41t8.5 -34.5t30.5 -11.5q20 0 36 16q-12 23 1.5 47.5t38.5 25.5q23 62 21 113.5t-37 50.5zM219 505h-41q-17 0 -20.5 21.5t6.5 42.5t26 21q46 -1 159 -1h68q17 0 19.5 -20.5t-7 -41.5t-23.5 -21q-30 0 -94 -0.5t-93 -0.5z" />
    <glyph glyph-name="Ohungarumlaut" unicode="&#x150;" horiz-adv-x="779" 
d="M486 692q79 -2 131.5 -34.5t73.5 -79t25 -105t-5 -108t-24 -92.5q33 2 75 15.5t62 28.5q7 0 9 -11.5t-1.5 -24.5t-8.5 -17q-66 -49 -160 -59q-43 -100 -125 -156.5t-189 -56.5q-141 0 -195 90q-31 50 -26 126t44 118q9 6 21 6q27 0 57 -23t27 -39q-16 -24 -18.5 -57
t7.5 -62t34 -49t57 -20q58 0 92 35t59 98q-130 22 -214 106t-65 200q9 60 50.5 100t93.5 55.5t113 15.5zM474 599q-40 0 -64.5 -25.5t-28.5 -65.5q-7 -62 32.5 -126.5t118.5 -87.5q6 25 11.5 55.5t9 77.5t-1 83t-24 62.5t-53.5 26.5zM416 785l36 93q10 28 64 28
q24 0 37.5 -8t5.5 -21l-60 -102q-13 -22 -52 -22q-18 0 -27.5 8.5t-3.5 23.5zM556 785l36 93q10 28 64 28q24 0 37.5 -8t5.5 -21l-60 -102q-13 -22 -52 -22q-18 0 -27.5 8.5t-3.5 23.5z" />
    <glyph glyph-name="ohungarumlaut" unicode="&#x151;" horiz-adv-x="535" 
d="M286 428q89 -1 134.5 -51t41 -124t-50.5 -149q2 0 5.5 -0.5t5.5 -0.5q35 0 69.5 26.5t57.5 74.5q1 4 8 4q11 0 25 -10.5t10 -17.5q-68 -132 -191 -132q-1 0 -40 3q-74 -61 -180 -61q-97 0 -145 54t-21 169q25 105 99.5 160.5t171.5 54.5zM264 335q-51 -1 -83 -119
q-8 -29 -11.5 -47t-4.5 -41t8.5 -34.5t30.5 -11.5q20 0 36 16q-12 23 1.5 47.5t38.5 25.5q23 62 21 113.5t-37 50.5zM189 518l36 93q10 28 64 28q24 0 37.5 -8t5.5 -21l-60 -102q-13 -22 -52 -22q-18 0 -27.5 8.5t-3.5 23.5zM329 518l36 93q10 28 64 28q24 0 37.5 -8
t5.5 -21l-60 -102q-13 -22 -52 -22q-18 0 -27.5 8.5t-3.5 23.5z" />
    <glyph glyph-name="OE" unicode="&#x152;" horiz-adv-x="1059" 
d="M779 -36q-68 0 -132.5 23.5t-97.5 71.5q-83 -67 -195 -67q-146 2 -200 90q-31 50 -26 126t44 118q11 12 33 12q33 0 61.5 -21.5t15.5 -40.5q-18 -25 -21.5 -59t6 -64t33.5 -50.5t57 -20.5q41 0 70.5 15.5t50 51t33 72t28.5 99.5q30 119 11.5 199t-76.5 80
q-40 0 -64.5 -25.5t-28.5 -65.5q-5 -44 14 -91.5t60 -82.5q14 -11 -7 -46.5t-42 -35.5q-3 0 -7 2q-89 43 -136.5 111t-33.5 156t87.5 129.5t169.5 41.5q59 -2 103 -23t67 -54.5t37 -75.5t13.5 -86t-3.5 -86q30 13 70 17q-32 45 -31.5 100.5t24.5 91.5q-22 46 -21 85
q2 17 27 17q24 0 27 -17q5 -27 13 -42q39 31 77 39.5t100 8.5q63 -4 102.5 -36t34.5 -87q-5 -52 -46.5 -86t-95.5 -40q-2 0 -7.5 -0.5t-8.5 -0.5q-66 0 -106 43q0 -84 61 -94q6 -2 6.5 -21t-7 -39t-21.5 -24q-54 3 -63 3q-150 0 -176 -87q-21 -67 21 -103.5t116 -36.5
q85 0 164 38t112 108q3 5 8 5q9 0 22.5 -11.5t11.5 -16.5q-113 -217 -338 -217zM955 500q48 4 54 44q1 14 -12 22.5t-33 8.5h-6q-50 -4 -74 -44q28 -31 71 -31z" />
    <glyph glyph-name="oe" unicode="&#x153;" horiz-adv-x="716" 
d="M268 428q51 0 90 -25t41 -52q42 41 79.5 57.5t93.5 16.5q65 -1 98.5 -33t33.5 -78q0 -73 -54 -116t-141 -43q-30 0 -55 4q7 -76 90 -76q128 0 186 121q1 4 8 4q10 0 24 -10.5t11 -17.5q-32 -63 -69.5 -104t-75.5 -57.5t-64 -21.5t-57 -5q-51 0 -93 23.5t-62 66.5
q-32 -42 -79.5 -65.5t-99.5 -23.5q-91 0 -137.5 56t-20.5 167q25 107 96 159.5t157 52.5zM266 335q-51 -1 -83 -119q-8 -29 -11.5 -47t-4.5 -41t8.5 -34.5t30.5 -11.5q52 0 84 115q20 93 6 121q-9 17 -30 17zM548 330q-62 0 -88 -107q35 0 63.5 18t37.5 51q10 35 -13 38z
" />
    <glyph glyph-name="Racute" unicode="&#x154;" horiz-adv-x="813" 
d="M679 -108h-6q-21 2 -40 12t-33 22t-29 34.5t-24 38t-21 44.5t-17 43t-15.5 45.5t-13.5 39.5q-16 46 -29 61h-35q-50 -159 -63 -215q-16 -21 -81 -21q-31 0 -52 8t-20 23q4 12 30.5 101.5t52.5 173t39 114.5q41 99 78 128q17 13 51 13q27 0 51 -8t24 -18q-26 -32 -87 -215
q80 1 136.5 41.5t61.5 113.5q4 55 -44 91t-119 37q-114 0 -183 -53q-74 -57 -42 -135q-1 -18 -29 -40.5t-55 -22.5q-1 0 -4 0.5t-5 0.5q-33 14 -53.5 45t-19.5 65q1 54 30 96.5t71.5 67t98.5 41t105 22.5t97 6q133 -1 223.5 -62.5t84.5 -158.5q-5 -80 -58 -136.5t-148 -83.5
q17 -18 35 -67q51 -146 122 -166q25 -26 2 -76t-67 -50zM465 795l64 92q12 18 51 18q45 0 60 -18q7 -9 -1 -18l-91 -104q-10 -11 -35 -11q-26 0 -43.5 12t-4.5 29z" />
    <glyph glyph-name="racute" unicode="&#x155;" horiz-adv-x="422" 
d="M43 155q-3 -6 -11 -6q-13 0 -25 10t-7 19q64 117 90 207q-28 45 -21.5 78t30 52t51.5 19t42.5 -22.5t2.5 -66.5q13 -12 43 -35t46 -38t32 -36.5t14.5 -43.5t-19.5 -46q-56 -74 -67 -119q-11 -43 30 -43q49 0 93 36t70 85q1 3 6 3q10 0 24.5 -11t11.5 -16
q-95 -189 -270 -189q-64 0 -97 28.5t-32 77.5q0 28 15.5 66t26.5 57t38 63q3 5 4.5 10t2 9t-0.5 8.5t-2 7.5t-4 8t-4.5 7t-6 7t-5.5 6l-6 6l-6 5q-27 -96 -89 -203zM229 562l64 92q12 18 51 18q45 0 60 -18q7 -9 -1 -18l-91 -104q-10 -11 -35 -11q-26 0 -43.5 12t-4.5 29z
" />
    <glyph glyph-name="Rcommaaccent" unicode="&#x156;" horiz-adv-x="813" 
d="M679 -108h-6q-21 2 -40 12t-33 22t-29 34.5t-24 38t-21 44.5t-17 43t-15.5 45.5t-13.5 39.5q-16 46 -29 61h-35q-50 -159 -63 -215q-16 -21 -81 -21q-31 0 -52 8t-20 23q4 12 30.5 101.5t52.5 173t39 114.5q41 99 78 128q17 13 51 13q27 0 51 -8t24 -18q-26 -32 -87 -215
q80 1 136.5 41.5t61.5 113.5q4 55 -44 91t-119 37q-114 0 -183 -53q-74 -57 -42 -135q-1 -18 -29 -40.5t-55 -22.5q-1 0 -4 0.5t-5 0.5q-33 14 -53.5 45t-19.5 65q1 54 30 96.5t71.5 67t98.5 41t105 22.5t97 6q133 -1 223.5 -62.5t84.5 -158.5q-5 -80 -58 -136.5t-148 -83.5
q17 -18 35 -67q51 -146 122 -166q25 -26 2 -76t-67 -50zM346 -221l33 123q4 14 22.5 22t40.5 8q23 0 37 -8t8 -23l-50 -132q-10 -24 -51 -24q-20 0 -32 8.5t-8 25.5z" />
    <glyph glyph-name="rcommaaccent" unicode="&#x157;" horiz-adv-x="422" 
d="M43 155q-3 -6 -11 -6q-13 0 -25 10t-7 19q64 117 90 207q-28 45 -21.5 78t30 52t51.5 19t42.5 -22.5t2.5 -66.5q13 -12 43 -35t46 -38t32 -36.5t14.5 -43.5t-19.5 -46q-56 -74 -67 -119q-11 -43 30 -43q49 0 93 36t70 85q1 3 6 3q10 0 24.5 -11t11.5 -16
q-95 -189 -270 -189q-64 0 -97 28.5t-32 77.5q0 28 15.5 66t26.5 57t38 63q3 5 4.5 10t2 9t-0.5 8.5t-2 7.5t-4 8t-4.5 7t-6 7t-5.5 6l-6 6l-6 5q-27 -96 -89 -203zM108 -230l33 123q4 14 22.5 22t40.5 8q23 0 37 -8t8 -23l-50 -132q-10 -24 -51 -24q-20 0 -32 8.5t-8 25.5z
" />
    <glyph glyph-name="Rcaron" unicode="&#x158;" horiz-adv-x="813" 
d="M679 -108h-6q-21 2 -40 12t-33 22t-29 34.5t-24 38t-21 44.5t-17 43t-15.5 45.5t-13.5 39.5q-16 46 -29 61h-35q-50 -159 -63 -215q-16 -21 -81 -21q-31 0 -52 8t-20 23q4 12 30.5 101.5t52.5 173t39 114.5q41 99 78 128q17 13 51 13q27 0 51 -8t24 -18q-26 -32 -87 -215
q80 1 136.5 41.5t61.5 113.5q4 55 -44 91t-119 37q-114 0 -183 -53q-74 -57 -42 -135q-1 -18 -29 -40.5t-55 -22.5q-1 0 -4 0.5t-5 0.5q-33 14 -53.5 45t-19.5 65q1 54 30 96.5t71.5 67t98.5 41t105 22.5t97 6q133 -1 223.5 -62.5t84.5 -158.5q-5 -80 -58 -136.5t-148 -83.5
q17 -18 35 -67q51 -146 122 -166q25 -26 2 -76t-67 -50zM563 764q-16 -10 -42 -10q-29 0 -43 11q-12 8 -32.5 29.5t-41.5 45t-26 28.5q-15 16 19 29q20 8 41 8t28 -8l57 -63l86 64q9 6 22 6q28 0 48.5 -19t-0.5 -37q-22 -19 -116 -84z" />
    <glyph glyph-name="rcaron" unicode="&#x159;" horiz-adv-x="422" 
d="M43 155q-3 -6 -11 -6q-13 0 -25 10t-7 19q64 117 90 207q-28 45 -21.5 78t30 52t51.5 19t42.5 -22.5t2.5 -66.5q13 -12 43 -35t46 -38t32 -36.5t14.5 -43.5t-19.5 -46q-56 -74 -67 -119q-11 -43 30 -43q49 0 93 36t70 85q1 3 6 3q10 0 24.5 -11t11.5 -16
q-95 -189 -270 -189q-64 0 -97 28.5t-32 77.5q0 28 15.5 66t26.5 57t38 63q3 5 4.5 10t2 9t-0.5 8.5t-2 7.5t-4 8t-4.5 7t-6 7t-5.5 6l-6 6l-6 5q-27 -96 -89 -203zM327 531q-16 -10 -42 -10q-29 0 -43 11q-12 8 -32.5 29.5t-41.5 45t-26 28.5q-15 16 19 29q20 8 41 8t28 -8
l57 -63l86 64q9 6 22 6q28 0 48.5 -19t-0.5 -37q-22 -19 -116 -84z" />
    <glyph glyph-name="Sacute" unicode="&#x15a;" horiz-adv-x="613" 
d="M608 510q-12 -24 -61 -24q-24 0 -45 8t-26 21q12 85 -53 85q-23 -1 -41 -17.5t-21 -56.5q-3 -33 17 -66t50.5 -62.5t60.5 -60.5t50 -73t17 -87q-7 -93 -78 -140t-185 -46q-79 1 -129.5 28t-68.5 70.5t-18 90.5t17 95q15 16 53 16q29 0 52.5 -9.5t27.5 -24.5
q-18 -79 6 -126.5t70 -49.5q41 0 65 22.5t26 63.5q3 38 -18 74t-52 66.5t-61.5 62.5t-49.5 74.5t-14 90.5q4 44 24.5 75.5t52.5 49t68 25.5t79 8q102 -3 151.5 -51t33.5 -132zM366 794l64 92q12 18 51 18q45 0 60 -18q7 -9 -1 -18l-91 -104q-10 -11 -35 -11q-26 0 -43.5 12
t-4.5 29z" />
    <glyph glyph-name="sacute" unicode="&#x15b;" horiz-adv-x="490" 
d="M189 -13q-43 0 -84 20.5t-58 64.5q6 19 28.5 34t43.5 15q6 0 14 -2q5 -14 18 -26t30 -13q17 0 27 9q-19 20 -13 44.5t30 29.5q-7 101 -34 207q-31 -30 -74 -95t-74 -120q-3 -6 -11 -6q-13 0 -25 10t-7 19q82 155 172 245q53 53 120 53q45 0 61.5 -26t-12.5 -72
q4 -14 14 -53t13 -51.5t9 -41.5t7 -45t0.5 -39t-4.5 -45q76 6 124 102q2 3 6 3q10 0 24.5 -11t12.5 -16q-67 -131 -194 -133q-49 -61 -164 -61zM239 563l64 92q12 18 51 18q45 0 60 -18q7 -9 -1 -18l-91 -104q-10 -11 -35 -11q-26 0 -43.5 12t-4.5 29z" />
    <glyph glyph-name="Scedilla" unicode="&#x15e;" horiz-adv-x="613" 
d="M423 693q102 -3 151.5 -51t33.5 -132q-12 -24 -61 -24q-24 0 -45 8t-26 21q12 85 -53 85q-23 -1 -41 -17.5t-21 -56.5q-3 -33 17 -66t50.5 -62.5t60.5 -60.5t50 -73t17 -87q-6 -82 -62 -128t-148 -56l-39 -48q43 -7 60.5 -38t3.5 -66q-12 -31 -43.5 -51t-70.5 -20
q-50 0 -95 34q-9 6 3 28t22 22q36 -20 56 -20q24 0 36 22q25 44 -35 47q-15 1 -18.5 10.5t5.5 22.5l37 56q-70 5 -115 33.5t-60.5 71t-15 87.5t16.5 91q15 16 53 16q29 0 52.5 -9.5t27.5 -24.5q-18 -79 6 -126.5t70 -49.5q41 0 65 22.5t26 63.5q3 38 -18 74t-52 66.5
t-61.5 62.5t-49.5 74.5t-14 90.5q4 44 24.5 75.5t52.5 49t68 25.5t79 8z" />
    <glyph glyph-name="scedilla" unicode="&#x15f;" horiz-adv-x="490" 
d="M504 205q2 3 6 3q10 0 24.5 -11t12.5 -16q-67 -131 -194 -133q-28 -37 -91 -53l-39 -48q43 -7 60.5 -38t3.5 -66q-12 -31 -43.5 -51t-70.5 -20q-50 0 -95 34q-9 6 3 28t22 22q36 -20 56 -20q24 0 36 22q25 44 -35 47q-15 1 -18.5 10.5t5.5 22.5l33 49q-42 3 -79.5 23.5
t-53.5 61.5q6 19 28.5 34t43.5 15q6 0 14 -2q5 -14 18 -26t30 -13q17 0 27 9q-19 20 -13 44.5t30 29.5q-7 101 -34 207q-31 -30 -74 -95t-74 -120q-3 -6 -11 -6q-13 0 -25 10t-7 19q82 155 172 245q53 53 120 53q45 0 61.5 -26t-12.5 -72q4 -14 14 -53t13 -51.5t9 -41.5
t7 -45t0.5 -39t-4.5 -45q76 6 124 102z" />
    <glyph glyph-name="Scaron" unicode="&#x160;" horiz-adv-x="613" 
d="M608 510q-12 -24 -61 -24q-24 0 -45 8t-26 21q12 85 -53 85q-23 -1 -41 -17.5t-21 -56.5q-3 -33 17 -66t50.5 -62.5t60.5 -60.5t50 -73t17 -87q-7 -93 -78 -140t-185 -46q-79 1 -129.5 28t-68.5 70.5t-18 90.5t17 95q15 16 53 16q29 0 52.5 -9.5t27.5 -24.5
q-18 -79 6 -126.5t70 -49.5q41 0 65 22.5t26 63.5q3 38 -18 74t-52 66.5t-61.5 62.5t-49.5 74.5t-14 90.5q4 44 24.5 75.5t52.5 49t68 25.5t79 8q102 -3 151.5 -51t33.5 -132zM464 763q-16 -10 -42 -10q-29 0 -43 11q-12 8 -32.5 29.5t-41.5 45t-26 28.5q-15 16 19 29
q20 8 41 8t28 -8l57 -63l86 64q9 6 22 6q28 0 48.5 -19t-0.5 -37q-22 -19 -116 -84z" />
    <glyph glyph-name="scaron" unicode="&#x161;" horiz-adv-x="490" 
d="M189 -13q-43 0 -84 20.5t-58 64.5q6 19 28.5 34t43.5 15q6 0 14 -2q5 -14 18 -26t30 -13q17 0 27 9q-19 20 -13 44.5t30 29.5q-7 101 -34 207q-31 -30 -74 -95t-74 -120q-3 -6 -11 -6q-13 0 -25 10t-7 19q82 155 172 245q53 53 120 53q45 0 61.5 -26t-12.5 -72
q4 -14 14 -53t13 -51.5t9 -41.5t7 -45t0.5 -39t-4.5 -45q76 6 124 102q2 3 6 3q10 0 24.5 -11t12.5 -16q-67 -131 -194 -133q-49 -61 -164 -61zM337 532q-16 -10 -42 -10q-29 0 -43 11q-12 8 -32.5 29.5t-41.5 45t-26 28.5q-15 16 19 29q20 8 41 8t28 -8l57 -63l86 64
q9 6 22 6q28 0 48.5 -19t-0.5 -37q-22 -19 -116 -84z" />
    <glyph glyph-name="Tcedilla" unicode="&#x162;" horiz-adv-x="727" 
d="M222 667q64 25 128 25q57 0 163.5 -28t165.5 -28q21 0 31 1q45 4 61 26.5t11 65.5q19 21 55 21q17 0 27 -6q37 -44 29.5 -101.5t-39.5 -84.5q-58 -50 -168 -50q-8 0 -25.5 0.5t-26.5 0.5q-62 -197 -72 -226q-47 -134 -68 -171q-47 -88 -133 -111q-36 -9 -82 -9
q-51 0 -89 15.5t-57.5 41t-26.5 55t-1 59.5q8 36 32 61t61 34q32 1 61 -22t25 -45q-21 -21 -26 -47.5t5.5 -44.5t30.5 -18q29 1 52.5 53t55.5 160q71 236 80 263q-88 30 -127 30q-28 0 -44 -12q-29 -22 -25.5 -49.5t30.5 -27.5q16 0 36 15q17 -1 30 -17t17 -37
q-41 -66 -124 -66q-37 0 -70.5 16.5t-53.5 47.5q-21 33 -22 74.5t23.5 79.5t69.5 56zM233 -232l33 123q4 14 22.5 22t40.5 8q23 0 37 -8t8 -23l-50 -132q-10 -24 -51 -24q-20 0 -32 8.5t-8 25.5z" />
    <glyph glyph-name="tcedilla" unicode="&#x163;" horiz-adv-x="338" 
d="M167 -8q-48 0 -80.5 13t-48.5 39.5t-23 57.5t-2.5 77t13 87t22.5 98h-25q-15 8 -8 46.5t23 41.5h34q62 197 71 223q12 14 57 14q35 0 66 -10t35 -27q-28 -88 -60 -200h62q17 -16 11.5 -48.5t-20.5 -39.5h-77q-34 -117 -39 -137q-17 -62 -15 -103t31 -43q96 0 158 123
q1 4 7 4q11 0 25 -11t11 -17q-45 -93 -99.5 -140.5t-128.5 -47.5zM51 -230l33 123q4 14 22.5 22t40.5 8q23 0 37 -8t8 -23l-50 -132q-10 -24 -51 -24q-20 0 -32 8.5t-8 25.5z" />
    <glyph glyph-name="Tcaron" unicode="&#x164;" horiz-adv-x="727" 
d="M222 667q64 25 128 25q57 0 163.5 -28t165.5 -28q21 0 31 1q45 4 61 26.5t11 65.5q19 21 55 21q17 0 27 -6q37 -44 29.5 -101.5t-39.5 -84.5q-58 -50 -168 -50q-8 0 -25.5 0.5t-26.5 0.5q-62 -197 -72 -226q-47 -134 -68 -171q-47 -88 -133 -111q-36 -9 -82 -9
q-51 0 -89 15.5t-57.5 41t-26.5 55t-1 59.5q8 36 32 61t61 34q32 1 61 -22t25 -45q-21 -21 -26 -47.5t5.5 -44.5t30.5 -18q29 1 52.5 53t55.5 160q71 236 80 263q-88 30 -127 30q-28 0 -44 -12q-29 -22 -25.5 -49.5t30.5 -27.5q16 0 36 15q17 -1 30 -17t17 -37
q-41 -66 -124 -66q-37 0 -70.5 16.5t-53.5 47.5q-21 33 -22 74.5t23.5 79.5t69.5 56zM634 763q-16 -10 -42 -10q-29 0 -43 11q-12 8 -32.5 29.5t-41.5 45t-26 28.5q-15 16 19 29q20 8 41 8t28 -8l57 -63l86 64q9 6 22 6q28 0 48.5 -19t-0.5 -37q-22 -19 -116 -84z" />
    <glyph glyph-name="tcaron" unicode="&#x165;" horiz-adv-x="337" 
d="M167 -8q-48 0 -80.5 13t-48.5 39.5t-23 57.5t-2.5 77t13 87t22.5 98h-34q-15 8 -8 46.5t23 41.5h43q62 197 71 223q12 14 57 14q35 0 66 -10t35 -27q-28 -88 -60 -200h62q17 -16 11.5 -48.5t-20.5 -39.5h-77q-34 -117 -39 -137q-17 -62 -15 -103t31 -43q96 0 158 123
q1 4 7 4q11 0 25 -11t11 -17q-45 -93 -99.5 -140.5t-128.5 -47.5zM312 569l43 88q10 22 46 22q22 0 36 -10.5t5 -25.5l-56 -95q-11 -17 -38 -17q-21 0 -32.5 10t-3.5 28z" />
    <glyph glyph-name="Tbar" unicode="&#x166;" horiz-adv-x="759" 
d="M278 -8q-98 -1 -141 48.5t-33 113.5q6 39 30.5 67t62.5 37q1 0 3.5 0.5t3.5 0.5q26 0 55.5 -24t23.5 -44q-21 -21 -26 -47.5t5.5 -44t30.5 -17.5q27 1 49 45t49 132l-68 1q-12 0 -14 18.5t7 37t23 18.5q15 -1 53 -1h21q51 177 68 224q-85 29 -126 29q-29 0 -45 -11
q-33 -21 -25 -53q7 -24 30 -24q16 0 34 14q18 1 34.5 -21t13.5 -34q-42 -64 -123 -64q-82 0 -124 64q-21 32 -22 74t23.5 80t69.5 56q62 25 127 25q57 0 162.5 -28.5t164.5 -28.5q10 0 34 2q83 8 72 91q4 8 22 14.5t35 6.5q16 0 25 -5q37 -44 29.5 -101.5t-39.5 -84.5
q-58 -50 -168 -50q-8 0 -25.5 0.5t-26.5 0.5q-12 -37 -55 -176h84q14 0 17 -18.5t-5.5 -37.5t-22.5 -19h-99q-12 -35 -18 -51.5t-17.5 -45.5t-19.5 -43t-21.5 -35.5t-26 -32t-31 -24t-38.5 -19.5t-46 -10.5t-56 -4.5z" />
    <glyph glyph-name="tbar" unicode="&#x167;" horiz-adv-x="338" 
d="M167 -8q-97 0 -130 54.5t-22 153.5l-27 3q-10 1 -13 19.5t4 36t21 16.5q4 -1 13 -1t14 -1q9 43 21 91h-34q-15 8 -8 46.5t23 41.5h43q62 197 71 223q12 14 57 14q35 0 66 -10t35 -27q-28 -88 -60 -200h62q17 -16 11.5 -48.5t-20.5 -39.5h-77q-18 -62 -27 -90q9 0 26 1
t25 1q10 0 15.5 -16.5t2 -34.5t-15.5 -20q-17 -3 -71 -6q-25 -114 22 -118q96 0 158 123q1 4 7 4q11 0 25 -11t11 -17q-45 -93 -99.5 -140.5t-128.5 -47.5z" />
    <glyph glyph-name="Umacron" unicode="&#x16a;" horiz-adv-x="938" 
d="M471 669q24 18 85 18q72 0 77 -24q-13 -39 -39 -113t-49 -145t-57 -181q-43 -142 30 -142q40 0 81.5 47t66.5 127q5 17 55 180.5t70 222.5q21 14 63 14q36 0 65.5 -10t32.5 -26q-56 -139 -152 -493q-15 -58 11 -60q83 0 141 120q2 4 7 4q10 0 24.5 -10.5t11.5 -17.5
q-35 -71 -101 -131t-141 -60q-42 0 -71.5 24.5t-28.5 70.5q-33 -45 -85.5 -69t-97.5 -24q-102 0 -138 68t0 202q12 45 47 147.5t49 147.5q-17 -22 -48 -34.5t-57 -16.5t-49 -17t-29 -36q-11 -45 25 -62q11 -9 0 -38.5t-27 -30.5q-16 -2 -25 -2q-63 0 -104 41t-26 99
q11 41 43.5 65.5t77 36t91 21t94 31t77.5 56.5zM655 772h-41q-17 0 -20.5 21.5t6.5 42.5t26 21q46 -1 159 -1h68q17 0 19.5 -21t-7 -41.5t-23.5 -20.5q-30 0 -94 -0.5t-93 -0.5z" />
    <glyph glyph-name="umacron" unicode="&#x16b;" horiz-adv-x="527" 
d="M334 419q11 14 57 14q75 0 94 -31q-6 -25 -20 -73t-25 -87t-20 -78t-8.5 -61.5t12.5 -21.5q21 1 57 36.5t60 85.5q3 4 8 4q11 0 25 -10.5t10 -16.5q-18 -33 -39.5 -63t-51 -60.5t-65.5 -49t-73 -17.5q-39 1 -58.5 36.5t-7.5 87.5q-77 -124 -193 -124q-135 0 -100 152
q12 53 43.5 157t35.5 119q10 15 59 15q33 0 61 -8.5t31 -22.5q-1 -4 -21.5 -78t-30.5 -113q-22 -88 -22 -103q3 -19 17 -20q25 1 57.5 44t48.5 93q27 83 59 194zM220 505h-41q-17 0 -20.5 21.5t6.5 42.5t26 21q46 -1 159 -1h68q17 0 19.5 -20.5t-7 -41.5t-23.5 -21
q-30 0 -94 -0.5t-93 -0.5z" />
    <glyph glyph-name="Uring" unicode="&#x16e;" horiz-adv-x="938" 
d="M471 669q24 18 85 18q72 0 77 -24q-13 -39 -39 -113t-49 -145t-57 -181q-43 -142 30 -142q40 0 81.5 47t66.5 127q5 17 55 180.5t70 222.5q21 14 63 14q36 0 65.5 -10t32.5 -26q-56 -139 -152 -493q-15 -58 11 -60q83 0 141 120q2 4 7 4q10 0 24.5 -10.5t11.5 -17.5
q-35 -71 -101 -131t-141 -60q-42 0 -71.5 24.5t-28.5 70.5q-33 -45 -85.5 -69t-97.5 -24q-102 0 -138 68t0 202q12 45 47 147.5t49 147.5q-17 -22 -48 -34.5t-57 -16.5t-49 -17t-29 -36q-11 -45 25 -62q11 -9 0 -38.5t-27 -30.5q-16 -2 -25 -2q-63 0 -104 41t-26 99
q11 41 43.5 65.5t77 36t91 21t94 31t77.5 56.5zM752 920q49 0 76 -26.5t20 -69.5q-5 -39 -37.5 -63.5t-78.5 -24.5q-49 0 -76 26.5t-20 69.5q5 39 37.5 63.5t78.5 24.5zM748 859q-29 0 -37 -31q-7 -31 25 -31q30 0 37 31t-25 31z" />
    <glyph glyph-name="uring" unicode="&#x16f;" horiz-adv-x="527" 
d="M334 419q11 14 57 14q75 0 94 -31q-6 -25 -20 -73t-25 -87t-20 -78t-8.5 -61.5t12.5 -21.5q21 1 57 36.5t60 85.5q3 4 8 4q11 0 25 -10.5t10 -16.5q-18 -33 -39.5 -63t-51 -60.5t-65.5 -49t-73 -17.5q-39 1 -58.5 36.5t-7.5 87.5q-77 -124 -193 -124q-135 0 -100 152
q12 53 43.5 157t35.5 119q10 15 59 15q33 0 61 -8.5t31 -22.5q-1 -4 -21.5 -78t-30.5 -113q-22 -88 -22 -103q3 -19 17 -20q25 1 57.5 44t48.5 93q27 83 59 194zM317 653q49 0 76 -26.5t20 -69.5q-5 -39 -37.5 -63.5t-78.5 -24.5q-49 0 -76 26.5t-20 69.5q5 39 37.5 63.5
t78.5 24.5zM313 592q-29 0 -37 -31q-7 -31 25 -31q30 0 37 31t-25 31z" />
    <glyph glyph-name="Uhungarumlaut" unicode="&#x170;" horiz-adv-x="938" 
d="M471 669q24 18 85 18q72 0 77 -24q-13 -39 -39 -113t-49 -145t-57 -181q-43 -142 30 -142q40 0 81.5 47t66.5 127q5 17 55 180.5t70 222.5q21 14 63 14q36 0 65.5 -10t32.5 -26q-56 -139 -152 -493q-15 -58 11 -60q83 0 141 120q2 4 7 4q10 0 24.5 -10.5t11.5 -17.5
q-35 -71 -101 -131t-141 -60q-42 0 -71.5 24.5t-28.5 70.5q-33 -45 -85.5 -69t-97.5 -24q-102 0 -138 68t0 202q12 45 47 147.5t49 147.5q-17 -22 -48 -34.5t-57 -16.5t-49 -17t-29 -36q-11 -45 25 -62q11 -9 0 -38.5t-27 -30.5q-16 -2 -25 -2q-63 0 -104 41t-26 99
q11 41 43.5 65.5t77 36t91 21t94 31t77.5 56.5zM625 785l36 93q10 28 64 28q24 0 37.5 -8t5.5 -21l-60 -102q-13 -22 -52 -22q-18 0 -27.5 8.5t-3.5 23.5zM765 785l36 93q10 28 64 28q24 0 37.5 -8t5.5 -21l-60 -102q-13 -22 -52 -22q-18 0 -27.5 8.5t-3.5 23.5z" />
    <glyph glyph-name="uhungarumlaut" unicode="&#x171;" horiz-adv-x="527" 
d="M334 419q11 14 57 14q75 0 94 -31q-6 -25 -20 -73t-25 -87t-20 -78t-8.5 -61.5t12.5 -21.5q21 1 57 36.5t60 85.5q3 4 8 4q11 0 25 -10.5t10 -16.5q-18 -33 -39.5 -63t-51 -60.5t-65.5 -49t-73 -17.5q-39 1 -58.5 36.5t-7.5 87.5q-77 -124 -193 -124q-135 0 -100 152
q12 53 43.5 157t35.5 119q10 15 59 15q33 0 61 -8.5t31 -22.5q-1 -4 -21.5 -78t-30.5 -113q-22 -88 -22 -103q3 -19 17 -20q25 1 57.5 44t48.5 93q27 83 59 194zM190 518l36 93q10 28 64 28q24 0 37.5 -8t5.5 -21l-60 -102q-13 -22 -52 -22q-18 0 -27.5 8.5t-3.5 23.5z
M330 518l36 93q10 28 64 28q24 0 37.5 -8t5.5 -21l-60 -102q-13 -22 -52 -22q-18 0 -27.5 8.5t-3.5 23.5z" />
    <glyph glyph-name="Uogonek" unicode="&#x172;" horiz-adv-x="939" 
d="M921 -153q-20 -35 -54 -54.5t-69 -19.5q-42 0 -68.5 27.5t-22.5 77.5q6 57 50 111q-48 0 -76 25.5t-27 69.5q-33 -45 -85.5 -69t-97.5 -24q-102 0 -138 68t0 203q12 45 47 146.5t49 147.5q-17 -22 -48 -35t-58 -17t-50.5 -16.5t-29.5 -35.5q-11 -43 28 -62q13 -5 3 -35.5
t-30 -33.5q-16 -2 -25 -2q-63 0 -104.5 41t-26.5 99q11 41 43.5 65.5t77 36t91.5 21t94.5 31t77.5 56.5q5 23 62 23q22 0 44 -3.5t36 -9.5t13 -12q-18 -57 -57 -182.5t-81 -260.5q-43 -142 30 -142q40 0 81.5 47t66.5 127q5 17 55 180.5t70 222.5q6 18 52 18q26 0 54 -6
t46 -16t14 -21q-26 -64 -74.5 -215t-82.5 -275q-15 -58 11 -60q83 0 141 120q2 4 7 4q10 0 24.5 -10.5t11.5 -17.5q-38 -75 -105 -136q-37 -33 -56 -76.5t-19 -76.5q0 -32 20 -32q19 0 49 31q6 6 12 6q13 0 21.5 -19.5t2.5 -29.5z" />
    <glyph glyph-name="uogonek" unicode="&#x173;" horiz-adv-x="528" 
d="M511 -153q-20 -35 -54 -54.5t-69 -19.5q-42 0 -68.5 27.5t-22.5 77.5q5 56 51 112q-36 5 -53 39.5t-6 84.5q-77 -124 -193 -124q-135 0 -100 152q17 76 71 268q5 19 82 19q21 0 39 -2.5t29 -8t9 -12.5q-47 -176 -52 -195q-21 -87 -21 -97q-2 -27 16 -26q25 1 57.5 44
t48.5 93q11 35 27.5 98.5t23.5 86.5q5 19 83 19q21 0 39 -2.5t29.5 -8t9.5 -13.5q-6 -25 -20 -73t-25.5 -88t-20.5 -79.5t-9 -62t12 -21.5q21 1 55.5 36.5t61.5 86.5q3 5 9 5q11 0 24.5 -10.5t10.5 -17.5q-14 -28 -51.5 -79t-67.5 -81q-60 -60 -60 -130q0 -32 20 -32
q19 0 49 31q6 6 12 6q13 0 21.5 -19.5t2.5 -29.5z" />
    <glyph glyph-name="Wcircumflex" unicode="&#x174;" horiz-adv-x="1246" 
d="M1199 735q4 1 12 1q39 0 73 -40t21 -65q-89 -65 -179 -379q-37 -130 -106 -195.5t-191 -65.5q-74 0 -111.5 38t-40.5 93q-68 -131 -206 -131q-212 0 -138 278q12 45 45.5 142.5t48.5 144.5q-17 -22 -48 -35t-58 -17t-50.5 -16.5t-29.5 -35.5q-11 -44 28 -63
q8 -9 -1 -36.5t-25 -31.5q-18 -2 -26 -2q-66 0 -103.5 38.5t-27.5 98.5q6 39 37 63.5t76.5 37t93 23.5t96.5 32t78 54q20 20 83 20q32 0 55.5 -6.5t24.5 -17.5q-15 -44 -38.5 -114t-47 -142.5t-57.5 -181.5q-43 -142 29 -142q30 0 67.5 47.5t61.5 126.5q22 71 76 227t63 184
q12 18 65 18q34 0 62 -9.5t32 -27.5q-88 -245 -149 -462q-30 -105 41 -105q39 0 71.5 45.5t53.5 112.5q79 257 104 319q55 138 123 172q6 3 12 5zM861 894q16 10 42 10q29 0 43 -11q12 -8 32.5 -29.5t41.5 -45t26 -28.5q15 -16 -21 -30q-21 -7 -42 -7t-28 8l-60 60l-80 -61
q-9 -6 -22 -6q-28 0 -48.5 19t0.5 37q22 19 116 84z" />
    <glyph glyph-name="wcircumflex" unicode="&#x175;" horiz-adv-x="769" 
d="M385 -8q-47 0 -76.5 28.5t-23.5 88.5q-40 -65 -91.5 -91t-99.5 -26q-52 0 -77.5 22t-25 57.5t8.5 81.5q18 83 74 261q22 18 67 18q33 0 59 -10t27 -26q-7 -24 -22 -72.5t-25.5 -87t-17.5 -72.5q-8 -33 -8 -54.5t15 -22.5q22 -1 50 31.5t49 86.5q16 43 70 210q14 17 64 17
q32 0 57.5 -9t29.5 -25q-47 -124 -66 -197q-7 -26 -11 -46.5t-5 -36.5t2.5 -24.5t11.5 -8.5q17 0 36 19q-10 23 3.5 45t36.5 22q3 0 11 -2q28 54 48.5 122.5t21.5 125.5q11 17 66 17q31 0 56 -8t29 -23q-1 -78 -33.5 -159.5t-80.5 -138.5q18 -3 35 -3q82 0 134 102q1 4 7 4
q11 0 24.5 -11t10.5 -17q-40 -76 -88 -105t-106 -29q-30 0 -72 7q-68 -61 -175 -61zM411 628q16 10 42 10q29 0 43 -11q12 -8 32.5 -29.5t41.5 -45t26 -28.5q15 -16 -21 -30q-21 -7 -42 -7t-28 8l-60 60l-80 -61q-9 -6 -22 -6q-28 0 -48.5 19t0.5 37q22 19 116 84z" />
    <glyph glyph-name="Ycircumflex" unicode="&#x176;" horiz-adv-x="922" 
d="M937 204q1 3 7 3q10 0 24.5 -10.5t10.5 -16.5q-54 -99 -112.5 -152.5t-136.5 -83.5q-13 -59 -29 -98.5t-43.5 -74.5t-71.5 -51.5t-105 -16.5q-63 0 -100.5 32.5t-30.5 85.5q6 40 27 68t59 45t67.5 25t80.5 18q30 90 36 110q-62 -73 -149 -73q-96 0 -131 67.5t0 200.5
q12 46 43.5 139t44.5 135q-17 -22 -48 -35t-57 -17t-49.5 -16.5t-29.5 -35.5q-11 -45 24 -62q13 -5 3 -35.5t-30 -33.5q-16 -2 -23 -2q-64 0 -104 39.5t-27 97.5q9 42 41.5 67t77.5 36t92 21t95.5 32.5t78.5 58.5q30 15 79 15q32 0 56 -6.5t25 -15.5q-7 -23 -50 -148.5
t-86 -269.5q-43 -141 23 -142q48 -1 89 46t66 128q103 339 116 379q16 16 60 16q36 0 68 -10.5t34 -25.5q-28 -72 -93.5 -275.5t-107.5 -345.5q113 49 186 188zM572 -92q-34 -9 -61.5 -29.5t-34.5 -39.5q-7 -20 -2 -31.5t19 -12.5q14 0 30 11.5t26 33.5q8 17 23 68zM712 896
q16 10 42 10q29 0 43 -11q12 -8 32.5 -29.5t41.5 -45t26 -28.5q15 -16 -21 -30q-21 -7 -42 -7t-28 8l-60 60l-80 -61q-9 -6 -22 -6q-28 0 -48.5 19t0.5 37q22 19 116 84z" />
    <glyph glyph-name="ycircumflex" unicode="&#x177;" horiz-adv-x="531" 
d="M124 -297q-63 0 -100 32t-30 86q4 27 14.5 48.5t29.5 37t37.5 26.5t48 19.5t50 13t55.5 11.5q20 47 40 112q-69 -97 -171 -97q-142 0 -99 161q37 140 77 266q12 14 58 14q31 0 59 -8t33 -22q-24 -81 -63 -239q-19 -77 5 -77q30 6 60 47.5t47 90.5q33 97 58 193
q14 14 56 14q33 0 62 -8.5t34 -22.5q-46 -164 -107 -385q50 21 84.5 61.5t83.5 127.5q2 3 7 3q10 0 24.5 -10.5t10.5 -17.5q-58 -106 -107.5 -158t-122.5 -80q-15 -48 -26 -76.5t-26 -59.5t-30.5 -47.5t-37.5 -30.5t-49.5 -19.5t-64.5 -5.5zM140 -202h5q32 4 49 47
q6 17 16 57q-47 -13 -73 -39q-19 -19 -20 -41.5t23 -23.5zM272 628q16 10 42 10q29 0 43 -11q12 -8 32.5 -29.5t41.5 -45t26 -28.5q15 -16 -21 -30q-21 -7 -42 -7t-28 8l-60 60l-80 -61q-9 -6 -22 -6q-28 0 -48.5 19t0.5 37q22 19 116 84z" />
    <glyph glyph-name="Ydieresis" unicode="&#x178;" horiz-adv-x="922" 
d="M937 204q1 3 7 3q10 0 24.5 -10.5t10.5 -16.5q-54 -99 -112.5 -152.5t-136.5 -83.5q-13 -59 -29 -98.5t-43.5 -74.5t-71.5 -51.5t-105 -16.5q-63 0 -100.5 32.5t-30.5 85.5q6 40 27 68t59 45t67.5 25t80.5 18q30 90 36 110q-62 -73 -149 -73q-96 0 -131 67.5t0 200.5
q12 46 43.5 139t44.5 135q-17 -22 -48 -35t-57 -17t-49.5 -16.5t-29.5 -35.5q-11 -45 24 -62q13 -5 3 -35.5t-30 -33.5q-16 -2 -23 -2q-64 0 -104 39.5t-27 97.5q9 42 41.5 67t77.5 36t92 21t95.5 32.5t78.5 58.5q30 15 79 15q32 0 56 -6.5t25 -15.5q-7 -23 -50 -148.5
t-86 -269.5q-43 -141 23 -142q48 -1 89 46t66 128q103 339 116 379q16 16 60 16q36 0 68 -10.5t34 -25.5q-28 -72 -93.5 -275.5t-107.5 -345.5q113 49 186 188zM572 -92q-34 -9 -61.5 -29.5t-34.5 -39.5q-7 -20 -2 -31.5t19 -12.5q14 0 30 11.5t26 33.5q8 17 23 68zM648 755
q-35 0 -52 21t-15 48q5 27 26.5 47.5t55.5 21.5t51.5 -20.5t13.5 -49.5q-2 -26 -24 -47t-56 -21zM827 755q-37 0 -53 21t-12 48q3 30 26.5 49.5t54.5 19.5q35 0 51 -20.5t15 -48.5q-2 -27 -24.5 -48t-57.5 -21z" />
    <glyph glyph-name="Zacute" unicode="&#x179;" horiz-adv-x="740" 
d="M650 684q22 5 40 5q39 0 70 -17.5t36 -44.5q-44 -60 -146 -246t-178 -278q55 -54 80.5 -77t63.5 -46t68 -23q19 0 36 7q28 -10 32.5 -57.5t-18.5 -69.5q-30 -10 -63 -10q-82 0 -155 57t-148 151q-39 -25 -72 -34t-81 -9q-49 0 -86 10t-62.5 38.5t-23.5 72.5
q2 54 49.5 86.5t115.5 32.5q88 0 169 -55q39 55 111 201t119 215q-31 -19 -72 -19q-28 0 -82.5 12t-78.5 12q-26 0 -44 -9q-21 -10 -28.5 -28.5t1.5 -33t29 -14.5q18 0 37 11q3 2 9 2q17 0 30.5 -26t5.5 -36q-40 -51 -118 -51q-43 0 -80 18.5t-54 51.5q-13 26 -14 58t10 62
t39 55t69 35q38 9 72 9q44 0 117 -18t109 -18q47 0 86 18zM236 143q-26 0 -40 -15.5t-4 -31.5t42 -16q40 0 73 31q-27 32 -71 32zM454 795l64 92q12 18 51 18q45 0 60 -18q7 -9 -1 -18l-91 -104q-10 -11 -35 -11q-26 0 -43.5 12t-4.5 29z" />
    <glyph glyph-name="zacute" unicode="&#x17a;" horiz-adv-x="493" 
d="M188 429q27 -36 80 -36q21 0 54 7q25 8 53 8q47 0 70.5 -26t7.5 -53q-72 -123 -184 -236q40 -16 90 -16q44 4 79 34t70 94q2 3 6 3q9 0 23.5 -11t12.5 -16q-43 -86 -109 -143.5t-151 -57.5q-27 0 -65 10.5t-61 10.5h-3q-41 -28 -76 -28q-37 0 -54 27t-2.5 58.5t57.5 43.5
l12 12q43 43 64.5 65.5t50 57.5t46.5 66q-6 -2 -20 -2q-30 0 -61 15t-46 37q-33 -103 -89 -198q-3 -6 -12 -6q-12 0 -24 10t-7 19q2 5 10 19.5t11 20.5t10.5 19.5t11 21.5t10 22t10.5 25t9.5 25.5t10.5 30t10 32.5q-31 59 -9.5 97t61.5 38q28 0 42 -25.5t1 -74.5zM251 528
l64 92q12 18 51 18q45 0 60 -18q7 -9 -1 -18l-91 -104q-10 -11 -35 -11q-26 0 -43.5 12t-4.5 29z" />
    <glyph glyph-name="Zdotaccent" unicode="&#x17b;" horiz-adv-x="740" 
d="M650 684q22 5 40 5q39 0 70 -17.5t36 -44.5q-44 -60 -146 -246t-178 -278q55 -54 80.5 -77t63.5 -46t68 -23q19 0 36 7q28 -10 32.5 -57.5t-18.5 -69.5q-30 -10 -63 -10q-82 0 -155 57t-148 151q-39 -25 -72 -34t-81 -9q-49 0 -86 10t-62.5 38.5t-23.5 72.5
q2 54 49.5 86.5t115.5 32.5q88 0 169 -55q39 55 111 201t119 215q-31 -19 -72 -19q-28 0 -82.5 12t-78.5 12q-26 0 -44 -9q-21 -10 -28.5 -28.5t1.5 -33t29 -14.5q18 0 37 11q3 2 9 2q17 0 30.5 -26t5.5 -36q-40 -51 -118 -51q-43 0 -80 18.5t-54 51.5q-13 26 -14 58t10 62
t39 55t69 35q38 9 72 9q44 0 117 -18t109 -18q47 0 86 18zM236 143q-26 0 -40 -15.5t-4 -31.5t42 -16q40 0 73 31q-27 32 -71 32zM514 759q-39 0 -55.5 22t-11.5 49q6 29 28.5 50t58.5 22q35 1 52.5 -21.5t12.5 -51.5q-4 -27 -27 -48.5t-58 -21.5z" />
    <glyph glyph-name="zdotaccent" unicode="&#x17c;" horiz-adv-x="493" 
d="M188 429q27 -36 80 -36q21 0 54 7q25 8 53 8q47 0 70.5 -26t7.5 -53q-72 -123 -184 -236q40 -16 90 -16q44 4 79 34t70 94q2 3 6 3q9 0 23.5 -11t12.5 -16q-43 -86 -109 -143.5t-151 -57.5q-27 0 -65 10.5t-61 10.5h-3q-41 -28 -76 -28q-37 0 -54 27t-2.5 58.5t57.5 43.5
l12 12q43 43 64.5 65.5t50 57.5t46.5 66q-6 -2 -20 -2q-30 0 -61 15t-46 37q-33 -103 -89 -198q-3 -6 -12 -6q-12 0 -24 10t-7 19q2 5 10 19.5t11 20.5t10.5 19.5t11 21.5t10 22t10.5 25t9.5 25.5t10.5 30t10 32.5q-31 59 -9.5 97t61.5 38q28 0 42 -25.5t1 -74.5zM311 492
q-39 0 -55.5 22t-11.5 49q6 29 28.5 50t58.5 22q35 1 52.5 -21.5t12.5 -51.5q-4 -27 -27 -48.5t-58 -21.5z" />
    <glyph glyph-name="Zcaron" unicode="&#x17d;" horiz-adv-x="740" 
d="M650 684q22 5 40 5q39 0 70 -17.5t36 -44.5q-44 -60 -146 -246t-178 -278q55 -54 80.5 -77t63.5 -46t68 -23q19 0 36 7q28 -10 32.5 -57.5t-18.5 -69.5q-30 -10 -63 -10q-82 0 -155 57t-148 151q-39 -25 -72 -34t-81 -9q-49 0 -86 10t-62.5 38.5t-23.5 72.5
q2 54 49.5 86.5t115.5 32.5q88 0 169 -55q39 55 111 201t119 215q-31 -19 -72 -19q-28 0 -82.5 12t-78.5 12q-26 0 -44 -9q-21 -10 -28.5 -28.5t1.5 -33t29 -14.5q18 0 37 11q3 2 9 2q17 0 30.5 -26t5.5 -36q-40 -51 -118 -51q-43 0 -80 18.5t-54 51.5q-13 26 -14 58t10 62
t39 55t69 35q38 9 72 9q44 0 117 -18t109 -18q47 0 86 18zM236 143q-26 0 -40 -15.5t-4 -31.5t42 -16q40 0 73 31q-27 32 -71 32zM552 764q-16 -10 -42 -10q-29 0 -43 11q-12 8 -32.5 29.5t-41.5 45t-26 28.5q-15 16 19 29q20 8 41 8t28 -8l57 -63l86 64q9 6 22 6
q28 0 48.5 -19t-0.5 -37q-22 -19 -116 -84z" />
    <glyph glyph-name="zcaron" unicode="&#x17e;" horiz-adv-x="493" 
d="M188 429q27 -36 80 -36q21 0 54 7q25 8 53 8q47 0 70.5 -26t7.5 -53q-72 -123 -184 -236q40 -16 90 -16q44 4 79 34t70 94q2 3 6 3q9 0 23.5 -11t12.5 -16q-43 -86 -109 -143.5t-151 -57.5q-27 0 -65 10.5t-61 10.5h-3q-41 -28 -76 -28q-37 0 -54 27t-2.5 58.5t57.5 43.5
l12 12q43 43 64.5 65.5t50 57.5t46.5 66q-6 -2 -20 -2q-30 0 -61 15t-46 37q-33 -103 -89 -198q-3 -6 -12 -6q-12 0 -24 10t-7 19q2 5 10 19.5t11 20.5t10.5 19.5t11 21.5t10 22t10.5 25t9.5 25.5t10.5 30t10 32.5q-31 59 -9.5 97t61.5 38q28 0 42 -25.5t1 -74.5zM349 497
q-16 -10 -42 -10q-29 0 -43 11q-12 8 -32.5 29.5t-41.5 45t-26 28.5q-15 16 19 29q20 8 41 8t28 -8l57 -63l86 64q9 6 22 6q28 0 48.5 -19t-0.5 -37q-22 -19 -116 -84z" />
    <glyph glyph-name="florin" unicode="&#x192;" horiz-adv-x="721" 
d="M700 606q11 -14 -10 -43t-41 -29q-7 0 -12 5q-34 34 -73 34q-33 0 -52 -24t-31 -76l-29 -125h83q17 0 22 -21.5t-5.5 -43t-31.5 -21.5l-90 -1l-93 -381q-12 -47 -24.5 -79t-34 -63t-55.5 -46.5t-80 -15.5q-95 0 -138 66q-13 20 8.5 48.5t45.5 28.5q9 0 16 -6
q24 -22 63 -22q24 1 39 33.5t30 96.5l83 340h-64q-16 1 -20.5 23t6 43.5t31.5 21.5h69l33 138q22 89 67 138t128 49q105 0 160 -68z" />
    <glyph glyph-name="Scommaaccent" unicode="&#x218;" horiz-adv-x="613" 
d="M608 510q-12 -24 -61 -24q-24 0 -45 8t-26 21q12 85 -53 85q-23 -1 -41 -17.5t-21 -56.5q-3 -33 17 -66t50.5 -62.5t60.5 -60.5t50 -73t17 -87q-7 -93 -78 -140t-185 -46q-79 1 -129.5 28t-68.5 70.5t-18 90.5t17 95q15 16 53 16q29 0 52.5 -9.5t27.5 -24.5
q-18 -79 6 -126.5t70 -49.5q41 0 65 22.5t26 63.5q3 38 -18 74t-52 66.5t-61.5 62.5t-49.5 74.5t-14 90.5q4 44 24.5 75.5t52.5 49t68 25.5t79 8q102 -3 151.5 -51t33.5 -132zM204 -232l33 123q4 14 22.5 22t40.5 8q23 0 37 -8t8 -23l-50 -132q-10 -24 -51 -24
q-20 0 -32 8.5t-8 25.5z" />
    <glyph glyph-name="scommaaccent" unicode="&#x219;" horiz-adv-x="490" 
d="M189 -13q-43 0 -84 20.5t-58 64.5q6 19 28.5 34t43.5 15q6 0 14 -2q5 -14 18 -26t30 -13q17 0 27 9q-19 20 -13 44.5t30 29.5q-7 101 -34 207q-31 -30 -74 -95t-74 -120q-3 -6 -11 -6q-13 0 -25 10t-7 19q82 155 172 245q53 53 120 53q45 0 61.5 -26t-12.5 -72
q4 -14 14 -53t13 -51.5t9 -41.5t7 -45t0.5 -39t-4.5 -45q76 6 124 102q2 3 6 3q10 0 24.5 -11t12.5 -16q-67 -131 -194 -133q-49 -61 -164 -61zM120 -230l33 123q4 14 22.5 22t40.5 8q23 0 37 -8t8 -23l-50 -132q-10 -24 -51 -24q-20 0 -32 8.5t-8 25.5z" />
    <glyph glyph-name="uni021A" unicode="&#x21a;" horiz-adv-x="727" 
d="M222 667q64 25 128 25q57 0 163.5 -28t165.5 -28q21 0 31 1q45 4 61 26.5t11 65.5q19 21 55 21q17 0 27 -6q37 -44 29.5 -101.5t-39.5 -84.5q-58 -50 -168 -50q-8 0 -25.5 0.5t-26.5 0.5q-62 -197 -72 -226q-47 -134 -68 -171q-47 -88 -133 -111q-36 -9 -82 -9
q-51 0 -89 15.5t-57.5 41t-26.5 55t-1 59.5q8 36 32 61t61 34q32 1 61 -22t25 -45q-21 -21 -26 -47.5t5.5 -44.5t30.5 -18q29 1 52.5 53t55.5 160q71 236 80 263q-88 30 -127 30q-28 0 -44 -12q-29 -22 -25.5 -49.5t30.5 -27.5q16 0 36 15q17 -1 30 -17t17 -37
q-41 -66 -124 -66q-37 0 -70.5 16.5t-53.5 47.5q-21 33 -22 74.5t23.5 79.5t69.5 56zM233 -232l33 123q4 14 22.5 22t40.5 8q23 0 37 -8t8 -23l-50 -132q-10 -24 -51 -24q-20 0 -32 8.5t-8 25.5z" />
    <glyph glyph-name="uni021B" unicode="&#x21b;" horiz-adv-x="338" 
d="M167 -8q-48 0 -80.5 13t-48.5 39.5t-23 57.5t-2.5 77t13 87t22.5 98h-25q-15 8 -8 46.5t23 41.5h34q62 197 71 223q12 14 57 14q35 0 66 -10t35 -27q-28 -88 -60 -200h62q17 -16 11.5 -48.5t-20.5 -39.5h-77q-34 -117 -39 -137q-17 -62 -15 -103t31 -43q96 0 158 123
q1 4 7 4q11 0 25 -11t11 -17q-45 -93 -99.5 -140.5t-128.5 -47.5zM51 -230l33 123q4 14 22.5 22t40.5 8q23 0 37 -8t8 -23l-50 -132q-10 -24 -51 -24q-20 0 -32 8.5t-8 25.5z" />
    <glyph glyph-name="circumflex" unicode="&#x2c6;" horiz-adv-x="386" 
d="M167 859q16 10 42 10q29 0 43 -11q12 -8 32.5 -29.5t41.5 -45t26 -28.5q15 -16 -21 -30q-21 -7 -42 -7t-28 8l-60 60l-80 -61q-9 -6 -22 -6q-28 0 -48.5 19t0.5 37q22 19 116 84z" />
    <glyph glyph-name="caron" unicode="&#x2c7;" horiz-adv-x="386" 
d="M224 728q-16 -10 -42 -10q-29 0 -43 11q-12 8 -32.5 29.5t-41.5 45t-26 28.5q-15 16 19 29q20 8 41 8t28 -8l57 -63l86 64q9 6 22 6q28 0 48.5 -19t-0.5 -37q-22 -19 -116 -84z" />
    <glyph glyph-name="breve" unicode="&#x2d8;" horiz-adv-x="368" 
d="M172 717q-61 0 -100.5 35.5t-33.5 97.5q1 19 38 19q32 0 34 -15q6 -53 65 -53q60 0 84 55q6 13 30 13q19 0 34 -8t11 -21q-14 -58 -58 -90.5t-104 -32.5z" />
    <glyph glyph-name="dotaccent" unicode="&#x2d9;" horiz-adv-x="220" 
d="M101 725q-39 0 -55.5 22t-11.5 49q6 29 28.5 50t58.5 22q35 1 52.5 -21.5t12.5 -51.5q-4 -27 -27 -48.5t-58 -21.5z" />
    <glyph glyph-name="ring" unicode="&#x2da;" horiz-adv-x="288" 
d="M154 885q49 0 76 -26.5t20 -69.5q-5 -39 -37.5 -63.5t-78.5 -24.5q-49 0 -76 26.5t-20 69.5q5 39 37.5 63.5t78.5 24.5zM150 824q-29 0 -37 -31q-7 -31 25 -31q30 0 37 31t-25 31z" />
    <glyph glyph-name="ogonek" unicode="&#x2db;" horiz-adv-x="325" 
d="M259 -153q-20 -35 -54 -54.5t-69 -19.5q-42 0 -68.5 27.5t-22.5 77.5q3 29 17.5 58.5t30 50t47 48.5t47 40t50.5 38q9 6 17 6q17 0 24.5 -15t-6.5 -25q-55 -36 -86.5 -91.5t-31.5 -96.5q0 -32 20 -32q19 0 49 31q6 6 12 6q13 0 21.5 -19.5t2.5 -29.5z" />
    <glyph glyph-name="tilde" unicode="&#x2dc;" horiz-adv-x="393" 
d="M239 727q-23 1 -59 18t-49 17q-30 0 -51 -28q-3 -3 -7 -3q-15 0 -35 18t-14 31q15 34 44 54t65 20q23 -1 57 -17.5t51 -16.5q30 0 52 25q3 3 7 3q14 0 30 -19t10 -32q-15 -31 -41.5 -50.5t-59.5 -19.5z" />
    <glyph glyph-name="hungarumlaut" unicode="&#x2dd;" horiz-adv-x="376" 
d="M46 750l36 93q10 28 64 28q24 0 37.5 -8t5.5 -21l-60 -102q-13 -22 -52 -22q-18 0 -27.5 8.5t-3.5 23.5zM186 750l36 93q10 28 64 28q24 0 37.5 -8t5.5 -21l-60 -102q-13 -22 -52 -22q-18 0 -27.5 8.5t-3.5 23.5z" />
    <glyph glyph-name="gravecomb" unicode="&#x300;" 
d="M-297 851l64 -92q12 -17 -4 -29t-41 -12q-24 0 -34 11l-91 104q-15 18 19 30q18 6 38 6q37 0 49 -18z" />
    <glyph glyph-name="acutecomb" unicode="&#x301;" 
d="M-343 759l64 92q12 18 51 18q45 0 60 -18q7 -9 -1 -18l-91 -104q-10 -11 -35 -11q-26 0 -43.5 12t-4.5 29z" />
    <glyph glyph-name="circumflexcmb" unicode="&#x302;" 
d="M-319 859q16 10 42 10q29 0 43 -11q12 -8 32.5 -29.5t41.5 -45t26 -28.5q15 -16 -21 -30q-21 -7 -42 -7t-28 8l-60 60l-80 -61q-9 -6 -22 -6q-28 0 -48.5 19t0.5 37q22 19 116 84z" />
    <glyph glyph-name="tildecomb" unicode="&#x303;" 
d="M-241 727q-23 1 -59 18t-49 17q-30 0 -51 -28q-3 -3 -7 -3q-15 0 -35 18t-14 31q15 34 44 54t65 20q23 -1 57 -17.5t51 -16.5q30 0 52 25q3 3 7 3q14 0 30 -19t10 -32q-15 -31 -41.5 -50.5t-59.5 -19.5z" />
    <glyph glyph-name="macroncmb" unicode="&#x304;" 
d="M-362 737h-41q-17 0 -20.5 21.5t6.5 42.5t26 21q46 -1 159 -1h68q17 0 19.5 -20.5t-7 -41.5t-23.5 -21q-30 0 -94 -0.5t-93 -0.5z" />
    <glyph glyph-name="brevecmb" unicode="&#x306;" 
d="M-285 717q-61 0 -100.5 35.5t-33.5 97.5q1 19 38 19q33 0 34 -15q6 -53 65 -53q60 0 84 55q6 13 30 13q19 0 34 -8t11 -21q-14 -58 -58 -90.5t-104 -32.5z" />
    <glyph glyph-name="dotnosp" unicode="&#x307;" 
d="M-289 723q-39 0 -55.5 22t-11.5 49q6 29 28.5 50t58.5 22q35 1 52.5 -21.5t12.5 -51.5q-4 -27 -27 -48.5t-58 -21.5z" />
    <glyph glyph-name="dieresiscmb" unicode="&#x308;" 
d="M-372 744q-35 0 -52 21t-15 48q5 27 26.5 47.5t55.5 21.5t51.5 -20.5t13.5 -49.5q-2 -26 -24 -47t-56 -21zM-193 744q-37 0 -53 21t-12 48q3 30 26.5 49.5t54.5 19.5q35 0 51 -20.5t15 -48.5q-2 -27 -24.5 -48t-57.5 -21z" />
    <glyph glyph-name="ringcmb" unicode="&#x30a;" 
d="M-276 885q49 0 76 -26.5t20 -69.5q-5 -39 -37.5 -63.5t-78.5 -24.5q-49 0 -76 26.5t-20 69.5q5 39 37.5 63.5t78.5 24.5zM-280 824q-29 0 -37 -31q-7 -31 25 -31q30 0 37 31t-25 31z" />
    <glyph glyph-name="acutedblnosp" unicode="&#x30b;" 
d="M-397 750l36 93q10 28 64 28q24 0 37.5 -8t5.5 -21l-60 -102q-13 -22 -52 -22q-18 0 -27.5 8.5t-3.5 23.5zM-257 750l36 93q10 28 64 28q24 0 37.5 -8t5.5 -21l-60 -102q-13 -22 -52 -22q-18 0 -27.5 8.5t-3.5 23.5z" />
    <glyph glyph-name="caroncmb" unicode="&#x30c;" 
d="M-249 728q-16 -10 -42 -10q-29 0 -43 11q-12 8 -32.5 29.5t-41.5 45t-26 28.5q-15 16 19 29q20 8 41 8t28 -8l57 -63l86 64q9 6 22 6q28 0 48.5 -19t-0.5 -37q-22 -19 -116 -84z" />
    <glyph glyph-name="commasubnosp" unicode="&#x326;" 
d="M-508 -230l33 123q4 14 22.5 22t40.5 8q23 0 37 -8t8 -23l-50 -132q-10 -24 -51 -24q-20 0 -32 8.5t-8 25.5z" />
    <glyph glyph-name="cedillacmb" unicode="&#x327;" 
d="M-483 -53l69 104l76 -9l-69 -86q43 -7 60.5 -38t3.5 -66q-12 -31 -43.5 -51t-70.5 -20q-50 0 -95 34q-9 6 3 28t22 22q36 -20 56 -20q24 0 36 22q25 44 -35 47q-15 1 -18.5 10.5t5.5 22.5z" />
    <glyph glyph-name="ogonekcmb" unicode="&#x328;" 
d="M-111 -153q-20 -35 -54 -54.5t-69 -19.5q-42 0 -68.5 27.5t-22.5 77.5q3 29 17.5 58.5t30 50t47 48.5t47 40t50.5 38q9 6 17 6q17 0 24.5 -15t-6.5 -25q-55 -36 -86.5 -91.5t-31.5 -96.5q0 -32 20 -32q19 0 49 31q6 6 12 6q13 0 21.5 -19.5t2.5 -29.5z" />
    <glyph glyph-name="Io" unicode="&#x401;" horiz-adv-x="612" 
d="M301 684q4 -28 11 -42q61 52 165 52q80 0 136 -35.5t53 -100.5q-3 -70 -51 -101t-122 -31q-32 1 -65.5 15t-53.5 33q4 -40 33 -68.5t82 -36.5q14 -15 4 -48.5t-29 -38.5q-19 4 -45 4q-56 0 -98.5 -22.5t-50.5 -68.5q-6 -34 5 -57.5t35 -34.5t46.5 -15.5t48.5 -4.5
q69 0 128.5 31.5t92.5 89.5q3 5 8 5q11 0 24 -11.5t11 -16.5q-47 -93 -130.5 -141.5t-190.5 -48.5q-38 0 -73.5 6t-69.5 21.5t-57.5 38.5t-34.5 60t-4 84q13 78 72 120t132 45q-38 16 -56 59.5t-14.5 88.5t21.5 76q-21 40 -23 92q0 9 9.5 14.5t22.5 5.5q25 0 28 -18z
M392 549q41 -36 89 -36q45 2 48 45q1 17 -15 27.5t-39 10.5q-57 0 -83 -47zM400 753q-35 0 -52 21t-15 48q5 27 26.5 47.5t55.5 21.5t51.5 -20.5t13.5 -49.5q-2 -26 -24 -47t-56 -21zM579 753q-37 0 -53 21t-12 48q3 30 26.5 49.5t54.5 19.5q35 0 51 -20.5t15 -48.5
q-2 -27 -24.5 -48t-57.5 -21z" />
    <glyph glyph-name="Dje" unicode="&#x402;" horiz-adv-x="856" 
d="M458 -264q-111 0 -161 52q-19 22 4.5 55t52.5 33q10 0 17 -6q27 -22 77 -22q49 4 92.5 68.5t73.5 185.5q32 129 29 162t-32 37q-1 0 -4 0.5t-4 0.5q-55 0 -110 -94q-7 -27 -25 -97t-27 -103q-2 -8 -30.5 -14.5t-60.5 -6.5t-53 8t-17 23q87 334 150 533q-85 39 -117 39
q-53 0 -61 -35q-5 -16 5 -30t28 -14q12 0 22 5q6 2 8 2q18 0 30.5 -29.5t3.5 -37.5q-42 -39 -98 -39q-65 0 -112 47t-35 113q11 63 67.5 92.5t126.5 29.5q58 0 121.5 -22.5t129.5 -45.5t127 -24h4q44 0 60 18.5t12 60.5q1 9 19.5 15.5t38.5 6.5t27 -8q24 -31 22 -66.5
t-18 -65.5t-38 -45q-48 -34 -126 -34q-44 0 -99 12q-8 -26 -22.5 -76t-17.5 -59q58 46 133 46q11 0 17 -1q71 -8 89.5 -78t-11.5 -228q-33 -169 -114.5 -263.5t-193.5 -100.5z" />
    <glyph glyph-name="c.Gje" unicode="&#x403;" horiz-adv-x="609" 
d="M623 204q3 5 8 5q10 0 24 -11.5t11 -17.5q-101 -191 -327 -191q-91 0 -150.5 40.5t-57.5 124.5q1 61 30.5 110t69.5 80t105 65q32 17 49.5 27.5t40 27.5t34 35.5t14.5 39.5q4 29 -12.5 47t-43.5 20q-77 0 -111 -71q-11 -25 -56 -25q-22 0 -37.5 9.5t-15.5 26.5
q12 81 76 118t148 37q4 0 12 -0.5t11 -0.5q83 -5 135 -47.5t50 -110.5q-3 -77 -47.5 -125.5t-146.5 -109.5q-83 -49 -105 -71q-35 -35 -37 -76q-2 -45 27 -62t79 -17q70 0 131.5 32t91.5 91zM397 794l64 92q12 18 51 18q45 0 60 -18q7 -9 -1 -18l-91 -104q-10 -11 -35 -11
q-26 0 -43.5 12t-4.5 29z" />
    <glyph glyph-name="Ecyril" unicode="&#x404;" horiz-adv-x="609" 
d="M623 204q2 5 8 5q10 0 24 -11.5t11 -17.5q-99 -189 -310 -190q-129 -1 -207 74t-70 225q9 164 124.5 283.5t272.5 119.5q17 0 26 -1q84 -6 118 -51t14 -117q-10 -19 -54 -19q-40 0 -46 20q15 71 -57 74q-92 0 -152 -70t-80 -169q42 -2 71 -2q88 0 141 5q17 -5 16.5 -37.5
t-12.5 -42.5q-52 -8 -158 -8q-28 0 -66 2q-3 -89 33 -137.5t106 -54.5q9 -1 27 -1q71 0 132 31.5t88 89.5z" />
    <glyph glyph-name="Dze" unicode="&#x405;" horiz-adv-x="613" 
d="M608 510q-12 -24 -61 -24q-24 0 -45 8t-26 21q12 85 -53 85q-23 -1 -41 -17.5t-21 -56.5q-3 -33 17 -66t50.5 -62.5t60.5 -60.5t50 -73t17 -87q-7 -93 -78 -140t-185 -46q-79 1 -129.5 28t-68.5 70.5t-18 90.5t17 95q15 16 53 16q29 0 52.5 -9.5t27.5 -24.5
q-18 -79 6 -126.5t70 -49.5q41 0 65 22.5t26 63.5q3 38 -18 74t-52 66.5t-61.5 62.5t-49.5 74.5t-14 90.5q4 44 24.5 75.5t52.5 49t68 25.5t79 8q102 -3 151.5 -51t33.5 -132z" />
    <glyph glyph-name="Icyril" unicode="&#x406;" horiz-adv-x="580" 
d="M479 667q25 20 87 20q64 0 78 -21q-4 -10 -130 -383q-2 -7 -7 -21q-15 -45 -23 -66.5t-22.5 -56.5t-27 -52t-33 -39t-43.5 -32t-54.5 -17.5t-70.5 -7.5q-111 -1 -157 73q-36 58 -12 121q24 60 90 73q29 0 57 -21.5t27 -46.5q-21 -22 -26.5 -48t4.5 -43t31 -17
q11 0 21 6.5t19 22t16.5 31t17 43.5t15.5 48.5t17 57.5t18 60q4 11 27 87.5t37 115.5q-22 -26 -64 -38t-74.5 -24t-40.5 -40q-14 -50 26 -62q7 -15 -2 -39t-26 -31q-18 -2 -26 -2q-62 0 -102 40t-29 98q8 43 40 68t76.5 36t91.5 20.5t95.5 30.5t78.5 56z" />
    <glyph glyph-name="Yi" unicode="&#x407;" horiz-adv-x="580" 
d="M479 667q25 20 87 20q64 0 78 -21q-4 -10 -130 -383q-2 -7 -7 -21q-15 -45 -23 -66.5t-22.5 -56.5t-27 -52t-33 -39t-43.5 -32t-54.5 -17.5t-70.5 -7.5q-111 -1 -157 73q-36 58 -12 121q24 60 90 73q29 0 57 -21.5t27 -46.5q-21 -22 -26.5 -48t4.5 -43t31 -17
q11 0 21 6.5t19 22t16.5 31t17 43.5t15.5 48.5t17 57.5t18 60q4 11 27 87.5t37 115.5q-22 -26 -64 -38t-74.5 -24t-40.5 -40q-14 -50 26 -62q7 -15 -2 -39t-26 -31q-18 -2 -26 -2q-62 0 -102 40t-29 98q8 43 40 68t76.5 36t91.5 20.5t95.5 30.5t78.5 56zM501 753
q-35 0 -52 21t-15 48q5 27 26.5 47.5t55.5 21.5t51.5 -20.5t13.5 -49.5q-2 -26 -24 -47t-56 -21zM680 753q-37 0 -53 21t-12 48q3 30 26.5 49.5t54.5 19.5q35 0 51 -20.5t15 -48.5q-2 -27 -24.5 -48t-57.5 -21z" />
    <glyph glyph-name="Je" unicode="&#x408;" horiz-adv-x="604" 
d="M169 -297q-70 -1 -106.5 34t-31 83t43.5 86q57 57 201 81q100 363 167 569q-17 -22 -47 -35t-55 -17t-48 -16t-30 -33q-17 -51 23 -65q7 -5 5.5 -20t-13 -32.5t-24.5 -18.5q-6 -1 -17 -1q-65 0 -106 41.5t-25 101.5q11 41 43.5 65t77 34t90.5 19t93.5 31t77.5 59
q25 19 82 19q70 0 78 -24q-36 -104 -108 -326.5t-100 -321.5q54 25 95.5 68t83.5 120q1 3 7 3q11 0 25 -10.5t10 -17.5q-55 -98 -110.5 -151t-131.5 -84q-16 -50 -27 -78.5t-31.5 -64t-44 -53.5t-61 -31t-86.5 -14zM175 -205q31 0 51 35.5t27 73.5q-78 -23 -95 -64
q-7 -20 -2 -32t19 -13z" />
    <glyph glyph-name="Lje" unicode="&#x409;" horiz-adv-x="1062" 
d="M856 506q60 -1 107.5 -34.5t69.5 -99t4 -147.5q-25 -115 -99 -175t-192 -60q-190 0 -216 179q-8 59 -3.5 141t16.5 143h-3q-30 -126 -75 -237q-44 -109 -104 -166.5t-163 -57.5q-86 0 -137 41t-43 116q4 39 27.5 68t61.5 39q3 1 11 1q27 0 55.5 -24.5t24.5 -42.5
q-18 -19 -25 -40t-4.5 -36t13 -24.5t25.5 -9.5q52 1 115.5 121t152.5 362q-20 -20 -66 -35t-81.5 -32t-42.5 -47q-11 -44 25 -61q11 -5 2 -34t-29 -35q-16 -2 -24 -2q-63 0 -104 43t-26 101q10 42 44 68t80 39t94 23t97 29.5t78 49.5q20 20 66 20q32 0 56 -9.5t23 -25.5
q-24 -147 -26 -279q37 60 94.5 95.5t120.5 34.5zM884 238q17 71 -0.5 114t-65.5 47q-75 0 -116.5 -56t-43.5 -135q3 -55 28.5 -85t69.5 -30q92 0 128 145z" />
    <glyph glyph-name="Nje" unicode="&#x40a;" horiz-adv-x="1257" 
d="M310 -8q-105 -1 -147 48t-29 114q10 51 41 87.5t75.5 55t90 26t97.5 7.5q40 122 89 244q-32 -33 -86 -33q-16 0 -48 3.5t-47 3.5q-38 0 -62 -17q-27 -19 -18 -49q7 -22 31 -22q14 0 27 8q20 1 33.5 -23.5t7.5 -34.5q-43 -50 -111 -50q-38 0 -71 17t-51 45q-34 55 -17 116
q15 56 69 83.5t117 27.5q30 0 80.5 -9t72.5 -9q59 0 105 45q16 16 63 16q36 0 66.5 -8.5t30.5 -19.5q-45 -125 -114 -338q60 2 115 24q22 83 100 326q15 13 66 13q87 0 94 -35q-18 -49 -45.5 -134.5t-33.5 -101.5q58 47 139 47q94 0 141.5 -61.5t22.5 -178.5
q-50 -235 -339 -235q-54 1 -99.5 12.5t-79 32t-47 31.5t-32.5 29q-9 23 11 53.5t41 30.5h4q94 -94 202 -94q138 0 183 153q40 133 -48 138q-42 0 -73 -15.5t-51 -48t-30.5 -60t-23.5 -73.5q-9 -8 -34 -8q-32 0 -62.5 15t-36.5 40l9 38q-51 -18 -120 -22q-45 -123 -72 -162
q-50 -74 -150 -85q-22 -3 -46 -3zM321 82q26 -1 46.5 36t43.5 115q-55 -7 -80 -27t-38 -53q-11 -23 -2.5 -46.5t30.5 -24.5z" />
    <glyph glyph-name="Tshe" unicode="&#x40b;" horiz-adv-x="846" 
d="M675 -8q-3 0 -8.5 -0.5t-7.5 -0.5q-110 0 -94 113q8 58 46 172q14 43 -16 43h-5q-32 -3 -74 -42q-50 -188 -70 -269q-2 -8 -30.5 -14t-61.5 -6q-35 0 -56.5 7.5t-17.5 22.5q74 276 150 533q-83 38 -118 38q-52 0 -60 -37q-2 -16 7.5 -29t26.5 -13q10 0 22 6q6 2 8 2
q18 0 31 -28.5t3 -38.5q-38 -38 -96 -38q-67 0 -115.5 47t-33.5 112q14 63 69 92.5t125 29.5q58 0 121.5 -22.5t129.5 -45.5t127 -24h4q44 0 60 19t11 61q4 8 21.5 14.5t35.5 6.5q21 0 30 -9q23 -31 21 -66t-18 -65t-38 -45q-48 -34 -126 -34q-45 0 -100 12
q-22 -75 -37 -134q87 66 154 66q63 0 83.5 -37t-0.5 -96q-3 -11 -10.5 -31.5t-14 -38.5t-13.5 -39.5t-10.5 -38.5t-4.5 -32t4 -23t16 -8h2q24 1 58 37.5t55 82.5q1 4 7 4q11 0 25.5 -11t10.5 -17q-96 -179 -228 -188z" />
    <glyph glyph-name="Kje" unicode="&#x40c;" horiz-adv-x="906" 
d="M765 670q18 18 67 18q31 0 58 -7.5t32 -18.5q-32 -118 -96.5 -206t-159.5 -123q19 -10 36 -32t25 -48q10 -32 19 -98t24.5 -110t50.5 -68q13 -28 -17 -69.5t-76 -41.5q-2 0 -5 0.5t-5 0.5q-35 12 -58.5 40.5t-34.5 68.5t-16.5 76.5t-9.5 81t-8 64.5q-8 40 -21 59t-42 24
q-16 -54 -27 -85.5t-27.5 -69.5t-35 -58.5t-45 -40t-61 -27.5t-79.5 -8q-111 -1 -157 73q-36 58 -10 120q23 58 86 73q27 1 57 -19.5t30 -47.5q-21 -21 -26.5 -47.5t5 -44.5t31.5 -18q40 1 83 135q18 57 32.5 104.5t34 112t36.5 121.5q-18 -19 -48.5 -32t-56 -18t-47.5 -19
t-28 -36q-11 -44 26 -61q9 -5 0.5 -33t-28.5 -36q-16 -2 -24 -2q-63 0 -104 43t-26 101q10 41 43 65.5t77.5 35.5t91 20t94 30t76.5 56q18 20 86 20q69 0 75 -22q-30 -79 -94 -267q29 12 52.5 28.5t42.5 39t31.5 39t25.5 46t18 41t15.5 42.5t11.5 35zM666 794l64 92
q12 18 51 18q45 0 60 -18q7 -9 -1 -18l-91 -104q-10 -11 -35 -11q-26 0 -43.5 12t-4.5 29z" />
    <glyph glyph-name="c.Igrave" unicode="&#x40d;" horiz-adv-x="938" 
d="M471 669q24 18 85 18q72 0 77 -24q-13 -39 -39 -113t-49 -145t-57 -181q-43 -142 30 -142q40 0 81.5 47t66.5 127q5 17 55 180.5t70 222.5q21 14 63 14q36 0 65.5 -10t32.5 -26q-56 -139 -152 -493q-15 -58 11 -60q83 0 141 120q2 4 7 4q10 0 24.5 -10.5t11.5 -17.5
q-35 -71 -101 -131t-141 -60q-42 0 -71.5 24.5t-28.5 70.5q-33 -45 -85.5 -69t-97.5 -24q-102 0 -138 68t0 202q12 45 47 147.5t49 147.5q-17 -22 -48 -34.5t-57 -16.5t-49 -17t-29 -36q-11 -45 25 -62q11 -9 0 -38.5t-27 -30.5q-16 -2 -25 -2q-63 0 -104 41t-26 99
q11 41 43.5 65.5t77 36t91 21t94 31t77.5 56.5zM712 885l64 -92q12 -17 -4 -29t-41 -12q-24 0 -34 11l-91 104q-15 18 19 30q18 6 38 6q37 0 49 -18z" />
    <glyph glyph-name="c.Yushort" unicode="&#x40e;" horiz-adv-x="882" 
d="M504 -8q-116 0 -187 73q-17 17 9 50.5t50 33.5q6 0 10 -3q23 -20 36 -29t34.5 -17t45.5 -8q87 2 143 185q-75 -80 -177 -80q-51 0 -82 26t-35 77q-8 86 43 251q-21 -22 -64.5 -33t-77 -24t-41.5 -42q-11 -44 26 -62q13 -5 3 -35.5t-30 -33.5q-18 -2 -26 -2
q-63 0 -103.5 39.5t-25.5 97.5q11 42 43.5 67t77.5 36.5t91.5 21.5t94.5 32.5t78 58.5q11 23 68 23q21 0 41.5 -3.5t32.5 -9.5t10 -12q-49 -144 -72 -240q-33 -142 18 -142h6q39 5 89.5 69t78.5 148q8 25 24.5 76t24.5 77q6 18 49 18q24 0 50 -6t43 -16.5t14 -21.5
q-57 -195 -114 -364q-22 -66 -44 -110t-56 -85t-83.5 -61t-115.5 -20zM815 882q3 3 7 3q15 0 26.5 -25.5t1.5 -38.5q-24 -33 -70 -52t-94 -19q-41 0 -70.5 15t-35.5 44q-5 22 17 47t38 25q5 0 8 -4q18 -27 66 -27q29 0 60 9.5t46 22.5z" />
    <glyph glyph-name="Dzhe" unicode="&#x40f;" horiz-adv-x="938" 
d="M471 669q24 18 85 18q72 0 77 -24q-13 -39 -39 -113t-49 -145t-57 -181q-43 -142 30 -142q40 0 81.5 47t66.5 127q5 17 55 180.5t70 222.5q21 14 63 14q36 0 65.5 -10t32.5 -26q-56 -139 -152 -493q-15 -58 11 -60q83 0 141 120q2 4 7 4q10 0 24.5 -10.5t11.5 -17.5
q-35 -71 -101 -131t-141 -60q-42 0 -71.5 24.5t-28.5 70.5q-33 -45 -85.5 -69t-97.5 -24q-102 0 -138 68t0 202q12 45 47 147.5t49 147.5q-17 -22 -48 -34.5t-57 -16.5t-49 -17t-29 -36q-11 -45 25 -62q11 -9 0 -38.5t-27 -30.5q-16 -2 -25 -2q-63 0 -104 41t-26 99
q11 41 43.5 65.5t77 36t91 21t94 31t77.5 56.5zM421 -231l33 123q4 14 22.5 22t40.5 8q23 0 37 -8t8 -23l-50 -132q-10 -24 -51 -24q-20 0 -32 8.5t-8 25.5z" />
    <glyph glyph-name="c.A" unicode="&#x410;" horiz-adv-x="917" 
d="M255 -8q-95 0 -139.5 41.5t-33.5 116.5q13 86 96.5 134t201.5 48q4 0 13 -0.5t14 -0.5q4 8 16 35.5t15.5 35t14 30.5t14.5 31t14 27.5t15.5 28.5t15.5 25t18.5 26.5t19 24t22.5 26.5q63 70 157 70q46 0 80 -21.5t42 -60.5q19 -94 -41 -315q97 2 135 32q7 5 11 5
q13 0 22.5 -19t3.5 -25q-55 -55 -182 -67q-20 -78 -43 -198q-23 -27 -85 -27t-82 26q12 81 43 198l-104 7q-24 -57 -45 -93.5t-53 -71.5t-75.5 -52t-100.5 -17zM268 83q27 1 50.5 38.5t52.5 114.5q-45 0 -82 -21.5t-49 -62.5q-9 -23 -2.5 -46.5t30.5 -22.5zM651 302
q58 202 64 258q3 26 -13 26q-42 0 -139 -276q13 -2 44.5 -4t43.5 -4z" />
    <glyph glyph-name="Be" unicode="&#x411;" horiz-adv-x="887" 
d="M236 -8q-80 0 -132 30t-48 91q4 55 47 86t106 31q66 0 127 -32q11 28 33 109.5t46.5 154.5t50.5 114q-58 18 -79 18q-39 0 -50 -32q-7 -17 -1 -36.5t24 -28.5q11 -6 0 -35t-28 -30q-75 -1 -114 44t-22 112q29 114 183 114q72 0 184 -41.5t172 -42.5h3q44 0 62 20t17 64
q0 18 44 18q32 0 38 -12q44 -78 -1.5 -146t-137.5 -70h-4q-9 0 -18 0.5t-19.5 2.5t-17.5 3t-19 4.5t-17 5t-19.5 6t-18 6t-20 7.5t-19.5 7q-24 -37 -52 -127q14 1 40 1q150 0 215 -77.5t34 -189.5q-21 -75 -80.5 -112t-141.5 -37q-94 0 -191 66q-59 -66 -176 -66zM306 126
q-19 13 -53 17q-1 0 -4 0.5t-5 0.5q-34 0 -42 -26q-7 -24 16 -34q8 -3 18 -3q46 0 70 45zM587 88q71 7 87 97q12 65 -22 97.5t-101 32.5q-26 0 -39 -2q-16 -58 -55 -183q66 -43 119 -43q2 0 5.5 0.5t5.5 0.5z" />
    <glyph glyph-name="Ve" unicode="&#x412;" horiz-adv-x="894" 
d="M583 692q136 -2 222.5 -59t67.5 -150q-12 -58 -63 -91.5t-113 -33.5q84 -11 122 -78.5t16 -138.5q-23 -71 -82.5 -110t-136.5 -39q-112 0 -194 67q-59 -67 -176 -67q-80 0 -132 30t-48 91q4 55 47 86t106 31q66 0 127 -32q8 24 26.5 87.5t33 107.5t39.5 90.5t52 65.5
q16 8 44 8q24 0 46.5 -6.5t29.5 -16.5q-33 -61 -59 -139q56 4 100.5 29.5t56.5 69.5q14 53 -26 78.5t-115 26.5h-6q-114 0 -184.5 -52.5t-40.5 -138.5q-9 -23 -34.5 -41.5t-52.5 -18.5q-7 0 -11 1q-72 41 -69 117t68 132q112 94 339 94zM260 148h-9q-39 0 -47 -27
q-8 -23 15 -35q9 -4 21 -4q23 0 45 13.5t33 33.5q-38 17 -58 19zM532 319q-52 -158 -65 -189q59 -49 115 -49q80 0 105 104q12 46 -7.5 79t-60.5 47q-30 10 -60 10q-9 0 -27 -2z" />
    <glyph glyph-name="Ge" unicode="&#x413;" horiz-adv-x="609" 
d="M623 204q3 5 8 5q10 0 24 -11.5t11 -17.5q-101 -191 -327 -191q-91 0 -150.5 40.5t-57.5 124.5q1 61 30.5 110t69.5 80t105 65q32 17 49.5 27.5t40 27.5t34 35.5t14.5 39.5q4 29 -12.5 47t-43.5 20q-77 0 -111 -71q-11 -25 -56 -25q-22 0 -37.5 9.5t-15.5 26.5
q12 81 76 118t148 37q4 0 12 -0.5t11 -0.5q83 -5 135 -47.5t50 -110.5q-3 -77 -47.5 -125.5t-146.5 -109.5q-83 -49 -105 -71q-35 -35 -37 -76q-2 -45 27 -62t79 -17q70 0 131.5 32t91.5 91z" />
    <glyph glyph-name="De" unicode="&#x414;" horiz-adv-x="948" 
d="M568 692q67 -2 126 -22t108.5 -59.5t78 -106.5t25.5 -154q-3 -94 -33.5 -172.5t-99 -132t-164.5 -53.5q-89 0 -179 63q-63 -63 -176 -63q-86 0 -135.5 32t-44.5 91q4 55 48 84t106 29q69 0 127 -32q14 34 38.5 118t49.5 143t60 89q18 12 50 12q27 0 50 -8t25 -19
q-40 -56 -86.5 -203.5t-73.5 -194.5q67 -49 129 -49q43 0 75 27.5t47.5 72t23 86t7.5 81.5q1 52 -7 93t-29.5 78t-65.5 57.5t-108 20.5q-39 0 -79 -13t-71 -38t-43.5 -60t3.5 -80q-2 -16 -28 -38.5t-56 -22.5q-9 0 -18 3q-60 32 -63 103t49 127q101 111 334 111zM256 149
q-38 -3 -45 -31q-5 -23 16 -33q7 -4 15 -4q25 0 48.5 13t35.5 35q-35 20 -70 20z" />
    <glyph glyph-name="Ie" unicode="&#x415;" horiz-adv-x="612" 
d="M301 684q4 -28 11 -42q61 52 165 52q80 0 136 -35.5t53 -100.5q-3 -70 -51 -101t-122 -31q-32 1 -65.5 15t-53.5 33q4 -40 33 -68.5t82 -36.5q14 -15 4 -48.5t-29 -38.5q-19 4 -45 4q-56 0 -98.5 -22.5t-50.5 -68.5q-6 -34 5 -57.5t35 -34.5t46.5 -15.5t48.5 -4.5
q69 0 128.5 31.5t92.5 89.5q3 5 8 5q11 0 24 -11.5t11 -16.5q-47 -93 -130.5 -141.5t-190.5 -48.5q-38 0 -73.5 6t-69.5 21.5t-57.5 38.5t-34.5 60t-4 84q13 78 72 120t132 45q-38 16 -56 59.5t-14.5 88.5t21.5 76q-21 40 -23 92q0 9 9.5 14.5t22.5 5.5q25 0 28 -18z
M392 549q41 -36 89 -36q45 2 48 45q1 17 -15 27.5t-39 10.5q-57 0 -83 -47z" />
    <glyph glyph-name="Zhe" unicode="&#x416;" horiz-adv-x="1139" 
d="M960 -91q-20 3 -37.5 17.5t-29.5 31.5t-25 48.5t-20 51.5t-18.5 59t-16.5 54q-17 53 -33 81t-38 29q-6 -21 -68 -265q-4 -13 -27.5 -20.5t-53.5 -7.5q-34 0 -56.5 10t-18.5 29q13 43 39.5 130t39.5 130q-44 -6 -110 -98q-4 -6 -22.5 -33.5t-25 -36t-24 -32t-28 -32.5
t-29 -25t-34 -23t-36 -12.5t-42.5 -5.5q-14 0 -21 1q-29 3 -37.5 34t2 63.5t29.5 44.5q24 0 55.5 23.5t84.5 84.5q67 77 98 101q31 23 60 31q-33 34 -45 76t-16 108q-16 -31 -45.5 -54t-55 -33t-45.5 -28t-22 -42q-3 -54 39 -59q11 -4 8 -34.5t-16 -38.5q-32 -13 -66 -13
q-48 0 -81 26t-37 74q-4 44 20.5 77t66 56t85.5 44.5t86 55t61 74.5q7 29 73 29q28 0 50.5 -6.5t25.5 -16.5q-19 -100 -9 -164t38 -100l81 265q17 21 72 21q29 0 53.5 -6.5t26.5 -16.5l-87 -268q36 16 64.5 41t46 49.5t33 61t22.5 60.5t17 62q12 16 68 16q33 0 59.5 -6.5
t28.5 -17.5q-31 -129 -93.5 -215t-151.5 -115q45 -23 79 -120q4 -11 15 -46t16.5 -49t16.5 -36t24 -32t29 -13q22 -33 -4.5 -81.5t-75.5 -48.5q-8 0 -12 1z" />
    <glyph glyph-name="Ze" unicode="&#x417;" horiz-adv-x="630" 
d="M81 118q-5 16 13.5 32.5t35.5 16.5q6 0 11 -3q25 -37 65 -61t82 -24q51 0 81.5 31t36.5 85q5 47 -14.5 79t-59.5 43q-6 -1 -17 -1q-42 0 -59 26t-0.5 52.5t55.5 26.5q13 0 33 -5q35 5 64.5 39.5t31.5 76.5q2 33 -16 54t-53 21q-71 0 -103 -76q-12 -19 -52 -19
q-48 0 -51 33q18 80 77.5 117.5t141.5 37.5q93 0 152 -42.5t58 -119.5q-1 -62 -41 -104t-87 -57q105 -58 97 -179q-7 -97 -80.5 -152.5t-185.5 -55.5q-160 0 -216 128z" />
    <glyph glyph-name="Ii" unicode="&#x418;" horiz-adv-x="938" 
d="M471 669q24 18 85 18q72 0 77 -24q-13 -39 -39 -113t-49 -145t-57 -181q-43 -142 30 -142q40 0 81.5 47t66.5 127q5 17 55 180.5t70 222.5q21 14 63 14q36 0 65.5 -10t32.5 -26q-56 -139 -152 -493q-15 -58 11 -60q83 0 141 120q2 4 7 4q10 0 24.5 -10.5t11.5 -17.5
q-35 -71 -101 -131t-141 -60q-42 0 -71.5 24.5t-28.5 70.5q-33 -45 -85.5 -69t-97.5 -24q-102 0 -138 68t0 202q12 45 47 147.5t49 147.5q-17 -22 -48 -34.5t-57 -16.5t-49 -17t-29 -36q-11 -45 25 -62q11 -9 0 -38.5t-27 -30.5q-16 -2 -25 -2q-63 0 -104 41t-26 99
q11 41 43.5 65.5t77 36t91 21t94 31t77.5 56.5z" />
    <glyph glyph-name="Iibreve" unicode="&#x419;" horiz-adv-x="938" 
d="M471 669q24 18 85 18q72 0 77 -24q-13 -39 -39 -113t-49 -145t-57 -181q-43 -142 30 -142q40 0 81.5 47t66.5 127q5 17 55 180.5t70 222.5q21 14 63 14q36 0 65.5 -10t32.5 -26q-56 -139 -152 -493q-15 -58 11 -60q83 0 141 120q2 4 7 4q10 0 24.5 -10.5t11.5 -17.5
q-35 -71 -101 -131t-141 -60q-42 0 -71.5 24.5t-28.5 70.5q-33 -45 -85.5 -69t-97.5 -24q-102 0 -138 68t0 202q12 45 47 147.5t49 147.5q-17 -22 -48 -34.5t-57 -16.5t-49 -17t-29 -36q-11 -45 25 -62q11 -9 0 -38.5t-27 -30.5q-16 -2 -25 -2q-63 0 -104 41t-26 99
q11 41 43.5 65.5t77 36t91 21t94 31t77.5 56.5zM855 882q3 3 7 3q15 0 26.5 -25.5t1.5 -38.5q-24 -33 -70 -52t-94 -19q-41 0 -70.5 15t-35.5 44q-5 22 17 47t38 25q5 0 8 -4q18 -27 66 -27q29 0 60 9.5t46 22.5z" />
    </font>
</defs>
</svg>
